<?xml version="1.0" encoding="UTF-8"?>
<!DOCTYPE svg PUBLIC "-//W3C//DTD SVG 1.1//EN" "http://www.w3.org/Graphics/SVG/1.1/DTD/svg11.dtd">
<svg xmlns="http://www.w3.org/2000/svg" version="1.1" width="512px" height="512px" style="shape-rendering:geometricPrecision; text-rendering:geometricPrecision; image-rendering:optimizeQuality; fill-rule:evenodd; clip-rule:evenodd" xmlns:xlink="http://www.w3.org/1999/xlink">
<g><path style="opacity:0.978" fill="#000000" d="M 233.5,-0.5 C 248.167,-0.5 262.833,-0.5 277.5,-0.5C 377.805,11.9821 449.305,63.9821 492,155.5C 502.297,180.687 508.797,206.687 511.5,233.5C 511.5,248.167 511.5,262.833 511.5,277.5C 499.018,377.805 447.018,449.305 355.5,492C 330.313,502.297 304.313,508.797 277.5,511.5C 262.833,511.5 248.167,511.5 233.5,511.5C 133.195,499.018 61.6947,447.018 19,355.5C 8.70332,330.313 2.20332,304.313 -0.5,277.5C -0.5,262.833 -0.5,248.167 -0.5,233.5C 11.9821,133.195 63.9821,61.6947 155.5,19C 180.687,8.70332 206.687,2.20332 233.5,-0.5 Z M 238.5,51.5 C 309.458,47.9089 367.958,72.9089 414,126.5C 462.165,190.175 472.165,259.508 444,334.5C 409.965,407.623 352.798,449.123 272.5,459C 201.52,463.082 143.02,438.248 97,384.5C 48.8349,320.825 38.8349,251.492 67,176.5C 101.255,103.451 158.422,61.7841 238.5,51.5 Z"/></g>
<g><path style="opacity:0.991" fill="#000000" d="M 239.5,127.5 C 293.89,123.78 336.057,144.447 366,189.5C 384.719,222.792 388.719,257.792 378,294.5C 359.836,344.836 324.336,374.336 271.5,383C 217.088,387.209 174.921,366.709 145,321.5C 126.281,288.208 122.281,253.208 133,216.5C 151.396,166.237 186.896,136.57 239.5,127.5 Z"/></g>
</svg>
