<?xml version="1.0" encoding="UTF-8"?>
<!DOCTYPE svg PUBLIC "-//W3C//DTD SVG 1.1//EN" "http://www.w3.org/Graphics/SVG/1.1/DTD/svg11.dtd">
<svg xmlns="http://www.w3.org/2000/svg" version="1.1" width="512px" height="512px" style="shape-rendering:geometricPrecision; text-rendering:geometricPrecision; image-rendering:optimizeQuality; fill-rule:evenodd; clip-rule:evenodd" xmlns:xlink="http://www.w3.org/1999/xlink">
<g><path style="opacity:0.987" fill="#000000" d="M 153.5,47.5 C 166.837,47.3334 180.171,47.5001 193.5,48C 196.446,48.8061 199.112,50.1395 201.5,52C 244.877,103.709 287.877,155.709 330.5,208C 363.163,207.657 395.829,207.657 428.5,208C 448.725,209.185 467.059,215.518 483.5,227C 496.558,241.081 499.058,256.914 491,274.5C 483.861,284.668 474.361,291.835 462.5,296C 443.78,301.736 424.614,304.57 405,304.5C 380.177,303.282 355.344,302.782 330.5,303C 288.642,353.224 247.142,403.724 206,454.5C 202.279,458.551 197.779,461.384 192.5,463C 179.5,463.667 166.5,463.667 153.5,463C 144.518,458.527 141.351,451.36 144,441.5C 165.116,394.148 186.616,346.981 208.5,300C 177.164,298.589 145.831,297.422 114.5,296.5C 100.773,312.275 87.2726,328.275 74,344.5C 71.4359,346.727 68.6026,348.561 65.5,350C 52.5566,351.589 39.5566,351.922 26.5,351C 16.6455,346.117 13.1455,338.284 16,327.5C 22.641,303.248 29.4743,279.081 36.5,255C 29.4395,230.929 22.6062,206.762 16,182.5C 13.4515,172.1 16.9515,164.6 26.5,160C 37.8333,159.333 49.1667,159.333 60.5,160C 66.7343,161.903 72.2343,165.07 77,169.5C 88.8333,184 100.667,198.5 112.5,213C 144.478,212.811 176.478,212.144 208.5,211C 187.004,163.851 165.504,116.684 144,69.5C 141.486,59.5416 144.653,52.2082 153.5,47.5 Z"/></g>
</svg>
