<?xml version="1.0" encoding="UTF-8"?>
<!DOCTYPE svg PUBLIC "-//W3C//DTD SVG 1.1//EN" "http://www.w3.org/Graphics/SVG/1.1/DTD/svg11.dtd">
<svg xmlns="http://www.w3.org/2000/svg" version="1.1" width="512px" height="512px" style="shape-rendering:geometricPrecision; text-rendering:geometricPrecision; image-rendering:optimizeQuality; fill-rule:evenodd; clip-rule:evenodd" xmlns:xlink="http://www.w3.org/1999/xlink">
<g><path style="opacity:0.987" fill="#000000" d="M 189.5,58.5 C 193.31,58.379 196.477,59.7124 199,62.5C 202.334,71.9952 204.167,81.6619 204.5,91.5C 193.886,95.8814 185.053,102.548 178,111.5C 169.288,128.017 172.788,141.184 188.5,151C 198.684,154.911 209.018,155.411 219.5,152.5C 222.197,157.561 224.53,162.895 226.5,168.5C 218.629,176.903 212.796,186.57 209,197.5C 205.595,214.192 211.761,225.692 227.5,232C 241.897,232.923 254.897,229.09 266.5,220.5C 272.385,224.602 278.052,228.936 283.5,233.5C 278.644,244.827 277.477,256.494 280,268.5C 284.094,280.39 292.427,287.056 305,288.5C 312.713,287.725 319.546,284.892 325.5,280C 330.043,275.625 334.376,271.125 338.5,266.5C 355.49,277.994 373.823,286.827 393.5,293C 401.072,294.873 408.738,296.206 416.5,297C 436.884,297.047 457.218,297.714 477.5,299C 486.096,301.929 491.596,307.763 494,316.5C 494.667,329.167 494.667,341.833 494,354.5C 453.422,384.972 407.589,400.639 356.5,401.5C 333.771,401.039 311.104,399.539 288.5,397C 256.044,391.642 223.711,385.642 191.5,379C 172.919,376.458 154.252,375.292 135.5,375.5C 133.775,362.571 129.608,350.571 123,339.5C 119.799,335.964 116.299,332.797 112.5,330C 100.167,324.333 87.8333,318.667 75.5,313C 69.8492,308.533 66.6825,302.699 66,295.5C 63.5961,264.845 61.4294,234.179 59.5,203.5C 69.5056,203.666 79.5056,203.5 89.5,203C 94.8281,201.837 99.8281,199.837 104.5,197C 113.425,189.953 122.258,182.786 131,175.5C 137.431,167.881 140.931,159.047 141.5,149C 137.267,125.511 133.433,102.011 130,78.5C 131.122,76.3762 132.622,74.5429 134.5,73C 152.993,68.2949 171.327,63.4616 189.5,58.5 Z"/></g>
<g><path style="opacity:0.977" fill="#000000" d="M 113.5,98.5 C 114.5,98.5 115.5,98.5 116.5,98.5C 119.552,115.31 122.552,132.144 125.5,149C 124.614,157.77 120.614,164.77 113.5,170C 107.5,174.667 101.5,179.333 95.5,184C 93.2827,185.275 90.9494,186.275 88.5,187C 66.5,187.333 44.5,187.667 22.5,188C 20.567,188.251 18.7337,188.751 17,189.5C 16.3333,172.833 16.3333,156.167 17,139.5C 18.0314,136.461 19.8647,133.961 22.5,132C 40.7234,127.943 58.7234,122.943 76.5,117C 89.6707,112.285 102.004,106.118 113.5,98.5 Z"/></g>
<g><path style="opacity:0.909" fill="#000000" d="M 206.5,107.5 C 207.822,107.33 208.989,107.663 210,108.5C 212.233,118.167 214.4,127.833 216.5,137.5C 208.199,139.337 200.199,138.504 192.5,135C 188.674,130.029 188.507,124.862 192,119.5C 196.259,114.646 201.092,110.646 206.5,107.5 Z"/></g>
<g><path style="opacity:0.893" fill="#000000" d="M 233.5,184.5 C 234.496,184.414 235.329,184.748 236,185.5C 240.699,193.556 246.365,200.889 253,207.5C 253.749,208.635 253.583,209.635 252.5,210.5C 245.462,215.127 237.795,216.96 229.5,216C 223.758,211.762 222.258,206.262 225,199.5C 227.228,194.118 230.062,189.118 233.5,184.5 Z"/></g>
<g><path style="opacity:0.972" fill="#000000" d="M 22.5,203.5 C 29.5,203.5 36.5,203.5 43.5,203.5C 45.4294,234.845 47.5961,266.178 50,297.5C 52.4463,313.279 60.9463,324.446 75.5,331C 84.8333,335 94.1667,339 103.5,343C 109.175,346.345 113.008,351.178 115,357.5C 116.647,363.084 117.813,368.751 118.5,374.5C 85.2263,373.538 52.7263,368.204 21,358.5C 17.8313,351.325 15.998,343.825 15.5,336C 16.3253,293.529 16.8253,251.029 17,208.5C 18.4055,206.256 20.2389,204.59 22.5,203.5 Z"/></g>
<g><path style="opacity:0.9" fill="#000000" d="M 297.5,241.5 C 307.014,246.42 316.014,252.086 324.5,258.5C 319.826,265.519 313.493,270.186 305.5,272.5C 297.736,270.679 294.07,265.679 294.5,257.5C 294.857,252.022 295.857,246.689 297.5,241.5 Z"/></g>
<g><path style="opacity:0.972" fill="#000000" d="M 492.5,374.5 C 497.581,395.518 490.248,411.018 470.5,421C 435.902,439.9 398.902,450.233 359.5,452C 327.167,452.667 294.833,452.667 262.5,452C 242.61,450.592 224.277,444.592 207.5,434C 199.15,430.335 191.15,431.002 183.5,436C 178.095,442.076 172.095,447.409 165.5,452C 117.833,452.667 70.1667,452.667 22.5,452C 19.9427,451.315 18.1094,449.815 17,447.5C 16.3333,424.167 16.3333,400.833 17,377.5C 17.5194,376.484 18.3527,375.818 19.5,375.5C 51.9207,384.346 84.9207,389.513 118.5,391C 140.213,391.084 161.88,392.084 183.5,394C 218.092,400.718 252.759,407.052 287.5,413C 320.782,417.423 354.115,418.089 387.5,415C 425.905,409.818 460.905,396.318 492.5,374.5 Z"/></g>
</svg>
