<?xml version="1.0" encoding="UTF-8"?>
<!DOCTYPE svg PUBLIC "-//W3C//DTD SVG 1.1//EN" "http://www.w3.org/Graphics/SVG/1.1/DTD/svg11.dtd">
<svg xmlns="http://www.w3.org/2000/svg" version="1.1" width="512px" height="512px" style="shape-rendering:geometricPrecision; text-rendering:geometricPrecision; image-rendering:optimizeQuality; fill-rule:evenodd; clip-rule:evenodd" xmlns:xlink="http://www.w3.org/1999/xlink">
<g><path style="opacity:0.973" fill="#000000" d="M 262.5,-0.5 C 268.833,-0.5 275.167,-0.5 281.5,-0.5C 305.036,7.20636 316.203,23.5397 315,48.5C 310.308,72.3569 295.808,85.0236 271.5,86.5C 244.783,84.2837 230.117,69.7837 227.5,43C 229.346,20.4207 241.013,5.92073 262.5,-0.5 Z"/></g>
<g><path style="opacity:0.98" fill="#000000" d="M 410.5,511.5 C 407.5,511.5 404.5,511.5 401.5,511.5C 399.525,510.354 398.025,508.687 397,506.5C 395.814,419.837 394.981,333.171 394.5,246.5C 367.165,246.667 339.831,246.5 312.5,246C 308.195,245.097 304.361,243.263 301,240.5C 293.333,229.833 285.667,219.167 278,208.5C 272.156,241.079 267.156,273.746 263,306.5C 281,323.167 299,339.833 317,356.5C 318.893,359.618 320.226,362.951 321,366.5C 319.617,406.536 317.283,446.536 314,486.5C 310.067,504.41 298.9,512.243 280.5,510C 269.248,507.081 262.415,499.914 260,488.5C 261.669,453.465 263.669,418.465 266,383.5C 250,368.833 234,354.167 218,339.5C 211.798,363.977 205.131,388.31 198,412.5C 176.333,441.833 154.667,471.167 133,500.5C 121.909,511.561 109.409,513.395 95.5,506C 84.2068,496.073 81.3734,484.239 87,470.5C 106.948,442.885 127.281,415.551 148,388.5C 157.531,352.37 167.365,316.37 177.5,280.5C 155.473,276.639 142.639,263.639 139,241.5C 138.333,176.5 138.333,111.5 139,46.5C 140.41,41.1603 143.577,37.327 148.5,35C 165.455,33.4068 182.455,33.0735 199.5,34C 206.985,34.4851 211.819,38.3184 214,45.5C 214.333,63.5 214.667,81.5 215,99.5C 233.906,86.0286 252.739,86.1953 271.5,100C 283.159,111.3 288.326,125.134 287,141.5C 301.202,160.736 315.035,180.236 328.5,200C 354.833,200.333 381.167,200.667 407.5,201C 419.572,203.616 426.238,211.116 427.5,223.5C 426.501,232.85 422.001,239.85 414,244.5C 413.949,328.004 414.449,411.504 415.5,495C 416.364,501.404 414.697,506.904 410.5,511.5 Z"/></g>
</svg>
