<?xml version="1.0" encoding="UTF-8"?>
<!DOCTYPE svg PUBLIC "-//W3C//DTD SVG 1.1//EN" "http://www.w3.org/Graphics/SVG/1.1/DTD/svg11.dtd">
<svg xmlns="http://www.w3.org/2000/svg" version="1.1" width="512px" height="512px" style="shape-rendering:geometricPrecision; text-rendering:geometricPrecision; image-rendering:optimizeQuality; fill-rule:evenodd; clip-rule:evenodd" xmlns:xlink="http://www.w3.org/1999/xlink">
<g><path style="opacity:0.988" fill="#000000" d="M 182.5,31.5 C 189.812,31.4348 196.812,32.9348 203.5,36C 299.73,74.2097 370.896,139.71 417,232.5C 435.286,271.025 446.452,311.525 450.5,354C 451.28,360.721 448.28,364.221 441.5,364.5C 369.065,346.493 299.399,353.993 232.5,387C 225.104,389.141 220.77,386.474 219.5,379C 256.18,273.53 248.68,171.363 197,72.5C 191.251,62.6656 185.251,52.9989 179,43.5C 177.593,38.6427 178.76,34.6427 182.5,31.5 Z"/></g>
<g><path style="opacity:0.98" fill="#000000" d="M 176.5,76.5 C 179.939,76.5887 182.772,77.9221 185,80.5C 226.751,179.474 230.418,279.807 196,381.5C 194.367,384.148 192.033,385.481 189,385.5C 180.791,382.874 172.624,380.041 164.5,377C 133.966,368.746 103.8,369.912 74,380.5C 67.2658,379.114 64.5991,375.114 66,368.5C 131.826,283.715 166.826,187.382 171,79.5C 172.876,78.3913 174.709,77.3913 176.5,76.5 Z"/></g>
<g><path style="opacity:0.988" fill="#000000" d="M 451.5,396.5 C 456.93,396.161 462.264,396.661 467.5,398C 469.742,399.986 470.742,402.486 470.5,405.5C 461.403,446.763 436.07,471.263 394.5,479C 286.167,479.667 177.833,479.667 69.5,479C 68.3333,477.833 67.1667,476.667 66,475.5C 56.6599,457.823 48.1599,439.823 40.5,421.5C 40.783,417.045 43.1164,414.211 47.5,413C 182.34,407.827 317.007,402.327 451.5,396.5 Z"/></g>
</svg>
