<?xml version="1.0" encoding="UTF-8"?>
<!DOCTYPE svg PUBLIC "-//W3C//DTD SVG 1.1//EN" "http://www.w3.org/Graphics/SVG/1.1/DTD/svg11.dtd">
<svg xmlns="http://www.w3.org/2000/svg" version="1.1" width="512px" height="512px" style="shape-rendering:geometricPrecision; text-rendering:geometricPrecision; image-rendering:optimizeQuality; fill-rule:evenodd; clip-rule:evenodd" xmlns:xlink="http://www.w3.org/1999/xlink">
<g><path style="opacity:0.985" fill="#000000" d="M 187.5,31.5 C 228.544,29.4432 256.044,47.7765 270,86.5C 280.82,123.379 273.32,155.879 247.5,184C 217.831,208.334 187.164,209.667 155.5,188C 128.219,162.483 118.385,131.317 126,94.5C 134.314,61.3548 154.814,40.3548 187.5,31.5 Z"/></g>
<g><path style="opacity:0.984" fill="#000000" d="M 349.5,71.5 C 389.839,69.9998 414.339,88.9998 423,128.5C 427.37,160.059 418.203,186.892 395.5,209C 368.563,231.218 340.229,233.218 310.5,215C 289.056,196.016 280.223,172.183 284,143.5C 290.556,105.26 312.39,81.2601 349.5,71.5 Z"/></g>
<g><path style="opacity:0.983" fill="#000000" d="M -0.5,208.5 C -0.5,200.5 -0.5,192.5 -0.5,184.5C 9.73407,141.88 36.4007,124.713 79.5,133C 107.216,144.052 124.049,164.218 130,193.5C 134.91,221.759 126.743,245.259 105.5,264C 77.3055,280.315 50.6388,277.982 25.5,257C 11.6853,243.534 3.0186,227.367 -0.5,208.5 Z"/></g>
<g><path style="opacity:0.984" fill="#000000" d="M 511.5,252.5 C 511.5,260.5 511.5,268.5 511.5,276.5C 504.355,308.818 485.022,330.318 453.5,341C 419.557,348.276 395.057,336.443 380,305.5C 369.575,261.851 384.075,229.351 423.5,208C 448.341,198.124 471.341,201.124 492.5,217C 502.592,226.899 508.926,238.732 511.5,252.5 Z"/></g>
<g><path style="opacity:0.992" fill="#000000" d="M 234.5,212.5 C 278.563,213.447 313.73,231.447 340,266.5C 359.667,297.167 379.333,327.833 399,358.5C 415.344,388.995 414.011,418.661 395,447.5C 371.946,475.406 342.78,484.906 307.5,476C 274.872,460.784 240.872,456.45 205.5,463C 189.699,467.6 174.033,472.6 158.5,478C 112.283,483.319 81.4501,464.153 66,420.5C 60.6706,397.81 64.004,376.476 76,356.5C 96.2492,325.67 116.249,294.67 136,263.5C 161.18,231.826 194.013,214.826 234.5,212.5 Z"/></g>
</svg>
