<?xml version="1.0" encoding="UTF-8"?>
<!DOCTYPE svg PUBLIC "-//W3C//DTD SVG 1.1//EN" "http://www.w3.org/Graphics/SVG/1.1/DTD/svg11.dtd">
<svg xmlns="http://www.w3.org/2000/svg" version="1.1" width="512px" height="512px" style="shape-rendering:geometricPrecision; text-rendering:geometricPrecision; image-rendering:optimizeQuality; fill-rule:evenodd; clip-rule:evenodd" xmlns:xlink="http://www.w3.org/1999/xlink">
<g><path style="opacity:0.981" fill="#000000" d="M 511.5,187.5 C 511.5,189.833 511.5,192.167 511.5,194.5C 505.669,203.152 498.002,209.985 488.5,215C 477.157,214.797 465.824,214.464 454.5,214C 450.835,215.497 447.502,217.497 444.5,220C 436.398,229.046 428.898,238.546 422,248.5C 409.676,260.571 396.176,271.071 381.5,280C 370.96,286.034 360.293,291.867 349.5,297.5C 349.165,308.337 349.832,319.17 351.5,330C 351.263,335.474 348.93,339.808 344.5,343C 336.507,346.325 329.174,350.659 322.5,356C 312.403,361.024 301.736,363.857 290.5,364.5C 290.34,362.801 290.506,361.134 291,359.5C 293.881,355.071 296.215,350.404 298,345.5C 303.681,338.076 311.181,333.909 320.5,333C 325.299,329.929 326.465,325.762 324,320.5C 321.246,314.653 317.746,309.32 313.5,304.5C 309.672,314.825 305.839,325.158 302,335.5C 300.939,338.562 299.106,341.062 296.5,343C 277.937,343.853 261.27,349.853 246.5,361C 244.833,361.667 243.167,361.667 241.5,361C 240.373,359.247 239.373,357.413 238.5,355.5C 233.52,353.127 232.353,349.461 235,344.5C 241.051,335.46 249.217,328.96 259.5,325C 266.36,322.991 273.027,320.491 279.5,317.5C 282.103,307.857 283.769,298.024 284.5,288C 283.239,281.382 279.572,276.382 273.5,273C 262.756,267.142 251.423,262.975 239.5,260.5C 240.672,270.132 238.838,279.132 234,287.5C 226.309,296.19 218.309,304.523 210,312.5C 205.672,321.92 206.005,331.253 211,340.5C 213.748,345.666 216.748,350.666 220,355.5C 226.697,362.532 233.697,369.198 241,375.5C 242.996,381.901 242.662,388.234 240,394.5C 239.097,395.701 237.931,396.535 236.5,397C 230.461,395.885 224.461,395.551 218.5,396C 217.975,395.308 217.308,394.808 216.5,394.5C 214.684,395.815 213.017,397.315 211.5,399C 209.421,399.808 207.421,399.641 205.5,398.5C 203.954,390.984 201.788,383.65 199,376.5C 193.634,367.147 188.301,357.813 183,348.5C 182.573,329.521 182.74,310.521 183.5,291.5C 183.382,277.78 178.715,265.946 169.5,256C 162.663,251.747 155.663,247.747 148.5,244C 136.85,233.663 129.35,220.829 126,205.5C 108.063,218.369 88.0631,225.702 66,227.5C 45.4552,226.894 28.7885,218.561 16,202.5C 7.22803,192.293 1.72803,180.627 -0.5,167.5C -0.5,160.833 -0.5,154.167 -0.5,147.5C 0.933026,143.866 3.26636,143.033 6.5,145C 12.9551,153.411 19.2885,161.911 25.5,170.5C 39.4542,182.911 55.7876,187.744 74.5,185C 87.6963,183.4 99.0296,178.066 108.5,169C 122.029,161.378 136.362,155.711 151.5,152C 166.768,140.342 184.101,134.509 203.5,134.5C 218.398,135.038 233.064,137.205 247.5,141C 263.909,147.136 280.576,152.47 297.5,157C 313.626,160.903 329.959,162.236 346.5,161C 353.39,160.222 360.057,158.555 366.5,156C 376.32,151.59 385.986,146.923 395.5,142C 391.53,134.217 391.53,126.383 395.5,118.5C 398.497,117.524 401.497,117.69 404.5,119C 410.198,121.187 415.865,123.353 421.5,125.5C 421.334,121.154 421.501,116.821 422,112.5C 423.049,111.483 424.216,111.316 425.5,112C 427.788,114.743 429.955,117.577 432,120.5C 437.5,123.333 441.667,127.5 444.5,133C 459.241,139.076 470.074,149.243 477,163.5C 487.276,173.279 498.776,181.279 511.5,187.5 Z"/></g>
</svg>
