<svg xmlns="http://www.w3.org/2000/svg" width="5120" height="2880" fill-rule="evenodd" clip-rule="evenodd" image-rendering="optimizeQuality" shape-rendering="geometricPrecision" text-rendering="geometricPrecision"><path fill="#f99f1a" d="M5120 1170v1710H0V1145l2-4 21-16 34-15 65-35c35 14 70 27 107 38a5737 5737 0 0 0 257 61l32 14 30 26 18 44 10-5c34 19 70 35 107 49l19 15 61-14c15-5 28-14 38-27l26-18 12-5c15-23 37-33 65-31 13-5 25-12 37-21 18-5 36-12 53-22 20-7 41-7 62 1l7 10c13-1 26 1 40 4l7 12c17 0 35 2 53 6l71 22a1038 1038 0 0 1 93 18c14-2 28-2 43 0l9-5 26-30 34-21 50-2 72-45 20 2 19-16 26-12c13-8 27-16 41-22 32 15 63 33 94 52l20 1c5 6 12 11 20 14l5 5c13-5 26-8 40-11 11 10 20 22 26 37l1 7c4 2 8 4 11 8l11 5 9 17c11 4 15 12 14 24a630 630 0 0 1 93 21c16-2 32 0 48 7l28 3 68 32c37 0 72-6 107-18l24 17c18 10 38 16 60 20l42 15 20 2a1631 1631 0 0 0 156-53c17 0 33 5 49 13 15 5 32 8 49 8l19 8 55-16c23-12 47-19 74-20 0-8 1-14 4-21l36-17 19-19 56-30 7-15 26-16v-14l11-13 1-7 44-25c5-6 11-12 18-16l4 2c0-5 1-10 3-14 5-1 9-3 14-6-2-2-3-3-2-5h-6c0-7 1-14 3-20 1-2 2-2 3 0l1 4 8-1-2-6c-3-3-7-4-10-4-2-2-2-3 0-4l12-1 25-11 1-6h4v6l15 9 2-9c1-1 3 0 4 1 1 4 3 7 6 11l7 2 3 10 10 1c0 2 1 3 3 5 3-2 6-3 10-3l-1 9c16 1 32 0 48-1l2-5c2 1 3 2 3 5h4l-2 4c-1 5-2 11-1 17 4-1 9 0 14 1 11 8 21 17 31 27l5 18 3 3 42 24 25 13h65l6-8h31c14 10 28 21 41 33l1-2c4 4 7 9 10 15l8 4a1125 1125 0 0 1 50 13c5 6 13 10 22 10 11 5 23 8 36 10l9 5 8 2 84 1 13 4 19 3 22 1 4 4 13 1c54-2 108-2 163-2l22 6c4 3 6 7 6 13a478 478 0 0 1 81 5c25-3 50-4 76-5l31-6 35-17 20-5h55c15 8 29 18 43 29a583 583 0 0 1 33-8l53 9 1 2 1 15 23 2c3 4 7 4 11 2l24 1 109-36 58-25 86-21 58-24 13 4c45-13 90-27 134-43l41-19c12 0 24 2 37 5 33 14 65 29 98 46l23-20 20-16Zm-2051-111v5c-2-2-2-4 0-5Zm6 0h3v4h-3v-4Zm8 0h4c0 4-2 5-5 3l1-3Zm8 0h4v4h-4v-4Zm10 0h3c0 2-1 3-3 5v-5Zm-38 7c0-2 1-2 2 0h-2Zm4-1c1-1 2 0 3 1-2 1-3 0-3-1Zm10 0 1 1h-3l2-1Zm5 0c1-1 3 0 5 1l-3 1-2-2Zm9 0c1-1 2 0 4 1l-2 1-2-2Zm9 0c1-1 2 0 4 1l-2 1-2-2Z"/><path fill="#e3e697" d="m2569 1454 97 3c3 2 4 5 3 10-6 7-14 11-23 12l-7 5c-10 1-19 2-28 5l-26 12c-1 1-2 2-1 4a756 756 0 0 0 46 2c7-5 13-4 19 1l24 6 44 5 28-4c6-2 12 0 17 4h4l27 14c-1 1-1 3 1 4l1 4 40 3c3 1 5 3 7 6l15 1 4 2c9 1 18 0 27-3l5 2c1-3 3-4 6-1l6-1 3 2 5-1 2 1 12 2 27-2c2 5 5 9 10 12l-9 9-5 11c-6 2-9 6-11 13-2 2-3 2-5 0-7 1-14 0-20-3l-10-1-8-4c-8 2-13 0-18-5h-8l-14-3-5-3-18-2-5-2c-8 2-14-1-17-9-7-1-14 0-20 3-3 1-4 2-5 4h-9l-19-11-30-7a1017 1017 0 0 1-111-9c-7-4-13-5-20-5l-8-5c-7 0-13-1-19-3-9-5-19-10-28-13-11-10-10-20 1-30l23-8 23-3 6-4c1-2 0-3-1-4l-15-1-10-3c-6-4-6-8 0-12Z"/></svg>