<svg xmlns="http://www.w3.org/2000/svg" width="5120" height="2880" fill-rule="evenodd" clip-rule="evenodd" image-rendering="optimizeQuality" shape-rendering="geometricPrecision" text-rendering="geometricPrecision"><path fill="#fec71a" d="M5120 555v2325H0V959l1-238c2-3 3-3 3 1 1-2 1-2 2 0 1-4 1-4 2 0 2-3 5-3 7 0 1-2 2-1 3 1-2 1-1 2 2 2l1 3 6-4 1 3c2-3 4-3 6 0l2-1c2 3 4 3 6-1l1 2c3-1 5-2 6-5l3 3c0-2 2-3 3-4 1 1 2 0 3-1a667 667 0 0 0 6 1h8l-2 2 4 2v-3c2-1 4 0 5 2l2-1 3 4 1-1 10 7 4 16 3 4v7c3 0 5 1 6 5l2 5c-2 3-1 7 1 10-2 3-1 5 2 6-1 3 1 6 4 9l5 1c-1 2 0 3 2 2 1 0 2 1 1 2 2 0 4 2 5 4 1-1 2-2 3-1-2 1-2 2-1 4 2-2 3-1 4 1 2 1 2 3 1 5h2c2 3 3 6 3 10l4 9c-2-2-3-2-3 1l2 1-1 2 2 6c1 1 2 1 3-1l2 1c-3 1-5 3-5 6h4c-3 1-4 3-3 6-2-1-3 0-4 1l2 1c-3 2-4 5-4 8l-2 1c1 4 0 6-4 7v9a814 814 0 0 0 4 11l8 1-6-4 1-1 6 2v3l11 5 2 5 2-1 4 4c5-2 10-2 15 0l11-4c2 0 3 1 3 4l7-4c1 1 2 0 3-1l-3-1c0-2 2-3 4-1-1 1 0 2 1 3 1-2 2-3 4-3v3h4l3-3c1 3 2 3 4 1 1 1 2 2 4 1l1 3c4 0 8 1 11 4l8-4 1 2 3-2 1 1 6-2 3 3c-3 0-4 2-2 4l2-2c3 1 5 3 7 6 2-2 2-3 0-4l1-2 5 1c-2 2-3 4-3 7l1 1 5-3 4 1v3l1-1 1 3 1-1 3 2c-1 3 0 3 2 1l2 3c2-2 3-1 4 2-3 2-3 4 1 5 1 3 4 5 8 6l7 10-3 4 5 5c2-2 4-3 6-2l8-2h11c7 0 13 2 20 5 1-1 2-1 3 1l1-1 19 9 1 3c1-1 3 0 5 1 5 6 9 13 12 21l-2 4c1 1 0 2-1 3v4c1-2 2-2 3 0l-5 3 2 4-2 3c-2-1-3 0-3 3-2 0-3 0-4 2-2-3-3-3-4 0l1 3c-5 2-6 6-2 10l-3 8 6 6 2 8-5 19 2-1c2 3 5 5 9 7l2-2 5 2v3h12l16 3v3c4 0 8 2 12 4 1-3 2-3 3 0l1-2 2 3v-3c0-2 2-2 3-1 1-3 3-3 5 0v-2h2v3l3-1c-2-1-2-2 0-2 2 2 4 2 4-2l4 3h5l1-2 3 3-3 1-1 4c1 2 2 2 3 0 2 1 2 3 2 6l2 5 13-9c0-2 1-2 2 0 2-2 2-3 0-2l-1-3c-1-2 0-3 2-4l-1-1 8-9 5-3 1 1c1-3 2-4 4-3 1-2 2-3 4-2 3-2 6-3 9-2 0-2 1-3 2-3a1257 1257 0 0 1 21 1c2 2 5 2 8 2 0 2 2 3 4 2l6 4c2-1 3 0 4 2l3-5 3 2 9 6c-3 1-3 3-1 5l-5 14c1-2 1-2 2 0l6-8 4-1c4 2 8 6 10 10 1-2 1-2 2 0l5-4h2c0 1 1 2 2 1 3 1 4 3 5 5l6 3c3 4 4 8 2 13l1 1 4 1 3 4 2-2h2l5 3 1 5c-2 1-3 2-2 4 0 2 1 2 3 1l3 3c-1 4 1 7 5 9l-5 4c-1-2-2-1-2 1 1 6 2 11 5 15v15c1-3 1-3 2 0 2-2 4-3 6-2l1-2 4 4 5-1 5 3 2-2 1 1 1-5c1 1 2 0 2-1 3-2 5-2 8 0l1-2 2 2 5-3c2 1 5 0 7-1 1-1 3 0 5 2l4-1 5 2 1 1 2-4c0-3 2-5 3-6l1 1c3-3 5-4 8-2 1-1 2-2 1-3l4-1h10l4-3c1 1 2 1 2-1l1 1 5-3-2-2v-2c1-5 3-9 8-11 9-12 22-20 38-22h10l2 1 16 3c5-16 15-28 31-34l1 1c1-2 2-3 4-3 8 0 17 2 25 7 1-3 3-4 6-3 0-3 1-5 3-7l6-2 3-9c-3-4-3-7 1-10l-2-2v-4c1-1 2-3 1-4l2 1c0-4 2-8 5-10l-2-3c2-1 4-3 7-3-1-2 0-4 2-5-2-2-2-3 0-3l1 2c1-2 3-3 5-2-1-4 0-5 3-3 2-2 4-4 7-4 2 1 5 1 8-1 1 0 2 1 2 3l3-6-2-2v-1l2-2c-2-1-2-2 0-3l-3-2-1-4 3-2-4-2c-1-4 0-7 1-10 0-2 0-3 2-4l-2-1c2-1 3-2 2-4l6-12 6-5c-1-3-1-5 1-6l-2-3 3-4c-2-2-2-4 0-6 2-1 2-2 0-3l2-2c-2-2-2-4 1-6l-1-5c1-2 2-2 2 1l2-2v-5c2 0 3-1 4-3 2-1 2-2 0-3 3 0 4-1 3-4h4l3-4-1-4c-3 1-4 0-4-3l-1 3c-1-3 0-5 2-6 0-5 1-9 4-12l2 4 2-2c-2-1-2-2-1-3 2-1 3 0 4 2l1-3c4-1 6-3 6-7 4 1 7 0 9-4 4 1 8-1 11-4l-1 3 1 2c1-4 2-4 4-1 4-4 8-4 12 0 1-3 1-3 2 0 2-2 5-3 8-3l1-2 3 1c-2-1-2-2-1-3 2-1 3 0 4 2 1-3 3-5 6-6l7-1 1 1v-4c3-4 3-8 1-12l1-2 1 1c2-4 4-4 6-1l3-2-5-6 3-1c-2-2-3-2-4 0-3-2-3-4 1-4l-2-3 22-13c2-2 5-2 8 0l1-3 1 1 5-4-1-4 3-2c1 1 2 0 2-1l1 1c7-4 13-6 20-8l1 2 6-3c11-1 21 2 30 9l3 5c1-1 2-1 3 1l6-1 2-3v4l3-3 1 2 3-1 14 7v4l1-1c2 1 2 2 2 4 2-1 5 0 8 3l1-1 20 8 8 7c-3 1-3 3 0 5l1-2c2 1 2 3 1 6l1 1 1-3c2 6 6 11 10 15h6c1 0 2 1 2 3l2-2c2 0 3 1 4 3 1 0 2-1 1-2l1-1 2 4c1-3 2-3 4-1-2 1-3 2-2 4l4-4 6 4-4 2v2h6c0 2 2 2 3 0 6 4 11 9 15 15l1-1c0 3 1 7 4 10l-1 2 5 7 1-3 3 5c-2 1-2 2-1 4 1-2 2-2 3-1 0-5 1-5 4-2 1 5 3 8 8 11l-2 1c1 7 4 13 10 18-1 2-1 2 1 1l4 7c5-5 12-9 19-12 2-5 6-8 12-8l1 1 5-4 8-1 1 2c1-2 2-3 4-3l1 3c1-2 3-2 4 1 10-1 20 1 29 7l1 3c1-1 3 0 5 1l10 11c1 2 3 2 5 1l4 4h4l1 3 12-13h3l6-6 4 1-1-1 2-3 3 1-1-3 2-2c2 1 3 1 2-1l10-7 1 2c2-5 6-7 11-7l-1-3-1-4h4c3 3 5 3 8-1 2 0 5-1 6-3h3c1 1 2 1 3-1h5l6 5 5-5 1 3c1-3 2-3 5-3-3 3-2 3 2 1l1 2 5-4c4 0 5-1 5-5h3l1 1 1-3 3-1c-2-1-1-2 1-2l3 1 9-3-2 3 5 1 1-2 2-1 1 2 2-2 13 4 3 3c1 3 2 6 5 9l-1 2 5 3c-1 1-2 2-1 3l5 5 1-1c4 3 6 8 6 14l4 4c-1 1-2 2-1 3l7 7 7 1c-1 3 0 3 2 1l6 5 2-2 1 3 3-1 9 11v3c-1-2-2-1-2 0l4 1c1 3 3 5 6 6l-4 1 7 10-2 3h4l-4 3 3 2-5 3 3 2-3 9c1 2 1 5-2 6 0 2 1 4 3 5-3 1-3 3-1 5l7 3c-2 2-2 3 0 5 1-2 3-2 4 0l2-2-5-2h7l-1 2a281 281 0 0 0 14 4c0 2 1 2 2 0l1 4c0-2 1-3 2-1l5 8c4-7 11-13 19-16l1 4 2-3h3l3-6 4-3c2 0 3 1 5 3l1-3 1 2 3-2h5l1 1 2-2c0 2 1 2 2 0l3 2c1-1 3 0 6 2l7-6 3 1c-2-2-1-3 1-1 2-2 5-3 7-2-1 2 0 4 1 6l2-3 6 3 1-1c2 3 4 3 8 1-2-1-3-2-2-3l1-2 2 4c1-2 2-2 3 0l4 4c1-2 3-3 6-2-3 1-3 2 0 3 1 1 1 2-1 2 1 2 2 2 3 0l4 3c-2 2-1 2 1 1 1 0 2 1 2 3l2-1c0 2 1 3 3 4l1-1 10 7-1 4c2 4 4 5 7 1l1 1 7-4c16-5 33-6 51-1 11 4 19 11 25 22-3 1-3 2 0 3l-2 2v2h4c-5 2-5 5-1 8l-4 3v4c-2 0-3 0-4 2l-1-1c-2 1-2 2 0 4-2 1-3 2-3 5l4 7-1 7c6 2 9 6 11 12 19-6 37-4 55 7 10-3 20-4 30-2 5-2 11-3 18-3 0-2 2-3 4-4v-4l7-8 1 1c3-5 7-7 13-8l1-3 5 2 5-4c-4-1-4-2 1-2-1 1 0 3 2 4l5-2 1-2 2 2h5l1 2c1-1 3-2 5-1 0 2 1 2 2 0l3 1v-4l3 1c-2 1-2 2-1 4 2-6 4-6 6 0v-3c3 0 7 2 10 4-2 1-1 3 2 4 1-4 3-4 5-1-3 0-3 1-1 3l2-1 2 2c3-1 3-1 0 1 0 1 1 2 2 1 0 2 1 2 3 1l1 3 5 4-1 3c0 2 1 2 3 2v4c1 4 2 7 5 11-2 1-3 2-3 4v7l1 2 2-5v10l-1-4-2 1v8h3l-4 10 3 1c-3 2-4 4-4 6h9c3 0 5 2 7 4-3 1-3 2 0 3l-1 6 2 2c0 2 1 2 3 2 1 2 3 4 7 5 2 6 6 11 11 17l1-1 4 6 7 4c3-2 6-3 10-3-1-3 0-4 2-2l3-3 1 2 2-4c2 2 5 2 7-1h3l8 5c2-1 2-3 0-4 0-1 0-2 2-2-1 1 0 2 2 4v-5c3-1 5 0 7 3 1-2 1-2 2 0l1-2 11 3c2-2 2-3 0-3h3v3h15l1 2c2-2 2-2 2 0l1 2c0-2 1-3 2-3l3 3-1 3 6 2 8-1c8-11 17-20 28-28l-1-1c1 1 3 1 5-1l30-16c2-5 6-9 12-13l15-10c3-4 8-7 14-9 14-12 30-20 48-25l25-5 14 7c9 1 18 2 27 5l22 11 4 5v2l6 8 2 5 1-1 14 9-2 1c1 7 4 13 10 18-1 2-1 2 1 1l4 7c5-5 12-9 19-12 2-5 6-8 12-8l1 1 5-4 8-1 1 2c1-2 2-3 4-3l1 3c1-2 3-2 4 1 10-1 20 1 29 7l1 3c1-1 3 0 5 1l10 11c1 2 3 2 5 1l4 4h4l1 3 12-13h3l6-6 4 1-1-1 2-3 3 1-1-3 2-2h3c-2-1-2-2 0-2l9-6c1 2 2 2 3 0 10-4 21-6 32-6 4-4 9-7 15-10l1 2c1-3 2-3 5-3-3 3-2 3 2 1l1 2 5-4c11 2 19-1 24-11h3l-3 2 1 1c1-2 2-2 4 0l1-2 2-1 1 2c1-3 2-3 3 1l4-1 8 2c3 2 5 5 5 9l21 6c3-5 7-10 12-14l24-15 29-11c9-2 18-2 27 0 2-1 3 0 4 2 10-3 19-4 30-3l37 13c22-6 43-2 62 11 18-2 37 0 56 5 15-3 30-3 45 0l12 5 11-3 3 1c4-2 8-3 13-3 8-11 20-19 34-22 8-23 24-32 48-29 3-6 7-12 12-17l1 1v-4c10-10 18-22 24-35-1-2-1-3 1-5-1-3 0-5 2-8-2-1-1-2 1-2l-1-1 3-1c-1-4 1-6 5-5 0-3 1-4 2-5v6c1-3 4-3 6-2 0-2 1-3 2-1l5-4 1 4 1-3h4c0-3 1-3 3-1l4-4 1 3c5-2 10-3 15-2 3 0 5 1 7 4l2-2c3 2 6 3 9 1l1 2 2-4-1-1c2-2 3-4 3-7l3-3c1 2 1 2 2 0l1 1 3-6 5 1c0-5 1-9 3-13 1-5 3-9 7-13l-3-1c-2 2-5 2-7 2l-2 4-1-2c-2 2-4 2-4-1l6-5h-3v-3c1-2 2-2 3 0l1-2 1 1 1-6c-1 0-2 1-2 3l-1-1-5 2c0-2 1-4 3-5l-1-1 5-2c-2-1-2-1 0-2l2 1c1-2 3-3 6-4 0-3 1-3 2 0l3-6 1 5c1-1 2-2 1-3 1 0 2-1 1-2 3-2 5-2 8 2l11-2c0 3 1 3 3 0l-1-2h5l4 1c-2 1-1 2 1 3v-3l3 1-1 1 3 2 2-2c5 0 8 2 11 6l1-2 7 2 13 13c-3 2-3 3 0 2 3 2 4 4 2 6h2v4c0 2 1 3 3 2 1 1 0 3-1 4l2 2c-1 1-2 2-1 4-2-2-3-3-5-1a328 328 0 0 1 4 9l3-4 10-7c-2-2-3-3-1-5l-4-11 1-2-3-6v-8c1-1 2-2 1-4 0-1 1-2 3-2-1-2-1-4 1-6 6-5 10-11 14-17l1 1c1-2 0-3-1-4l8-8c5-5 11-8 18-9 0-10 1-20 4-30 3-5 6-9 11-12l16-5c6-1 12 0 18 1l5-9-1-2c3 1 3 0 1-2l15-15c0-2 1-2 2 0 3-4 7-5 11-5 1 1 2 2 1 4 2-2 5-3 8-2l10 13c1-3 2-5 1-7l2-2h3l1-2c1 1 2 0 2-2 5 1 9 0 13-3l1 1 3-3 7-2c-2 0-2-1-2-2l1 1c3-2 6-4 9-4l1 1c0-2 1-4 3-5l-1-1c0-2 1-2 2 0 0-2 1-3 2-3h11l2-2c-2-1-4-2-5-1 1-2 4-3 6-3 2 1 2 2 0 3 0 2 2 2 4 2l-3-2 3-2h4l-3 5h3v-3l3-2 2 8 2-4h2c0 1 1 2 3 1l3 3 2 2c-3 4-2 5 2 1 2 2 2 4 1 6 2 0 3 0 4-2l5 4 1-1 5 3 1-1 6 6c2 1 2 2 0 3v4l2-1v4l9 9 6 10-2 2 2 3c-3 2-4 5-4 8l2 2c0 2 1 2 2 1 3 0 5 1 8 3l1-1 7 3c1-3 3-3 5 0 1-2 3-2 5-1 1-3 1-3 3 0l1-1 6-2h4l2 2 1-2 5 3 1-1 2 3c3 0 5 2 7 5l-1 1c2 0 3 1 2 3l5 4-1 2 5 3c-3 0-3 1-1 3l1-1c2 3 5 6 9 8-2 0-3 1-3 2 3 5 2 10-3 15 2 1 2 2 0 3 0 3-1 5-3 7v8l4 4c-2 2-4 4-4 7h2l4-5c1 0 2 1 2 3l8-4a6314 6314 0 0 1 16 2c-1 3-1 3 2 0l15 9-2 1c2 1 4 2 5 5 0 3 1 4 4 3l3 1-1 1 3 7 3 1-2-6c1-2 0-3-1-4v-17c2-1 2-2 0-4 3-2 3-5 2-8 3-8 8-13 16-16l5-1h7c1 2 2 2 4 1l4 3 1-1 8 7c3-1 3-2 1-4l2-1c-2-2-3-3-3-5 0-1 1-2 2-1-2-7-2-14 0-21l3-6c0-2 1-2 2 0v-3l3-4 1 1 7-6 1 1c4-3 8-5 13-6l1 1 5-5c2 1 3 0 4-2l1 1c0-3 1-4 3-2 1-2 3-3 5-3s3 0 3-2c1 1 1 2 3 1 1-3 2-3 4 0 1-2 3-2 5 0 2-3 3-3 5 0l2-1 10 3c11-3 20 1 28 11l-1 1 7 3v5c2 0 3 1 5 3l1-1 6 8-1 3c2 2 2 4 0 6l2 2c-2 2-2 4-2 6 3 0 3 1 1 3l4 7c6 2 9 7 9 14l-4 9 1 1c-5 4-8 8-10 13l13 7v4l2-1c2 1 4 2 6 5l5 12c4-4 9-5 15-4l9 6 1-1c2 0 3-1 2-2 2-2 2-3-1-4l11-8c-1-2-2-2-3 0v-3l1 1c0-3 1-4 3-2 3-1 3-2 3-3l5-2c2 1 3 1 3-1l5 3 1-2 6 3-2 3 2-1 4 7c1-1 2-1 3 1l1 6c-2 0-3 1-3 2l2 3-6 8v1c1-2 3-4 6-4l-5 8c-1 1 0 2 1 1 0 3 2 3 4 1h7l1 4c1-2 2-2 4-2l-1 1c5 1 10 3 13 8l5 8-1 1 4 3c-2 0-3 2-3 4 0 1 1 2 3 2v16c-2 2-3 5-3 8l-7 8c-1 1-1 3 1 5 2-4 5-4 9-1 2-2 3-1 4 1 3-1 7 0 10 2-3 1-3 2 0 4l6 1c-1 1 0 2 2 4h-4l-2 2h2c1 4 3 6 7 8l-2 3 7 8-1 4c0 3 1 5 3 8-2 6 0 12 5 18l-1 1c3 2 6 4 8 8v5l2-1c2 3 2 4-1 4l2 2c1-2 2-2 4 0 1-2 4-3 7-1l-1 10h-4l-4 2 3 10-2 13c1 2 0 3-1 5v1c2-3 3-3 5 0l2-3v3l6 6 1-1c-3-2-3-4 0-6l-5-4v-1c3 0 5 2 7 5l1-1-5-10c1-1 2-1 3 1 1-2 2-3 1-4l5-5 1-6 6-1c-2-1-2-2 0-3l5-1v-2c-2 1-2 1-1-1 2-1 5 0 8 2l2-2h6c-2-1-2-2 0-2l5 2v-2l3 1c1-4 2-4 4 0l4-1c2 2 3 2 2-1 1-2 2-2 3 1l2-2 3 2c1-2 3-2 4 0l1-2c0 3 2 4 4 2h6c1 2 2 4 5 6l1-1-4-9 9-9 4 3a1172 1172 0 0 0 21-12h4c3-2 3-4 1-6 1-2 3-2 4 1-2 3-1 3 2 1l4 1c1-2 2-2 3-2h12l7 1 4 4h5l9 9-2 4 2 2c1 2 3 2 5 0l-1-1 2-1c-2-3-2-6-2-9 1-2 2-2 3 0 3-3 5-7 5-10 1-3 3-3 5 0l1-4 11-7c-2 0-3-1-1-2 3 0 6-2 9-4l5 1 1-3 3 2c0-3 1-4 3-6-3-1-5-3-6-5 1-3 0-5-3-4-1-3 1-5 4-6l-5 1-2-4c4-1 7-4 8-8 2 1 3 0 2-2l5-6c-1-4 0-5 2 0 2-1 5-2 7-5l-1-1 14-4v-3c3-2 5-2 7 2l5-8-3-1v-6c-2-1-3-2-4-1-1-4 0-4 2-1l1-1-4-8-1 1c-1-10 2-18 8-26 0-1 1-2 3-1-1-2 0-4 1-5 12-10 27-18 43-22l22-2c3-2 3-4 1-6l-1 1v-4l12-17c1-2 0-3-1-1-2-2-2-3 1-4l1 2 4-5c-4-2-4-3 0-2 1 1 2 1 3-1-2-2-1-3 0-4 1 1 2 0 3-1-2-1-2-2 0-2 2-2 3-3 3-5v-2c2 0 3 1 4 3 0-3-1-4-3-5l7-2c-1-2 0-3 3-4 2 2 2 3-2 5-1 1-2 3-1 5 2-4 5-7 9-8l-2-2 3-2 7-1 1 2c1-4 3-4 6-1h5l8-7 1 1 1-3h4l5-4h1c0 3 1 3 2 1l1 2c1-3 3-5 5-6l1 4c1-6 3-6 4 0h3c0 2 1 2 2 0 3 3 4 3 3-1 9-1 18 1 27 6 1-4 2-8 5-11-2-2-1-3 2-2v-4l11-8c-2-2-2-3 0-3 1-2 2-3 4-3l2 1-4 4 7-2-2-4 4-7-2-4v-5l-6-3 1-2-8-9 4-2c-2-1-4 0-5 1-1-3-3-4-5-6l2-2-1-7c0-2 1-3 3-4-2-1-3-3-2-5l-3 3c0-5 2-9 6-12-2-1-3-1-4 1 0-3 0-6 2-8-1-2-1-3 2-3-2-3 0-6 4-8-2-3-1-3 1-1l4-8 2 1 2-4 9-6c-1-1-2 0-3 1 0-3 0-6 2-8-2-3-2-5 0-7l-3-8c1-6 3-12 6-17v-19l2-4 10-10c1-1 2-1 3 1l4-4 1 3c0-2 2-3 3-1 1-2 0-3-1-4 3-2 6-2 10-1 0-2 2-4 4-4v3l1-1c2 0 3 1 5 3l2-3 4 4 2-2h3l2 3c1-2 2-3 4-3l4-1c-2-2-1-3 2-1l2-2 6 2v-3h3c-1-2 0-3 1-4 2-2 5-3 8-3-2-1-1-2 0-2 1 3 2 3 4 1l5 1c2-3 4-2 4 2l1-2c3 2 5 2 8 0h11l2 6 2-4 4 4 2-1c-2 0-3-1-3-2 2-1 5-2 8-1s6 2 8 5c1-2 2-2 3 0v2h3l3-3 3 4h6c2-3 4-3 6 1l1-1c4 2 9 4 14 4l-1-1 4-4v-3l5-3 5-15c7-15 18-25 33-32-1-1 0-2 1-3l1 1 12-5 5 2 5-3c4 0 8 2 12 5 7-2 14-1 22 2l2-1v-6h3v-13c2-1 2-3 0-4v-6l-2-2 2-6 2-13c0 2 2 4 4 5 2-2 2-3 0-2l-1-5 6-6c-2-1-2-2-2-3 1-4 0-8-2-12 0-2 1-2 2 0 0-4 1-7 3-9l-1-2 4-6Zm-430 387 2 1-5 1c0-1 1-2 3-2Zm-798 16v2-2Zm-2081 77 1 1h-3l2-1Zm3 0 2 1c-2 1-2 0-2-1Zm237 107c1 0 2 0 1 2l-1-2Zm2198 18c2 1 2 2-1 1l1-1Zm49 30c1-2 2-2 4-1-2 1-3 2-4 1Zm-949 34 4 1c-2 1-3 3-2 5l-5-5c0-1 1-2 3-1Z"/><path fill="#feb11a" d="M5108 587c1 0 1 0 0 0Z" opacity=".3"/><path fill="#feb41a" d="M5108 588c-1 0-1 0 0 0Z" opacity=".7"/><path fill="#feb11a" d="M5107 592c1 0 1 0 0 0Z" opacity=".3"/><path fill="#febb1a" d="M5107 593c-1 0-1 0 0 0Z"/><path fill="#feb11a" d="M5103 622c1 0 1 0 0 0Z" opacity=".3"/><path fill="#feb81a" d="M4919 682c1 0 1 0 0 0Z"/><path fill="#ffb21b" d="m4919 683-1 2c-1-1-1-2 1-2Z" opacity=".5"/><path fill="#feb41a" d="M4926 685c-1-2-1-2 0 0ZM4929 684c1 0 1 0 0 0Z" opacity=".7"/><path fill="#feb11a" d="M4906 685c1 0 1 0 0 0ZM4915 685c1 0 1 0 0 0ZM4923 685c1 0 1 0 0 0ZM4926 685l1 1-1-1Z" opacity=".3"/><path fill="#febb1a" d="M4929 685c-1 0-1 0 0 0Z"/><path fill="#feb41a" d="M4903 686c1 0 1 0 0 0ZM4919 686c1 0 1 0 0 0Z" opacity=".7"/><path fill="#feb11a" d="M4927 686h1-1Z" opacity=".3"/><path fill="#feb41a" d="M4933 686c1 0 1 0 0 0Z" opacity=".7"/><path fill="#ffb91b" d="M4923 686v2c1-2 2-2 3 0-2 0-3 1-3 3h-5v-2l5-3Z"/><path fill="#febb1a" d="M4927 687c-1 0-1 0 0 0Z"/><path fill="#feb11a" d="M4910 688c1 0 1 0 0 0ZM4915 688c1 0 1 0 0 0Z" opacity=".3"/><path fill="#feb81a" d="M4889 695c1 0 1 0 0 0Z"/><path fill="#feb11a" d="M4884 696c1 0 1 0 0 0ZM4889 696c-1 0-1 0 0 0ZM4962 697c-1-2-1-2 0 0Z" opacity=".3"/><path fill="#feb41a" d="M4881 697c1 0 1 0 0 0ZM4961 697c-1 0-1 0 0 0Z" opacity=".7"/><path fill="#feb81a" d="M4962 697c1 0 1 0 0 0Z"/><path fill="#ffb71b" d="M4852 699c0-2 1-2 2-1l-2 1Z"/><path fill="#feb11a" d="m4869 701-2-1c0-1 1-1 2 1Z" opacity=".3"/><path fill="#ffb41b" d="M4869 703v-2c2-1 2 0 0 2Z" opacity=".5"/><path fill="#feb41a" d="M4875 703c-1-2-1-2 0 0Z" opacity=".7"/><path fill="#feb11a" d="M2 716c1 0 1 0 0 0ZM72 720c1 0 1 0 0 0ZM19 721c1 0 1 0 0 0Z" opacity=".3"/><path fill="#feba1a" d="M21 722c1 0 1 0 0 0Z"/><path fill="#feb11a" d="M37 722c1 0 1 0 0 0ZM24 723c1 0 1 0 0 0Z" opacity=".3"/><path fill="#ffb61b" d="M41 722v2-2Z"/><path fill="#feb11a" d="M36 725c1 0 1 0 0 0Z" opacity=".3"/><path fill="#febb1a" d="M103 758c1 0 1 0 0 0Z"/><path fill="#feb41a" d="M3764 797c1 0 1 0 0 0Z" opacity=".7"/><path fill="#feb11a" d="M3771 797c1 0 1 0 0 0Z" opacity=".3"/><path fill="#feb41a" d="M3775 798c1 0 1 0 0 0Z" opacity=".7"/><path fill="#ffb61b" d="M3772 801c0-2 1-2 2-1l-2 1Z" opacity=".7"/><path fill="#feb11a" d="M3761 802c-1-2-1-2 0 0Z" opacity=".3"/><path fill="#febb1a" d="M3766 801c1 0 1 0 0 0Z"/><path fill="#feba1a" d="M3752 802c1 0 1 0 0 0Z"/><path fill="#ffb51b" d="M3758 803c-3-1-3-1 0-2v2Z"/><path fill="#ffb51b" d="M3761 802h2-2Z" opacity=".7"/><path fill="#ffb61b" d="M3771 804c-3-1-3-2-1-3l1 3Z"/><path fill="#ffb81a" d="m3777 803-2 1c-1-3 0-3 2-1Z"/><path fill="#feb11a" d="M3777 802c1 0 1 0 0 0Z" opacity=".3"/><path fill="#feb41a" d="M3758 803c1 0 1 0 0 0Z" opacity=".7"/><path fill="#ffb71b" d="M3753 804v3-3Z"/><path fill="#feb81a" d="M3780 804c1 0 1 0 0 0Z"/><path fill="#ffb81b" d="M3755 804c1 0 2 0 1 2l-1-2Z"/><path fill="#ffbc1b" d="m3761 806-3-1c1-1 2-1 3 1Z"/><path fill="#ffb81b" d="M3784 808v-2 2Z"/><path fill="#febc1a" d="M3782 808c-1-2-1-2 0 0Z"/><path fill="#feb41a" d="M3787 809c-1-2-1-2 0 0Z" opacity=".7"/><path fill="#feb11a" d="M3790 811c1 0 1 0 0 0ZM3793 811c1 0 1 0 0 0Z" opacity=".3"/><path fill="#feb41a" d="M3797 815c1 0 1 0 0 0Z" opacity=".7"/><path fill="#ffbb1b" d="M3799 819c-2-1-2-2-1-2l1 2Z"/><path fill="#feb11a" d="M4786 830c1 0 1 0 0 0Z" opacity=".3"/><path fill="#feb81a" d="M4786 831c-1 0-1 0 0 0Z"/><path fill="#febb1a" d="M146 832c1 0 1 0 0 0Z"/><path fill="#feb11a" d="M147 834v3-3Z" opacity=".3"/><path fill="#febb1a" d="M1066 836c1 0 1 0 0 0Z"/><path fill="#febc1a" d="M1063 837c1 0 1 0 0 0Z"/><path fill="#ffb41b" d="M4785 837c1 0 2 1 1 3-1-1-2-2-1-3Z" opacity=".3"/><path fill="#feb41a" d="M149 841c-1-2-1-2 0 0Z" opacity=".7"/><path fill="#feb11a" d="M1066 840c1 0 1 0 0 0Z" opacity=".3"/><path fill="#feb81a" d="M1068 840c1 0 1 0 0 0ZM4067 867c-1-2-1-2 0 0ZM1003 868c1 0 1 0 0 0Z"/><path fill="#feb41a" d="M1014 869c-1-2-1-2 0 0Z" opacity=".7"/><path fill="#feb11a" d="M1014 869c1 0 1 0 0 0Z" opacity=".3"/><path fill="#feb81a" d="M1023 869c1 0 1 0 0 0Z"/><path fill="#feb11a" d="M1008 870c1 0 1 0 0 0ZM1012 870c1 0 1 0 0 0ZM1023 870c-1 0-1 0 0 0Z" opacity=".3"/><path fill="#febc1a" d="M1289 871c-1-2-1-2 0 0Z"/><path fill="#feba1a" d="m1289 871 1 1-1-1Z"/><path fill="#feb11a" d="M3832 873c1 0 1 0 0 0Z" opacity=".3"/><path fill="#feba1a" d="M3843 877c-1-2-1-2 0 0Z"/><path fill="#febb1a" d="M3864 878c-1-2-1-2 0 0ZM4042 877c1 0 1 0 0 0Z"/><path fill="#ffb81b" d="M993 881v2-2ZM1578 893c0-2 1-2 2-1l-2 1Z"/><path fill="#ffbc1b" d="m1598 893-2-1c0-1 1-1 2 1Z"/><path fill="#ffb41b" d="M216 896h2c-2 1-2 1 0 2-2 0-3-1-2-2Z" opacity=".5"/><path fill="#feb11a" d="M1576 898v-2 2Z" opacity=".3"/><path fill="#feba1a" d="M214 897c1 0 1 0 0 0Z"/><path fill="#feb81a" d="M212 898c1 0 1 0 0 0ZM203 900c-1-2-1-2 0 0Z"/><path fill="#ffb91b" d="M207 899c0-3 0-3 2 0h-2Z"/><path fill="#ffb61b" d="M1320 898v2-2Z"/><path fill="#febc1a" d="M200 900c1 0 1 0 0 0Z"/><path fill="#feb81a" d="M1564 900c1 0 1 0 0 0ZM1566 900c1 0 1 0 0 0Z"/><path fill="#feb11a" d="M198 901c1 0 1 0 0 0ZM1569 901c1 0 1 0 0 0Z" opacity=".3"/><path fill="#feb41a" d="M252 902c1 0 1 0 0 0Z" opacity=".7"/><path fill="#feba1a" d="M258 902c1 0 1 0 0 0Z"/><path fill="#feb11a" d="M1324 903c-1-2-1-2 0 0ZM1568 903c-1-2-1-2 0 0ZM1321 903c1 0 1 0 0 0Z" opacity=".3"/><path fill="#feb81a" d="M1324 903c1 0 1 0 0 0Z"/><path fill="#feba1a" d="M1552 903c1 0 1 0 0 0Z"/><path fill="#feb81a" d="M266 904c1 0 1 0 0 0Z"/><path fill="#feb11a" d="M1512 904c1 0 1 0 0 0Z" opacity=".3"/><path fill="#feb41a" d="M1535 905c-1-2-1-2 0 0ZM1548 904c1 0 1 0 0 0Z" opacity=".7"/><path fill="#feb11a" d="M976 905c1 0 1 0 0 0ZM1518 906c-1-2-1-2 0 0Z" opacity=".3"/><path fill="#ffb81b" d="M4732 906c0-2 1-2 3-1-1 2-2 2-3 1Z"/><path fill="#febb1a" d="M261 906c1 0 1 0 0 0Z"/><path fill="#ffb81b" d="M266 905c-1 2 0 2 2 1l1 2c-3 0-5-1-6-3h3Z"/><path fill="#feb81a" d="M273 907c-1-2-1-2 0 0Z"/><path fill="#feb11a" d="M978 906c1 0 1 0 0 0Z" opacity=".3"/><path fill="#febc1a" d="M981 907c-1-2-1-2 0 0Z"/><path fill="#feb11a" d="M1515 906c1 0 1 0 0 0ZM1518 906c1 0 1 0 0 0ZM1521 906v2-2Z" opacity=".3"/><path fill="#feb81a" d="M1525 907c-1-2-1-2 0 0Z"/><path fill="#feb41a" d="M1550 906c1 0 1 0 0 0Z" opacity=".7"/><path fill="#feb11a" d="M4730 907c-1-2-1-2 0 0ZM4732 906c-1 0-1 0 0 0Z" opacity=".3"/><path fill="#ffb41b" d="M4747 908c-2-2-2-3 0-3v3Z" opacity=".5"/><path fill="#feb11a" d="M4749 906c1 0 1 0 0 0ZM273 907l1 1-1-1Z" opacity=".3"/><path fill="#febb1a" d="M981 907c1 0 1 0 0 0Z"/><path fill="#feb11a" d="M1321 907c1 0 1 0 0 0ZM1525 907l1 1-1-1Z" opacity=".3"/><path fill="#febb1a" d="M274 908c1 0 1 0 0 0Z"/><path fill="#ffb41b" d="M974 910v-2 2Z" opacity=".3"/><path fill="#feb41a" d="M1522 909c1 0 1 0 0 0Z" opacity=".7"/><path fill="#feb11a" d="M974 910c-1 0-1 0 0 0Z" opacity=".3"/><path fill="#feba1a" d="M976 910c1 0 1 0 0 0Z"/><path fill="#ffb51b" d="m1511 909 1 3-4-1c0-2 1-2 2 0l1-2Z" opacity=".7"/><path fill="#feb11a" d="M4721 911c-1-2-1-2 0 0Z" opacity=".3"/><path fill="#ffb51b" d="M277 914c-3 1-4 0-2-3l2 3Z" opacity=".5"/><path fill="#ffb81b" d="M278 912c-2-1-2-2-1-2l1 2Z"/><path fill="#feb41a" d="M976 911c-1 0-1 0 0 0Z" opacity=".7"/><path fill="#febc1a" d="M278 912c1 0 1 0 0 0Z"/><path fill="#feb11a" d="M282 913c-1-2-1-2 0 0Z" opacity=".3"/><path fill="#feb41a" d="M971 912c1 0 1 0 0 0Z" opacity=".7"/><path fill="#feb11a" d="M975 912c-1 0-1 0 0 0Z" opacity=".3"/><path fill="#feba1a" d="M282 913c1 0 1 0 0 0Z"/><path fill="#febc1a" d="M1515 913c-1 0-1 0 0 0Z"/><path fill="#febd1a" d="M272 914c1 0 1 0 0 0Z"/><path fill="#feb11a" d="M282 914c-1 0-1 0 0 0Z" opacity=".3"/><path fill="#ffb61b" d="m974 913-1 2c-1-1-1-2 1-2Z"/><path fill="#ffb41b" d="M285 916v2-2Z" opacity=".3"/><path fill="#feb11a" d="M974 919c-1-2-1-2 0 0Z" opacity=".3"/><path fill="#feba1a" d="M288 919c1 0 1 0 0 0Z"/><path fill="#ffb31b" d="m4692 920-2-1c0-1 1-1 2 1Z" opacity=".3"/><path fill="#febb1a" d="M288 920c-1 0-1 0 0 0Z"/><path fill="#feb41a" d="M4687 921c1 0 1 0 0 0Z" opacity=".7"/><path fill="#feba1a" d="M291 922c1 0 1 0 0 0Z"/><path fill="#febd1a" d="M1379 925c1 0 1 0 0 0Z"/><path fill="#feb11a" d="M4678 925c1 0 1 0 0 0ZM970 927c-1-2-1-2 0 0Z" opacity=".3"/><path fill="#feba1a" d="M1337 926c1 0 1 0 0 0Z"/><path fill="#ffb81b" d="M4678 926h-2 2ZM296 932v-2 2Z"/><path fill="#feb11a" d="M299 932c1 0 1 0 0 0ZM4674 932c-1 0-1 0 0 0Z" opacity=".3"/><path fill="#febb1a" d="M4669 933c1 0 1 0 0 0Z"/><path fill="#ffb91b" d="M1486 933v2-2Z"/><path fill="#feba1a" d="M4668 935c1 0 1 0 0 0ZM4671 937c-1-2-1-2 0 0Z"/><path fill="#feb41a" d="M304 937c1 0 1 0 0 0Z" opacity=".7"/><path fill="#feb81a" d="M4667 937c1 0 1 0 0 0Z"/><path fill="#ffb81b" d="m4664 940 2 1c-2 1-2 0-2-1Z"/><path fill="#feba1a" d="M964 944c-1-2-1-2 0 0Z"/><path fill="#ffbb1b" d="M3494 943v2-2Z"/><path fill="#ffb81b" d="M3489 943c2 0 1 1-1 3l1-3ZM4665 945v-2 2Z"/><path fill="#feb11a" d="M3496 945c1 0 1 0 0 0Z" opacity=".3"/><path fill="#febc1a" d="M4661 947c1 0 1 0 0 0Z"/><path fill="#ffb61b" d="M3469 947v2-2Z"/><path fill="#feba1a" d="M3908 950c-1-2-1-2 0 0Z"/><path fill="#febb1a" d="M4660 949c1 0 1 0 0 0Z"/><path fill="#feb11a" d="M3527 951c-1-2-1-2 0 0Z" opacity=".3"/><path fill="#feb41a" d="M3456 955c1 0 1 0 0 0Z" opacity=".7"/><path fill="#feb81a" d="M3456 956c-1 0-1 0 0 0Z"/><path fill="#feb11a" d="M3453 958c1 0 1 0 0 0ZM959 959c1 0 1 0 0 0ZM4654 959c1 0 1 0 0 0ZM4654 960c-1 0-1 0 0 0ZM959 962c-1-2-1-2 0 0Z" opacity=".3"/><path fill="#feb41a" d="M956 962c1 0 1 0 0 0Z" opacity=".7"/><path fill="#feba1a" d="M959 962c1 0 1 0 0 0Z"/><path fill="#feb41a" d="M959 963c-1 0-1 0 0 0Z" opacity=".7"/><path fill="#feb11a" d="M956 965c-1-2-1-2 0 0Z" opacity=".3"/><path fill="#feba1a" d="M958 964c-1 0-1 0 0 0Z"/><path fill="#ffbb1b" d="m3954 966 1-2c1 1 0 1-1 2Z"/><path fill="#feb81a" d="M956 965h1-1Z"/><path fill="#febc1a" d="M3460 966c-1-2-1-2 0 0Z"/><path fill="#ffb81b" d="M3454 965c-1 2-2 3-3 1 0-2 1-3 3-1Z"/><path fill="#feb41a" d="M4216 966c1 0 1 0 0 0Z" opacity=".7"/><path fill="#feba1a" d="M956 968c-1-2-1-2 0 0Z"/><path fill="#febc1a" d="M4220 968c-1-2-1-2 0 0Z"/><path fill="#ffbd1b" d="M3958 969v-2 2Z"/><path fill="#ffb91a" d="M4206 970c-2-1-2-2-1-2l1 2Z"/><path fill="#feb81a" d="M3451 969c1 0 1 0 0 0Z"/><path fill="#febc1a" d="M3456 971c-1 0-1 0 0 0Z"/><path fill="#feb11a" d="M3452 973c-1-2-1-2 0 0Z" opacity=".3"/><path fill="#febc1a" d="M3455 972c-1 0-1 0 0 0Z"/><path fill="#feb11a" d="M3452 973c1 0 1 0 0 0Z" opacity=".3"/><path fill="#feb81a" d="M4229 973c1 0 1 0 0 0ZM950 975c1 0 1 0 0 0Z"/><path fill="#feba1a" d="M3451 975c1 0 1 0 0 0Z"/><path fill="#feb11a" d="M3466 975c1 0 1 0 0 0ZM3464 976c1 0 1 0 0 0Z" opacity=".3"/><path fill="#ffba1b" d="M4199 977c-1 2-2 2-3 0 0-2 1-2 3 0Z"/><path fill="#febc1a" d="M1687 978c1 0 1 0 0 0Z"/><path fill="#feb11a" d="M3553 978c1 0 1 0 0 0ZM1688 980c1 0 1 0 0 0Z" opacity=".3"/><path fill="#ffba1b" d="M1691 984v2-2Z"/><path fill="#ffbb1a" d="M4234 987h2-2Z"/><path fill="#ffb81b" d="M4192 989c-2-1-2-2-1-2l1 2Z"/><path fill="#feb11a" d="M3550 991c0-2 1-2 2-1l-2 1ZM4190 991c-1-2-1-2 0 0Z" opacity=".3"/><path fill="#ffb81b" d="M3554 990v2-2Z"/><path fill="#febb1a" d="M3551 992c1 0 1 0 0 0Z"/><path fill="#feb41a" d="M4233 992c1 0 1 0 0 0Z" opacity=".7"/><path fill="#ffb51b" d="M3554 994c0-2 1-2 2 0h-2Z"/><path fill="#febb1a" d="M3554 994c-1 0-1 0 0 0Z"/><path fill="#feb41a" d="M4233 996c1 0 1 0 0 0Z" opacity=".7"/><path fill="#feb11a" d="M1689 997c1 0 1 0 0 0Z" opacity=".3"/><path fill="#febb1a" d="M948 1003c-1-2-1-2 0 0Z"/><path fill="#feb11a" d="M3452 1002c1 0 1 0 0 0ZM4232 1004c1 0 1 0 0 0Z" opacity=".3"/><path fill="#ffb91b" d="M946 1007c0-3 0-3 2-1l-2 1Z"/><path fill="#feb11a" d="M946 1007c-1 0-1 0 0 0Z" opacity=".3"/><path fill="#feb81a" d="M3444 1008c1 0 1 0 0 0Z"/><path fill="#feb11a" d="M4245 1008c1 0 1 0 0 0Z" opacity=".3"/><path fill="#febb1a" d="M947 1009c1 0 1 0 0 0Z"/><path fill="#feb11a" d="M3394 1010c1 0 1 0 0 0Z" opacity=".3"/><path fill="#ffb21b" d="M3401 1012c-2-1-3-1-2-2l2 2Z" opacity=".5"/><path fill="#feba1a" d="M3443 1010c1 0 1 0 0 0Z"/><path fill="#ffba1b" d="M949 1013c-2 0-3 0-4 2 0-5 1-5 4-2Z"/><path fill="#feb11a" d="M3407 1011c1 0 1 0 0 0Z" opacity=".3"/><path fill="#ffb61b" d="M3401 1012c1 0 2 1 2 3-1-2-2-2-3 0l1-3Z"/><path fill="#feb11a" d="M3407 1012v1h-2c0-1 1-2 2-1Z" opacity=".3"/><path fill="#febc1a" d="m949 1013 1 1-1-1Z"/><path fill="#ffb41b" d="M3390 1014c-2-1-2-2-1-2l1 2Z" opacity=".3"/><path fill="#ffb91b" d="m3390 1014 2-2c3 1 3 2 0 3l-2-1Z"/><path fill="#feb11a" d="M3411 1013c1 0 1 0 0 0Z" opacity=".3"/><path fill="#ffb91b" d="M950 1015c0 3-2 4-4 1 1-1 2-2 4-1Z"/><path fill="#feb41a" d="M1802 1015c1 0 1 0 0 0Z" opacity=".7"/><path fill="#feb11a" d="M1814 1016c-1-2-1-2 0 0Z" opacity=".3"/><path fill="#febb1a" d="M3387 1015c1 0 1 0 0 0Z"/><path fill="#feb41a" d="M391 1016c1 0 1 0 0 0ZM1798 1016c1 0 1 0 0 0Z" opacity=".7"/><path fill="#feb81a" d="M1814 1016c1 0 1 0 0 0Z"/><path fill="#ffb51b" d="M1819 1020h-2l-1-2c-1-1 0-2 1-2l2 4Z"/><path fill="#feb41a" d="M1819 1016c1 0 1 0 0 0Z" opacity=".7"/><path fill="#feb11a" d="M1796 1017c1 0 1 0 0 0Z" opacity=".3"/><path fill="#feb81a" d="M1805 1017c1 0 1 0 0 0Z"/><path fill="#ffb91b" d="M3387 1016c-1 2-2 3-4 2l1-2h3Z"/><path fill="#feb11a" d="M1764 1020c-1-2-1-2 0 0Z" opacity=".3"/><path fill="#ffb91b" d="M1813 1016c0 2 1 3 3 2l1 2v4l-5-5-3 1-1-3 5-1Z"/><path fill="#feb81a" d="M1826 1020c-1-2-1-2 0 0Z"/><path fill="#feb41a" d="M939 1021c-1-2-1-2 0 0Z" opacity=".7"/><path fill="#ffb61b" d="m1763 1020-1 2c-3-2-3-3 1-2Z" opacity=".5"/><path fill="#feb11a" d="M1764 1020c1 0 1 0 0 0ZM1774 1020c1 0 1 0 0 0Z" opacity=".3"/><path fill="#feb41a" d="M1826 1020c1 0 1 0 0 0Z" opacity=".7"/><path fill="#feba1a" d="M1771 1021c1 0 1 0 0 0Z"/><path fill="#feb11a" d="M1826 1021c-1 0-1 0 0 0Z" opacity=".3"/><path fill="#feba1a" d="M1828 1021c1 0 1 0 0 0Z"/><path fill="#feb11a" d="M1779 1022c1 0 1 0 0 0Z" opacity=".3"/><path fill="#febc1a" d="M1828 1022c-1 0-1 0 0 0Z"/><path fill="#feb81a" d="M1830 1022c1 0 1 0 0 0Z"/><path fill="#feb11a" d="M1836 1025c1 0 1 0 0 0ZM3372 1025c1 0 1 0 0 0Z" opacity=".3"/><path fill="#feb41a" d="M1748 1026c1 0 1 0 0 0ZM1750 1026c1 0 1 0 0 0Z" opacity=".7"/><path fill="#feba1a" d="M1836 1026c-1 0-1 0 0 0Z"/><path fill="#feb41a" d="M1746 1031c-1-2-1-2 0 0Z" opacity=".7"/><path fill="#febb1a" d="M1841 1031c-1-2-1-2 0 0Z"/><path fill="#feb41a" d="M2534 1030c1 0 1 0 0 0Z" opacity=".7"/><path fill="#feb81a" d="M1841 1031c1 0 1 0 0 0Z"/><path fill="#feb11a" d="M1843 1031c1 0 1 0 0 0Z" opacity=".3"/><path fill="#feb81a" d="M1712 1033c1 0 1 0 0 0Z"/><path fill="#feb41a" d="M1714 1034c1 0 1 0 0 0Z" opacity=".7"/><path fill="#feb11a" d="M1846 1034c1 0 1 0 0 0Z" opacity=".3"/><path fill="#feb01a" d="M2821 1050c1 0 1 0 0 0ZM2830 1050c1 0 1 0 0 0Z" opacity=".2"/><path fill="#feb81a" d="M4266 1055c1 0 1 0 0 0Z"/><path fill="#ffb91b" d="M539 1061v3c-2-1-2-2 0-3Z"/><path fill="#feb11a" d="M542 1062c1 0 1 0 0 0Z" opacity=".3"/><path fill="#ffb91b" d="M546 1064c0-2 1-2 2-1l-2 1ZM551 1064c0-1 1-2 3-1l-1 3-2-2Z"/><path fill="#ffb51b" d="M556 1067c-2-2-2-3 0-4 2 1 2 2 0 4Z"/><path fill="#feb11a" d="M4261 1064c1 0 1 0 0 0ZM559 1065c1 0 1 0 0 0Z" opacity=".3"/><path fill="#feb01a" d="M2753 1065c1 0 1 0 0 0Z" opacity=".2"/><path fill="#ffb91b" d="M4259 1066c0-1 1-2 2-1l-2 1Z"/><path fill="#feb11a" d="M516 1066c1 0 1 0 0 0Z" opacity=".3"/><path fill="#feb01a" d="M2753 1066c-1 0-1 0 0 0Z" opacity=".2"/><path fill="#ffb91b" d="m4259 1066-1 3c-1-2-1-3 1-3Z"/><path fill="#ffb41b" d="M509 1067v2-2Z" opacity=".3"/><path fill="#ffb81b" d="m567 1068 4 2-2 2-2-4Z"/><path fill="#feb11a" d="M504 1070c1 0 1 0 0 0ZM576 1071c-1-2-1-2 0 0Z" opacity=".3"/><path fill="#feb41a" d="M504 1071c-1 0-1 0 0 0Z" opacity=".7"/><path fill="#feb11a" d="M576 1071c1 0 1 0 0 0Z" opacity=".3"/><path fill="#feb81a" d="M4539 1071c1 0 1 0 0 0ZM500 1073c1 0 1 0 0 0Z"/><path fill="#ffb31b" d="M391 1073v2-2Z" opacity=".3"/><path fill="#feb81a" d="M500 1074c-1 0-1 0 0 0Z"/><path fill="#feb41a" d="M502 1076c-1-2-1-2 0 0Z" opacity=".7"/><path fill="#ffb81b" d="m4541 1079-3 1c0-2-1-3-2-3 2-1 3 0 5 2Z"/><path fill="#feb11a" d="M466 1083c1 0 1 0 0 0ZM459 1085c0-2 1-2 2-1l-2 1Z" opacity=".3"/><path fill="#feb41a" d="M456 1085c1 0 1 0 0 0Z" opacity=".7"/><path fill="#ffb41b" d="M476 1088c0-2 1-2 2-1l-2 1Z" opacity=".3"/><path fill="#ffb61b" d="m3038 1087 1 1h-3l2-1Z"/><path fill="#ffb41b" d="M891 1088v2-2Z"/><path fill="#feb11a" d="M1948 1089c1 0 1 0 0 0Z" opacity=".3"/><path fill="#ffb71b" d="M477 1089v2-2Z"/><path fill="#feb11a" d="M493 1090c-1 0-1 0 0 0Z" opacity=".3"/><path fill="#feb41a" d="M1947 1090h1-1Z" opacity=".7"/><path fill="#feb81a" d="M492 1091c-1 0-1 0 0 0Z"/><path fill="#ffb81b" d="m607 1090 2 1c-2 1-2 0-2-1Z"/><path fill="#feb11a" d="M2822 1091c1 0 1 0 0 0Z" opacity=".3"/><path fill="#febb1a" d="M475 1093c-1-2-1-2 0 0Z"/><path fill="#feb11a" d="M610 1092c1 0 1 0 0 0Z" opacity=".3"/><path fill="#feb81a" d="M492 1095c-1-2-1-2 0 0Z"/><path fill="#feba1a" d="M1942 1094c1 0 1 0 0 0Z"/><path fill="#ffb81b" d="M2108 1100c-1-2 0-3 2-3l-2 3Z"/><path fill="#feb11a" d="M2828 1097c1 0 1 0 0 0Z" opacity=".3"/><path fill="#ffb41b" d="M2098 1098c2 0 2 0 0 2v-2Z" opacity=".5"/><path fill="#ffb81b" d="M2103 1100c0-3 1-4 4-4l-4 4Z"/><path fill="#feb11a" d="M2115 1098c1 0 1 0 0 0Z" opacity=".3"/><path fill="#feb41a" d="M4530 1098c1 0 1 0 0 0Z" opacity=".7"/><path fill="#feb11a" d="M2081 1101c-1-2-1-2 0 0Z" opacity=".3"/><path fill="#feba1a" d="M2114 1100c1 0 1 0 0 0Z"/><path fill="#feb11a" d="M479 1101c1 0 1 0 0 0ZM2081 1101l1 1-1-1Z" opacity=".3"/><path fill="#feb81a" d="M2137 1104c1 0 1 0 0 0Z"/><path fill="#feb11a" d="M2474 1106c1 0 1 0 0 0Z" opacity=".3"/><path fill="#ffb61b" d="M4297 1108v-2 2Z"/><path fill="#feb11a" d="M2071 1107c1 0 1 0 0 0Z" opacity=".3"/><path fill="#feba1a" d="M2144 1107c1 0 1 0 0 0Z"/><path fill="#feb11a" d="M4297 1108c-1 0-1 0 0 0ZM2066 1109c1 0 1 0 0 0Z" opacity=".3"/><path fill="#ffb21b" d="m2066 1110-1 2c-1-1-1-2 1-2Z" opacity=".5"/><path fill="#feb11a" d="M627 1115c1 0 1 0 0 0Z" opacity=".3"/><path fill="#feba1a" d="M627 1116c-1 0-1 0 0 0Z"/><path fill="#feb41a" d="M2061 1116c1 0 1 0 0 0Z" opacity=".7"/><path fill="#feb11a" d="M4297 1116c1 0 1 0 0 0Z" opacity=".3"/><path fill="#feb81a" d="M630 1117c1 0 1 0 0 0Z"/><path fill="#febb1a" d="M2059 1117c1 0 1 0 0 0Z"/><path fill="#feb11a" d="M2059 1118c-1 0-1 0 0 0ZM4298 1125v2-2Z" opacity=".3"/><path fill="#febb1a" d="M4458 1127c1 0 1 0 0 0Z"/><path fill="#feb11a" d="M4466 1128c1 0 1 0 0 0Z" opacity=".3"/><path fill="#feb41a" d="M4470 1128c1 0 1 0 0 0Z" opacity=".7"/><path fill="#feb81a" d="M4457 1129c1 0 1 0 0 0Z"/><path fill="#feb41a" d="M4477 1130c-1-2-1-2 0 0Z" opacity=".7"/><path fill="#feb81a" d="M4476 1130c-1 0-1 0 0 0Z"/><path fill="#feb11a" d="M4477 1130c1 0 1 0 0 0ZM4482 1131c1 0 1 0 0 0ZM4485 1132c1 0 1 0 0 0Z" opacity=".3"/><path fill="#febb1a" d="M4504 1132c1 0 1 0 0 0Z"/><path fill="#feb41a" d="M4485 1133c-1 0-1 0 0 0Z" opacity=".7"/><path fill="#feb11a" d="M4432 1135c-1-2-1-2 0 0Z" opacity=".3"/><path fill="#ffb81b" d="m4436 1136-4-1c1-2 3-2 4 1Z"/><path fill="#feba1a" d="M4486 1134c1 0 1 0 0 0Z"/><path fill="#feb11a" d="M647 1135c1 0 1 0 0 0ZM4303 1136c1 0 1 0 0 0Z" opacity=".3"/><path fill="#ffb91b" d="M4431 1135c-2 0-2 1 0 2h-3c0-2 1-3 3-2Z"/><path fill="#feb11a" d="M2165 1141c1 0 1 0 0 0Z" opacity=".3"/><path fill="#ffb81b" d="m4420 1141 1 3-3-1 2-2Z"/><path fill="#ffb31a" d="m2840 1145-2-1c0-1 1-1 2 1Z" opacity=".7"/><path fill="#feb11a" d="M4417 1145c-1-2-1-2 0 0Z" opacity=".3"/><path fill="#febd1a" d="M4417 1145c1 0 1 0 0 0Z"/><path fill="#ffb81b" d="M2164 1147c0-2 1-2 2-1l-2 1Z"/><path fill="#ffb91b" d="M4495 1150c1-6 1-6 1-1l-1 1Z"/><path fill="#feb01a" d="M2414 1150c-1-2-1-2 0 0Z" opacity=".2"/><path fill="#feb11a" d="M4495 1150c-1 0-1 0 0 0Z" opacity=".3"/><path fill="#ffb21b" d="M4379 1153v2-2Z" opacity=".5"/><path fill="#feb11a" d="M2810 1155c-1-2-1-2 0 0Z" opacity=".3"/><path fill="#feb01a" d="M2400 1159c-1-2-1-2 0 0Z" opacity=".2"/><path fill="#feb41a" d="M2792 1158c1 0 1 0 0 0Z" opacity=".7"/><path fill="#feb81a" d="M4353 1159c1 0 1 0 0 0Z"/><path fill="#feb41a" d="M653 1160v2-2Z" opacity=".7"/><path fill="#ffb41b" d="M656 1162c-2-1-2-2-1-3l1 3Z" opacity=".3"/><path fill="#feb11a" d="M651 1161c1 0 1 0 0 0Z" opacity=".3"/><path fill="#feb81a" d="M2166 1162c-1-2-1-2 0 0ZM656 1162c1 0 1 0 0 0Z"/><path fill="#ffb21b" d="M2166 1162v2-2Z" opacity=".5"/><path fill="#feb41a" d="M654 1163c1 0 1 0 0 0Z" opacity=".7"/><path fill="#feb11a" d="M702 1171c-1-2-1-2 0 0Z" opacity=".3"/><path fill="#feba1a" d="M719 1171c-1-2-1-2 0 0Z"/><path fill="#feb11a" d="M2165 1170c1 0 1 0 0 0Z" opacity=".3"/><path fill="#feb81a" d="M716 1173c1 0 1 0 0 0ZM653 1177c1 0 1 0 0 0Z"/><path fill="#febd1a" d="M2621 1177c1 0 1 0 0 0Z"/><path fill="#feba1a" d="M2579 1178c1 0 1 0 0 0Z"/><path fill="#febc1a" d="M2164 1179c1 0 1 0 0 0ZM2164 1180c-1 0-1 0 0 0Z"/><path fill="#feb11a" d="M2167 1180c1 0 1 0 0 0Z" opacity=".3"/><path fill="#ffb91b" d="M2728 1185v2-2Z"/><path fill="#ffb31b" d="M2177 1196v-2 2Z" opacity=".3"/><path fill="#feb11a" d="M2180 1198v-3 3Z" opacity=".3"/><path fill="#feb01a" d="M2339 1195c1 0 1 0 0 0Z" opacity=".2"/><path fill="#ffb21b" d="M2330 1198c-2-1-2-2-1-2l1 2Z" opacity=".5"/><path fill="#feb01a" d="M2334 1197c1 0 1 0 0 0ZM2343 1198c-1-2-1-2 0 0Z" opacity=".2"/><path fill="#feb41a" d="m2330 1198 1 1-1-1Z" opacity=".7"/><path fill="#feb01a" d="M2338 1199c-1-2-1-2 0 0Z" opacity=".2"/><path fill="#feba1a" d="M2183 1199c1 0 1 0 0 0Z"/><path fill="#feb81a" d="M2274 1200c-1-2-1-2 0 0Z"/><path fill="#feb11a" d="M2326 1199c1 0 1 0 0 0Z" opacity=".3"/><path fill="#feb01a" d="M2330 1199c-1 0-1 0 0 0ZM2331 1199c1 0 1 0 0 0Z" opacity=".2"/><path fill="#ffb61a" d="M2274 1200h2-2Z"/><path fill="#feb01a" d="M2333 1200c1 0 1 0 0 0Z" opacity=".2"/><path fill="#ffb21b" d="M2246 1203v-2 2Z" opacity=".5"/><path fill="#feba1a" d="M2270 1201c1 0 1 0 0 0Z"/><path fill="#feb11a" d="m2245 1203-2-1c0-1 1-1 2 1Z" opacity=".3"/><path fill="#feb41a" d="M2270 1202c-1 0-1 0 0 0Z" opacity=".7"/><path fill="#febb1a" d="M2273 1202c1 0 1 0 0 0Z"/><path fill="#feb01a" d="M2276 1202c1 0 1 0 0 0Z" opacity=".2"/><path fill="#feb11a" d="M2245 1203h1-1Z" opacity=".3"/><path fill="#feb81a" d="M2249 1203c1 0 1 0 0 0Z"/><path fill="#feb01a" d="M2278 1203c1 0 1 0 0 0Z" opacity=".2"/><path fill="#feb11a" d="M2257 1204c1 0 1 0 0 0Z" opacity=".3"/><path fill="#feb41a" d="M2273 1205c-1-2-1-2 0 0Z" opacity=".7"/><path fill="#feb11a" d="M2254 1205c1 0 1 0 0 0ZM2269 1205c1 0 1 0 0 0ZM2273 1205c1 0 1 0 0 0Z" opacity=".3"/><path fill="#feb01a" d="M2279 1205c1 0 1 0 0 0Z" opacity=".2"/><path fill="#feb11a" d="M2230 1206c1 0 1 0 0 0Z" opacity=".3"/><path fill="#feb41a" d="M2249 1206c1 0 1 0 0 0Z" opacity=".7"/><path fill="#feb11a" d="M2252 1206c1 0 1 0 0 0ZM2274 1207c1 0 1 0 0 0Z" opacity=".3"/><path fill="#feb41a" d="M2263 1212c1 0 1 0 0 0ZM2280 1216c-1-2-1-2 0 0Z" opacity=".7"/><path fill="#feb11a" d="M2264 1216c1 0 1 0 0 0Z" opacity=".3"/><path fill="#ffba1b" d="M2275 1217c0-2 1-2 2-1l-2 1Z"/><path fill="#ffb21b" d="M2280 1216v2-2Z" opacity=".5"/><path fill="#feb11a" d="M2282 1216c1 0 1 0 0 0Z" opacity=".3"/><path fill="#ffb11a" d="M2293 1216v2-2Z" opacity=".3"/><path fill="#ffba1b" d="M2287 1216v3c-2-1-2-2 0-3Z"/><path fill="#ffb81a" d="M2290 1217v2-2Z"/><path fill="#feb01a" d="M2301 1217c1 0 1 0 0 0Z" opacity=".2"/><path fill="#feb41a" d="M2306 1222c-1-2-1-2 0 0Z" opacity=".7"/><path fill="#feb01a" d="M2314 1221c1 0 1 0 0 0Z" opacity=".2"/><path fill="#ffb51b" d="M2306 1222c3-2 3-1 0 2v-2Z"/><path fill="#feb41a" d="M2298 1223c1 0 1 0 0 0Z" opacity=".7"/><path fill="#ffb51b" d="M2312 1222c1 1 1 2-1 4-1-2 0-3 1-4Z"/><path fill="#feb11a" d="M2311 1228c-1-2-1-2 0 0Z" opacity=".3"/></svg>