<svg xmlns="http://www.w3.org/2000/svg" width="5120" height="2880" fill-rule="evenodd" clip-rule="evenodd" image-rendering="optimizeQuality" shape-rendering="geometricPrecision" text-rendering="geometricPrecision"><path fill="#79271a" d="M5119.5 1247.5v1167c-1.3 6-1.3 12 0 18v447H-.5v-1514c4 2.2 7.8 2.9 11.5 2 3.5 2.7 7.3 3.7 11.5 3 2.5 1.5 5.2 2.8 8 4 2.5 4.3 5.2 8.3 8 12 .6 3.3 2 6.3 4 9-.7 1.7-.4 3.3 1 5-.2.6-.5 1-1 1.5.7 1.4 1.2 2.9 1.5 4.5 3.2-.5 6.6-.5 10 0 3.1-.3 6.1-1 9-2 .4.5 1 .8 1.5 1 3.8-1.4 7.5-2.3 11-2.5 2.2 1 3.5 2.6 4 5a28 28 0 0 1 14 10c2.9 1 5.2 2.7 7 5 3 1.3 5.7 3 8 5.5 1.3 6.4 2.8 12.7 4.5 19 3.1 2 6 4.4 8.5 7 2.1 2.7 3.5 5.3 4 8l-2 6.5 2 1c-1.2 1.1-1.2 2.3 0 3.5l-2 3c0 3.7.5 7.7 1.5 12 2.8 4 4.3 3.3 4.5-2 1.3 2 1.3 4.2 0 6.5l15 5.5c-.3-3.5 0-6.9 1-10-.3 2.8 0 5.4 1 8a95.6 95.6 0 0 1 13-15.5c-1-.6-1.8-.5-2.5.5.6-2.2.4-4.4-.5-6.5l9.5-13.5c1-5.7 2.4-11 4-16 1.8-2.5 3.5-2.5 5 0 .7 4.2.6 8.4-.5 12.5l3 5a15 15 0 0 1-1 3.5c2.7 2.7 4.2 6 4.5 10 .7 1.3 1.3 1.3 2 0 1 2.5 2 4.8 3.5 7 0 1.8-.8 2.8-2.5 3a9.6 9.6 0 0 0-6.5-1.5c7 5.3 12 12 15 20l-6 2c2.1 2.5 4.6 3.3 7.5 2.5.5 4.2 2 7.9 4.5 11 2.3 2.7 5 3.2 8 1.5-1.8-1-2.3-2.6-1.5-4.5 3.2-2.6 6.5-5 10-7 0-2.5 1-4.7 2.5-6.5-3.2-2.6-3.6-5.3-1-8-.5-.4-.8-1-1-1.5a28 28 0 0 1 6-6.5c-.8-1.6-.2-2.6 2-3a4.3 4.3 0 0 1-3-2.5l2.5-5 12.5-16.5c-.7-.7-1.3-.7-2 0a9.5 9.5 0 0 1-9 5c5.5-7 10.9-14.2 16-21.5 2.6-1.8 4.9-3.8 7-6l2 4.5c-1.4 7.5 0 14.6 4 21.5a15.6 15.6 0 0 0-2 8.5c2.1 12 1 13-3.5 2.5-.8-1.5-1.6-1.8-2.5-1l3.5 14c2.8 2.8 5.3 6 7.5 9.5a7 7 0 0 0-4 3c1.8 1.9 2.7 4 2.5 6.5l-5.5-.5c2.3 3.3 4.8 6.4 7.5 9.5.7 2.7.7 5.3 0 8-1.7.5-3.6.6-5.5.5l1.5 1.5c-.4 7 2.5 12.2 8.5 15.5l-1 1c1.2.5 2 1.3 2.5 2.5 0 1.7.2 3.2.5 4.5 9 2.8 18 2.8 27 0 2.4-4.7 4.5-9.6 6.5-14.5a29.5 29.5 0 0 1 20.5-10.5c.7-3.3 2.4-6.5 5-9.5a33 33 0 0 1 4.5-3l1 1c6-5.8 12.8-10 20.5-13l-5-21.5a358 358 0 0 1 3-22.5c2.6-.5 5-1.6 7-3.5 3.6-.8 7.3-1.4 11-2l2.5-2.5c3 1 5.5.1 7.5-2.5 2.2-.2 4-1 5.5-2.5l1 1a997 997 0 0 1 29.5-14c9 .4 18.2 1.8 27.5 4a70 70 0 0 1 16.5 0c8.7 4.3 18 7.1 28 8.5 2.2 1.8 4 4 5.5 6.5.3 6 1.2 11.7 2.5 17.5a235 235 0 0 0-3 16c3.4 1.5 4.8 4.2 4 8a46 46 0 0 1-3.5 11.5c-3.7 5-6.9 9.8-9.5 14.5 10.7-1.7 21.3-2.4 32-2 7.7-2.4 14.7-6 21-11-.8-.7-1-1.5-1-2.5 3.6 1.5 6.6.7 9-2.5l-3-3c6.5-11.8 13.8-23 22-33.5l-.5-1c-3.4 3-7 5.8-10.5 8.5-5.9 1.1-6.4-.4-1.5-4.5 2-3.5 3.6-7.1 4.5-11-4-.5-7-2.3-9-5.5 1.1-3.3 2.4-6.4 4-9.5 1.9-.7 2.2-1.7 1-3 1.4-1.7 2.3-3.7 2.5-6 4.4-1 6.4-3.7 6-8-4.7 5.3-5.7 5-3-1 1.2-5.2 2.5-10.2 4-15-.4 2.1-1.6 3-3.5 2.5 1.8-1 2.2-2 1-3.5 2.2-6.5 4.5-12.8 7-19-.2-.6-.5-1-1-1.5l5.5-16.5c.4-.5 1-.8 1.5-1 2.5 7.6 6 14.6 10.5 21 1.9 1.5 3.4 3.4 4.5 5.5 1 .5 2 .7 3 .5l1.5 5c-2 1.5-3.7 1.2-5-1-.5 2.8 0 5.5 1.5 8 2.7 2.7 5 5.7 7 9-1 2.1-.7 4.1 1 6-1.2.8-2.6 1.3-4 1.5a27 27 0 0 1 12 9 4.4 4.4 0 0 1-4 2.5c-4.9-1.3-6.4.4-4.5 5a24.8 24.8 0 0 0 20.5 7.5 7 7 0 0 0 3.5-2.5c4.2 1 7.5 3.4 10 7 1.5 5 4 9.3 7.5 13 3-1.7 5.4-4 7-7a108 108 0 0 0 12-21l-.5-1a24.6 24.6 0 0 1-12.5 9 3 3 0 0 1-2-2c4.8-5.6 9.1-11.6 13-18-2.6-.6-4.8.4-6.5 3a48 48 0 0 1 4-10l10.5-11c2.5-6.2 1.5-6.3-3-.5-1.3.7-2.7.7-4 0 6.3-7.4 11.5-15.6 15.5-24.5a14 14 0 0 0 4-3l3 15c2 4.3 4.3 8.3 7 12 .8 2 1.3 4 1.5 6-4.7-.7-8-3.4-10-8-.5-1-1.2-1.2-2-.5a33 33 0 0 0 3.5 9.5c4 3 8.2 5.8 12.5 8.5-1.8 1-3 2.5-3.5 4.5-6.5-1.9-6.9-.9-1 3 .5 1.6.7 3.3.5 5-3.2.3-6.2-.4-9-2l-1 1c2.7 5.9 6.4 11 11 15.5-2.3 1.8-2 3.5 1 5 4 .8 8 1.3 12 1.5 0-2.7.6-5.2 2-7.5l-1-1c7-10.8 11.1-23 12.5-36.5 1.2-2 2.7-2.4 4.5-1a88.3 88.3 0 0 0 7-22.5l-1-1a6.2 6.2 0 0 1 3.5-4.5c2.4 3.8 4.4 7.8 6 12 0 5 1.4 9.6 4.5 13.5l-1 1c3 6 7.5 10.1 13.5 12.5.1 4.2-2 6-6.5 5.5 2.5 3.7 5.5 6.8 9 9.5.5 1.3 1.2 2.4 2 3.5 0 2-.3 4-1 6 2.5 1.3 4.5 3.1 6 5.5a6.7 6.7 0 0 1-4.5 3c-2.5-1-5-1.2-7.5-.5 3.4 3.7 7.2 6.9 11.5 9.5 2.3-1 2.8-2.5 1.5-4.5 2.6-5.2 6-9.9 10-14-1.6.6-3 .3-4-1a9.4 9.4 0 0 0 9-6.5 46 46 0 0 1-4-8.5 381.3 381.3 0 0 0 20-45c-1.5-.5-2.7 0-3.5 1.5-.8 2.1-1.8 4.1-3 6l-1-1c-2 .9-3.7 2.2-5 4l-2.5-2.5a222.5 222.5 0 0 0 22-33l-1-1c2.4-.6 3.4-2 3-4.5 1.6-.4 3-.4 4 0l-2 6a8.8 8.8 0 0 0 4.5 3 32.7 32.7 0 0 0 10 26c.5 1.6.7 3.3.5 5-1.4.2-2.7 0-4-.5-1.6-2.3-3.6-3.2-6-2.5 4.1 8.1 9.1 15.6 15 22.5-.8 1.8-2 3.3-3.5 4.5a26 26 0 0 1-6.5-5.5c-.7-.7-1.3-.7-2 0a81 81 0 0 0 12 18l-1.5 1.5c-2-.7-3.8-1.7-5.5-3l-1 1a25 25 0 0 1 4 8c1.2 2.2 3.5 3.9 7 5 0 1.4.3 2.8 1 4a14.9 14.9 0 0 1-4 3.5 15 15 0 0 0 14 9c4 .7 8 .7 12 0 16-3.2 32-6.7 48-10.5 2.1-6.6 6-12 11.5-16a7 7 0 0 1 2.5-4.5c-1.6-1-2.9-2.1-4-3.5.7-1.2 1-2.6 1-4 3.5-1.1 5.8-2.8 7-5a25 25 0 0 1 4-8l-1-1a20.6 20.6 0 0 1-5.5 3l-1.5-1.5a81 81 0 0 0 12-18c-.7-.7-1.3-.7-2 0a26 26 0 0 1-6.5 5.5 12.2 12.2 0 0 1-3.5-4.5c5.9-6.9 10.9-14.4 15-22.5-2.4-.7-4.4.2-6 2.5-1.3.5-2.6.7-4 .5a18 18 0 0 1 6.5-12 36.7 36.7 0 0 0 4-19 8.8 8.8 0 0 0 4.5-3l-2-6c1-.4 2.4-.4 4 0-.4 2.4.6 4 3 4.5l-1 1a222.5 222.5 0 0 0 22 33l-2.5 2.5c-1.3-1.8-3-3.1-5-4l-1 1a34.3 34.3 0 0 1-3-6c-.8-1.5-2-2-3.5-1.5a381.3 381.3 0 0 0 20 45 46 46 0 0 1-4 8.5 9.4 9.4 0 0 0 9 6.5c-1 1.3-2.4 1.6-4 1 4 4.1 7.4 8.8 10 14-1.3 2-.8 3.5 1.5 4.5 4.3-2.6 8-5.8 11.5-9.5-2.5-.7-5-.5-7.5.5-2-.4-3.5-1.4-4.5-3 1.5-2.4 3.5-4.2 6-5.5-.7-2-1-4-1-6 .8-1 1.5-2.3 2-3.5 3.5-2.7 6.5-5.8 9-9.5-4.5.5-6.6-1.3-6.5-5.5 6-2.4 10.5-6.5 13.5-12.5l-1-1c3-4 4.6-8.4 4.5-13.5 1.6-4.2 3.6-8.2 6-12 1.9.9 3 2.4 3.5 4.5l-1 1a88.4 88.4 0 0 0 7 22.5c1.8-1.4 3.3-1 4.5 1a82.2 82.2 0 0 0 12.5 36.5l-1 1a14 14 0 0 1 2 7.5c4-.2 8-.7 12-1.5 3-1.5 3.3-3.2 1-5 4.6-4.5 8.3-9.6 11-15.5l-1-1a14.7 14.7 0 0 1-9 2 13 13 0 0 1 .5-5c5.9-3.9 5.5-4.9-1-3-.6-2-1.7-3.5-3.5-4.5 4.3-2.7 8.5-5.5 12.5-8.5 2-3.3 3-6.7 2.5-10-2.3 5-6 8-11 9 .2-2 .7-4 1.5-6 2.7-3.7 5-7.7 7-12l3-15a14 14 0 0 0 4 3c4 8.9 9.2 17 15.5 24.5-3.7.4-6.5-1.1-8.5-4.5-.1 1.8.4 3.4 1.5 5l10.5 11a48 48 0 0 1 4 10c-1.7-2.6-3.9-3.6-6.5-3 3.9 6.4 8.2 12.4 13 18a3 3 0 0 1-2 2 24.6 24.6 0 0 1-12.5-9l-.5 1a108 108 0 0 0 12 21c1.7 3 4 5.3 7 7 3.5-3.7 6-8 7.5-13 2.5-3.6 5.8-6 10-7a9 9 0 0 0 9.5 2.5c7-1 12.4-4.5 16-10.5-.5-1-1.1-1.8-2-2.5-2 .3-4 .3-6 0-2.5-2.2-2.2-4.2 1-6a60 60 0 0 1 9-5c-1.4-.2-2.8-.7-4-1.5 1.7-1.9 2-3.9 1-6 2-3.3 4.3-6.3 7-9 1.5-2.5 2-5.2 1.5-8-1.3 2.2-3 2.5-5 1l1.5-5c1 .2 2 0 3-.5 3.3-4 6.5-8.2 9.5-12.5 1.7-4.7 3.6-9.4 5.5-14 .6.2 1 .5 1.5 1l5.5 16.5c-.5.4-.8 1-1 1.5a317 317 0 0 1 7 19c-1.2 1.4-.8 2.6 1 3.5-2 .5-3-.4-3.5-2.5 1.5 4.8 2.8 9.8 4 15 2.7 6 1.7 6.3-3 1-.4 4.3 1.6 7 6 8 .2 2.3 1 4.3 2.5 6-1.2 1.3-.9 2.3 1 3 1.6 3 2.9 6.2 4 9.5-2 3.2-5 5-9 5.5 1.5 5.8 4.2 11 8 15.5-1.7.7-3.3.7-5 0a203 203 0 0 1-10.5-8.5l-.5 1a253.8 253.8 0 0 1 22 33.5c-4 2.5-3.6 4.5 1 6 1.8.6 3.4.5 5-.5 0 1-.3 1.8-1 2.5a46 46 0 0 0 33.5 10.5l19.5 2.5c-2.6-4.7-5.8-9.5-9.5-14.5a46 46 0 0 1-3.5-11.5c-.8-3.8.6-6.5 4-8a229 229 0 0 0-3-16c1.3-5.8 2.2-11.6 2.5-17.5 1.5-2.5 3.3-4.7 5.5-6.5 10-1.4 19.3-4.2 28-8.5a70 70 0 0 1 16.5 0c9.3-2.2 18.5-3.6 27.5-4 9.4 4.3 19.2 9 29.5 14l1-1a8.4 8.4 0 0 0 5.5 2.5c2 2.6 4.5 3.5 7.5 2.5l2.5 2.5c3.7.6 7.3 1.2 11 2 2 1.9 4.4 3 7 3.5-.4 2.2.3 3.8 2 5 4-4.1 6.4-8.8 7-14-2 .7-3.7 1.8-5 3.5-1.3.5-2.6.7-4 .5a18 18 0 0 1 6.5-12 36.7 36.7 0 0 0 4-19 8.9 8.9 0 0 0 4.5-3l-2-6c1-.4 2.4-.4 4 0-.4 2.4.6 4 3 4.5l-1 1a222 222 0 0 0 22 33l-2.5 2.5c-1.3-1.8-3-3.1-5-4l-1 1a33.6 33.6 0 0 1-3-6c-.8-1.5-2-2-3.5-1.5a381.5 381.5 0 0 0 20 45c-1 3-2.4 5.8-4 8.5a9.4 9.4 0 0 0 9 6.5c-1 1.3-2.4 1.6-4 1a55 55 0 0 1 10 14c-1.3 2-.8 3.5 1.5 4.5 4.3-2.6 8-5.8 11.5-9.5-2.5-.7-5-.5-7.5.5-2-.4-3.5-1.4-4.5-3 1.5-2.4 3.5-4.2 6-5.5-.8-2-1-4-1-6 .8-1 1.5-2.3 2-3.5 3.5-2.7 6.5-5.8 9-9.5-4.5.5-6.6-1.3-6.5-5.5 6-2.4 10.5-6.5 13.5-12.5l-1-1c3-4 4.6-8.4 4.5-13.5a79 79 0 0 1 6-12c1.9.9 3 2.4 3.5 4.5l-1 1a88.4 88.4 0 0 0 7 22.5c1.8-1.4 3.3-1 4.5 1a82.2 82.2 0 0 0 12.5 36.5l-1 1a14 14 0 0 1 2 7.5c4-.2 8-.7 12-1.5 3-1.5 3.3-3.2 1-5 4.6-4.5 8.3-9.6 11-15.5l-1-1a14.7 14.7 0 0 1-9 2 13 13 0 0 1 .5-5c5.9-3.9 5.5-4.9-1-3-.6-2-1.7-3.5-3.5-4.5 4.3-2.7 8.5-5.5 12.5-8.5 2-3.3 3-6.7 2.5-10-2.3 5-6 8-11 9 .2-2 .7-4 1.5-6 2.7-3.7 5-7.7 7-12l3-15a14 14 0 0 0 4 3c4 8.9 9.2 17 15.5 24.5-3.7.4-6.5-1.1-8.5-4.5-.1 1.8.4 3.4 1.5 5l10.5 11a48 48 0 0 1 4 10c-1.7-2.6-3.9-3.6-6.5-3 3.9 6.4 8.2 12.4 13 18a3 3 0 0 1-2 2 24.6 24.6 0 0 1-12.5-9l-.5 1a108 108 0 0 0 12 21c1.7 3 4 5.3 7 7 3.5-3.7 6-8 7.5-13 2.5-3.6 5.8-6 10-7a9 9 0 0 0 9.5 2.5c7-1 12.4-4.5 16-10.5-.5-1-1.1-1.8-2-2.5-2 .3-4 .3-6 0-2.5-2.2-2.2-4.2 1-6a60 60 0 0 1 9-5c-1.4-.2-2.8-.7-4-1.5 1.7-1.9 2-3.9 1-6 2-3.3 4.3-6.3 7-9 1.5-2.5 2-5.2 1.5-8-1.3 2.2-3 2.5-5 1l1.5-5c1 .2 2 0 3-.5 3.3-4 6.5-8.2 9.5-12.5 1.7-4.7 3.6-9.4 5.5-14 .6.2 1 .5 1.5 1l5.5 16.5c-.5.4-.8 1-1 1.5a317 317 0 0 1 7 19c-1.2 1.4-.8 2.6 1 3.5-2 .5-3-.4-3.5-2.5 1.5 4.8 2.8 9.8 4 15 2.7 6 1.7 6.3-3 1-.4 4.3 1.6 7 6 8 .2 2.3 1 4.3 2.5 6-1.2 1.3-.9 2.3 1 3 1.6 3 2.9 6.2 4 9.5-2 3.2-5 5-9 5.5 1.5 5.8 4.2 11 8 15.5-1.7.7-3.3.7-5 0a203 203 0 0 1-10.5-8.5l-.5 1a253.8 253.8 0 0 1 22 33.5c-4 2.5-3.6 4.5 1 6 1.8.6 3.4.5 5-.5 0 1-.3 1.8-1 2.5a46 46 0 0 0 33.5 10.5l19.5 2.5c-2.6-4.7-5.8-9.5-9.5-14.5a46 46 0 0 1-3.5-11.5c-.8-3.8.6-6.5 4-8a229 229 0 0 0-3-16c1.3-5.8 2.2-11.6 2.5-17.5 1.5-2.5 3.3-4.7 5.5-6.5 10-1.4 19.3-4.2 28-8.5a70 70 0 0 1 16.5 0c9.3-2.2 18.5-3.6 27.5-4 9.4 4.3 19.2 9 29.5 14l1-1a8.4 8.4 0 0 0 5.5 2.5c2 2.6 4.5 3.5 7.5 2.5l2.5 2.5c3.7.6 7.3 1.2 11 2 2 1.9 4.4 3 7 3.5 1.3 7.7 2.3 15.2 3 22.5l-5 21.5c7.7 3 14.5 7.3 20.5 13l1-1c1.6.9 3 1.9 4.5 3 2.7 3 4.3 6.2 5 9.5a28.7 28.7 0 0 1 26.5 24.5c5.8 2.3 10.8 1 15-4 1.8-6.6 3.4-13.3 5-20 2-4 4.6-7.2 8-10 .4-1.4.9-2.7 1.5-4-1.7-3-1-5.4 2-7-2.7-1.3-2.7-2.7 0-4-.2-.6-.5-1-1-1.5.8-2.1 1.8-4.1 3-6a4 4 0 0 0-1-2c2.3-1.2 3-3 2-5 .7-1 1.2-2.2 1.5-3.5 16-10.3 32.3-20.5 48.5-30.5 4.5-4.5 6.7-10 6.5-16.5.2 3 .7 6 1.5 9 4-.8 8.4-1 13-.5 20.8 8 42 14 64 18 12.7.6 25-1.3 37-5.5 14.1 3.3 27.4 6 40 8-1.5 2.1-1.2 3.8 1 5-1.1.9-1.1 1.7 0 2.5 6.8 3 11.8 7 15 12.5 2.4 6 4.1 12.2 5 18.5-.7 1.6-.2 3.1 1.5 4.5.4-.6.9-.9 1.5-1 1.4 1 3 1.3 5 1 1.2 1.2 2.5 1.2 4 0-.1.9.2 1.5 1 2 7.2 2 13.8 5 20 9l1-.5a4.6 4.6 0 0 1-2-4.5c4.5 4.3 8.1 8.8 11 13.5 2.6.6 5 1.8 7 3.5 3.7-2.4 6.9-5.4 9.5-9 2-6.6 4.6-13.1 7.5-19.5-1.4-1.3-1.9-2.8-1.5-4.5a90.3 90.3 0 0 0 14.5-21c-1.5-.8-2.5-2-3-3.5 4-4 7.3-8.5 10-13.5a4.5 4.5 0 0 0-2-1.5c5-6.8 9.8-13.6 14.5-20.5a33 33 0 0 1-2.5 9.5c.7 4.5 1.5 9 2.5 13.5 3.1 3.5 4.1 7.5 3 12a18.9 18.9 0 0 1-5.5-7c-.2 3.4.7 6.7 2.5 10l8.5 8.5c-2.3 2.5-4.8 2.4-7.5-.5a18 18 0 0 0 7 14c-.3 4.1.7 8.1 3 12 3.7-.7 7.2-2 10.5-4-.5-2.6.1-5.1 2-7.5-.8-.3-1.5-.8-2-1.5 3.4-9.1 7-18.1 11-27-1.2-2.6-2.2-2.4-3 .5a7 7 0 0 0-3.5 2.5l-.5-1 8.5-15c.2-2.3.7-4.4 1.5-6.5l-1-.5a24 24 0 0 1-6.5 7 22 22 0 0 1 5.5-13.5l-.5-1.5c-1.5 2.4-2.6 2.4-3.5 0a148 148 0 0 0 10.5-27l12 20c1.1 1.7 2.6 3 4.5 4-.5 1.4-1.5 2-3 2-5.9-3.4-7-2.4-3.5 3l9 9c.8-1.5 1.6-1.8 2.5-1-2.1 3.5-4.6 3.8-7.5 1-2.2 2.4-4.5 2.4-7 0l-.5 1c3.9 3.7 7.2 7.9 10 12.5l11 5.5a4.3 4.3 0 0 1-3 2.5 34 34 0 0 0-8 1.5 48.8 48.8 0 0 0 18 15 28 28 0 0 0-7.5 2c-2-.5-3.7-1.5-5-3 3.8 6.3 9 11.6 15.5 16-.5 1.4-1.5 2-3 2-2.7-.8-5.4-1.3-8-1.5 1.2 1.7 2 3.5 2.5 5.5a63 63 0 0 0 18 9 4 4 0 0 0 2-1l4 4a93 93 0 0 0 4.5 18c1.4-1.9 3.1-2.2 5-1 6-2.8 11.3-6.6 16-11.5-1-.5-2-.3-3 .5-1-.9-1-1.9 0-3 5.3-5 9.8-10.4 13.5-16-3 2.9-6.1 3.4-9.5 1.5 7.9-6 14.9-13 21-21 2-2 3.7-1.7 5 1-4.3 6.2-3.6 11.7 2 16.5-1 .8-1.2 1.8-.5 3 .8-1.1 1.6-1.1 2.5 0-.9.8-1.6 1.8-2 3 1 2 1 4 0 6-1.4-2-3-3-5-3.5 1.4 5 3.4 10.2 6 15.5-2.3 1.2-4.5.9-6.5-1l-.5 1.5a44.6 44.6 0 0 0 6.5 14.5 31 31 0 0 0 6.5-7.5c-3.7.2-4.5-1-2.5-3.5 6.8-6.6 13.3-13.3 19.5-20l1 1a21.6 21.6 0 0 0 0 25c-1.8 1.3-3.3 1-4.5-1l-.5 2c1.5 3.9 2.5 7.5 3 11 3.7-2.8 7-6 10-9.5-2 .1-4 .6-6 1.5l-2-1c2.2-2.5 4.5-5 7-7.5-1.4-.2-2.8-.7-4-1.5 2.7-3.5 6-6.4 10-8.5l-1-1 9-15c1-.5 2-.7 3-.5-.2 5.7 0 11.3.5 17 2.8 3 5 6.3 6.5 10-1.1 2.1-2.6 2.1-4.5 0a10 10 0 0 0 4.5 8 278 278 0 0 1 16-12.5c-1.3-.2-2.6 0-4 .5a4 4 0 0 1-3-1.5 6 6 0 0 1 4-4c-2-.6-3.6-.1-5 1.5-.8-.3-1.5-.8-2-1.5 3.2-3.7 6.9-6.9 11-9.5 3.4-3.8 6.6-7.8 9.5-12 1-1.3 1.3-2.6 1-4-3.4 4-7.4 7.4-12 10l-1.5-1c2.2-3 4.8-5.5 8-7.5l-2-2 6-6c-2.8-.4-4-2-3.5-4.5a95.8 95.8 0 0 0 19-27c1.5 4.3 1.7 8.7.5 13l1.5 6c3 4.4 5.8 9 8.5 13.5l-1 1.5c-1-.8-2-1-3-.5 1.5 1.3 2.8 2.8 4 4.5a4.9 4.9 0 0 1-4 1c0 1.6-.7 3-2 4a25 25 0 0 1 4 8c-1.5-.3-2.8 0-4 1a20.8 20.8 0 0 1 3 16.5c4.8 7 3.2 10.1-5 9.5 1.7 1 3 2.4 4 4 2.3 2.7 3.6 5.5 4 8.5a5.6 5.6 0 0 1-3 3.5c1.4 1.5 2.5 3.2 3.5 5 8-3.3 14.8-8.2 20.5-14.5l-1-1c1-.5 2-.7 3-.5-.2 4 .4 7.8 2 11.5-2 5.4-.6 10.2 4 14.5-2.3 1.2-4.5.9-6.5-1 .6 4 1.4 8 2.5 12a9 9 0 0 1-7.5-2l-.5 1a245 245 0 0 0 9 19l-.5 3c-2-1-3.6-2.3-5-4-2.1 6 0 9.4 6.5 10 0 1.6-.7 3-2 4 1.4 3 1.9 6 1.5 9 2.5-2.3 4.9-2 7 1l1-1c9.1 10.5 17.4 9.8 25-2 1.4.8 2.5.3 3.5-1.5-5.2 1-10.4 2.6-15.5 4.5-1-.8-2.2-1.2-3.5-1-.3-3.7 1.3-5.3 5-5-.3-2.2.3-4 2-5.5 3-2.2 6.4-3.9 10-5-5 1-9.7 0-14-3 6.8-.4 13.4-2 20-5-2-1-4-2.2-6-3.5.8-1 1.8-1.6 3-2a9 9 0 0 0 8 0c.8-2.3 2-4 4-5.5-4.4-3.3-4-4.6 1-4l2-3c4.7-1.6 9-4 13-7-7.9 2.6-8.7 1-2.5-4.5 2.3-7 5.8-13.4 10.5-19l-1-1a13.4 13.4 0 0 1-9.5 6c-1.4-.3-2.6-1-3.5-2a52.4 52.4 0 0 0 26-30h3c.8 6 1.3 12 1.5 18 1.4 5 3.5 9.7 6.5 14a3 3 0 0 1-2 2 8.3 8.3 0 0 1-4.5-6c-.7-1.2-1.2-1.2-1.5 0a166 166 0 0 0 2.5 10c3 4.4 5.8 8.9 8.5 13.5-2.5.6-4.8 0-7-1.5l-2 1c1 2.1 2.1 4.1 3.5 6 2.8 1.5 5 3.7 6.5 6.5-.8 2.5-2.3 3-4.5 1.5-1.2 1-1.7 2-1.5 3a41 41 0 0 1-6.5-4l-.5 1a42.1 42.1 0 0 0 13 15c-2.7.7-5.2 1.7-7.5 3a7 7 0 0 0-5.5-.5c4.6 6 9.2 12 14 18a10 10 0 0 1-7 4.5c2.3 2.8 4.8 5.5 7.5 8 2.8-2.3 5-5 6.5-8-1.8.3-3.2-.4-4-2a57.6 57.6 0 0 0 18-28 3 3 0 0 1 3 1c1.3 2.5 1.3 5 0 7.5.3 2 1.1 2.5 2.5 1.5.3 1.3.8 2.4 1.5 3.5-2 .7-3.7 1.8-5 3.5 1.6-.6 2.9.1 4 2-3.8 2.5-7 5.5-10 9 4.4 1.6 8.4 1 12-2a6.9 6.9 0 0 0 3 4.5c5.4 1.3 5.9 3 1.5 5.5-6.3-4.2-7.2-3-2.5 3.5l-2.5 2.5-5-7c0 4 1.2 7.6 3.5 11a6.7 6.7 0 0 0 5 3c-5.6 1.7-11 4-16 7 .8 1 1.8 1.6 3 2 5.2-1.3 10.3-2.3 15.5-3l1 1c.8-1.5 2-2 3.5-1.5a31.4 31.4 0 0 1-6 4.5c.8 1 1.8 1.6 3 2a47.4 47.4 0 0 0 24-16c1.2.8 1.2 1.6 0 2.5l2.5 2.5a1046 1046 0 0 1 26.5-16.5c4.5-4.5 6.7-10 6.5-16.5.2 3 .7 6 1.5 9 4-.8 8.4-1 13-.5 20.8 8 42 14 64 18 12.7.6 25-1.3 37-5.5 14.1 3.3 27.4 6 40 8-1.5 2.1-1.2 3.8 1 5-1.1.9-1.1 1.7 0 2.5 6.8 3 11.8 7 15 12.5 2.4 6 4.1 12.2 5 18.5-.7 1.6-.2 3.1 1.5 4.5.4-.6.9-.9 1.5-1 1.4 1 3 1.3 5 1 1.2 1.2 2.5 1.2 4 0-.1.9.2 1.5 1 2 7.2 2 13.8 5 20 9l1-.5a4.6 4.6 0 0 1-2-4.5c4.5 4.3 8.1 8.8 11 13.5 2.6.6 5 1.8 7 3.5 3.7-2.4 6.9-5.4 9.5-9 2-6.6 4.6-13.1 7.5-19.5-1.4-1.3-1.9-2.8-1.5-4.5a90.3 90.3 0 0 0 14.5-21c-1.5-.8-2.5-2-3-3.5 4-4 7.3-8.5 10-13.5a4.5 4.5 0 0 0-2-1.5c5-6.8 9.8-13.6 14.5-20.5a33 33 0 0 1-2.5 9.5c.7 4.5 1.5 9 2.5 13.5 3.1 3.5 4.1 7.5 3 12a18.9 18.9 0 0 1-5.5-7c-.2 3.4.7 6.7 2.5 10l8.5 8.5c-2.3 2.5-4.8 2.4-7.5-.5a18 18 0 0 0 7 14c-.3 4.1.7 8.1 3 12 3.7-.7 7.2-2 10.5-4-.5-2.6.1-5.1 2-7.5-.8-.3-1.5-.8-2-1.5 3.4-9.1 7-18.1 11-27-1.2-2.6-2.2-2.4-3 .5a7 7 0 0 0-3.5 2.5l-.5-1 8.5-15c.2-2.3.7-4.4 1.5-6.5l-1-.5a24 24 0 0 1-6.5 7 22 22 0 0 1 5.5-13.5l-.5-1.5c-1.5 2.4-2.6 2.4-3.5 0a148 148 0 0 0 10.5-27l12 20c1.1 1.7 2.6 3 4.5 4-.5 1.4-1.5 2-3 2-5.9-3.4-7-2.4-3.5 3l9 9c.8-1.5 1.6-1.8 2.5-1-2.1 3.5-4.6 3.8-7.5 1-2.2 2.4-4.5 2.4-7 0l-.5 1c3.9 3.7 7.2 7.9 10 12.5l11 5.5a4.3 4.3 0 0 1-3 2.5 34 34 0 0 0-8 1.5 48.8 48.8 0 0 0 18 15 28 28 0 0 0-7.5 2c-2-.5-3.7-1.5-5-3 3.8 6.3 9 11.6 15.5 16-.5 1.4-1.5 2-3 2-2.7-.8-5.4-1.3-8-1.5 1.2 1.7 2 3.5 2.5 5.5a63 63 0 0 0 18 9 4 4 0 0 0 2-1l4 4a93 93 0 0 0 4.5 18c1.4-1.9 3.1-2.2 5-1 6-2.8 11.3-6.6 16-11.5-1-.5-2-.3-3 .5-1-.9-1-1.9 0-3 5.3-5 9.8-10.4 13.5-16-3 2.9-6.1 3.4-9.5 1.5 7.9-6 14.9-13 21-21 2-2 3.7-1.7 5 1-4.3 6.2-3.6 11.7 2 16.5-1 .8-1.2 1.8-.5 3 .8-1.1 1.6-1.1 2.5 0-.9.8-1.6 1.8-2 3 1 2 1 4 0 6-1.4-2-3-3-5-3.5 1.4 5 3.4 10.2 6 15.5-2.3 1.2-4.5.9-6.5-1l-.5 1.5a44.6 44.6 0 0 0 6.5 14.5 31 31 0 0 0 6.5-7.5c-3.7.2-4.5-1-2.5-3.5 6.8-6.6 13.3-13.3 19.5-20l1 1a21.6 21.6 0 0 0 0 25c-1.8 1.3-3.3 1-4.5-1l-.5 2c1.5 3.9 2.5 7.5 3 11 3.7-2.8 7-6 10-9.5-2 .1-4 .6-6 1.5l-2-1c2.2-2.5 4.5-5 7-7.5-1.4-.2-2.8-.7-4-1.5 2.7-3.5 6-6.4 10-8.5l-1-1 9-15c1-.5 2-.7 3-.5-.2 5.7 0 11.3.5 17 2.8 3 5 6.3 6.5 10-1.1 2.1-2.6 2.1-4.5 0a10 10 0 0 0 4.5 8 278 278 0 0 1 16-12.5c-1.3-.2-2.6 0-4 .5a4 4 0 0 1-3-1.5 6 6 0 0 1 4-4c-2-.6-3.6-.1-5 1.5-.8-.3-1.5-.8-2-1.5 3.2-3.7 6.9-6.9 11-9.5 3.4-3.8 6.6-7.8 9.5-12 1-1.3 1.3-2.6 1-4-3.4 4-7.4 7.4-12 10l-1.5-1c2.2-3 4.8-5.5 8-7.5l-2-2 6-6c-2.8-.4-4-2-3.5-4.5a95.8 95.8 0 0 0 19-27c1.5 4.3 1.7 8.7.5 13l1.5 6c3 4.4 5.8 9 8.5 13.5l-1 1.5c-1-.8-2-1-3-.5 1.5 1.3 2.8 2.8 4 4.5a4.9 4.9 0 0 1-4 1c0 1.6-.7 3-2 4a25 25 0 0 1 4 8c-1.5-.3-2.8 0-4 1a20.8 20.8 0 0 1 3 16.5c4.8 7 3.2 10.1-5 9.5 1.7 1 3 2.4 4 4 2.3 2.7 3.6 5.5 4 8.5a5.6 5.6 0 0 1-3 3.5c1.4 1.5 2.5 3.2 3.5 5 8-3.3 14.8-8.2 20.5-14.5l-1-1c1-.5 2-.7 3-.5-.2 4 .4 7.8 2 11.5-2 5.4-.6 10.2 4 14.5-2.3 1.2-4.5.9-6.5-1 .6 4 1.4 8 2.5 12a9 9 0 0 1-7.5-2 37.6 37.6 0 0 0 8 17c6-6.3 8-14 5.5-23a4 4 0 0 1 2-3.5c-2.8-1.9-3.1-3.9-1-6-1.2-.9-1.2-1.7 0-2.5a47.4 47.4 0 0 0 24 16c3.8-1.8 3.4-3.3-1-4.5-2.2-3-1.7-3.2 1.5-.5l1-1c5.2.7 10.3 1.7 15.5 3 1.2-.4 2.2-1 3-2-5-3-10.4-5.3-16-7a6.7 6.7 0 0 0 5-3c1.7-3 3-6.2 4-9.5 0-1-.4-1.4-1-1l-4.5 6.5-2.5-2.5c4.7-6.5 3.8-7.7-2.5-3.5-4.4-2.4-3.9-4.2 1.5-5.5a6.9 6.9 0 0 0 3-4.5c3.6 3 7.6 3.6 12 2-3-3.5-6.3-6.5-10-9 1.1-1.9 2.4-2.6 4-2-1.3-1.7-3-2.8-5-3.5.7-1 1.2-2.2 1.5-3.5 1.4 1 2.2.5 2.5-1.5a7.9 7.9 0 0 1 0-7.5 3 3 0 0 1 3-1 57.6 57.6 0 0 0 18 28c-.8 1.6-2.2 2.3-4 2a7.5 7.5 0 0 0 4 5 22 22 0 0 0 7-5.5c-1.7-1-3-2.3-4-4 4.8-6 9.4-12 14-18a7 7 0 0 0-5.5.5 31.4 31.4 0 0 0-7.5-3c5.5-3.9 9.8-8.9 13-15l-.5-1a41 41 0 0 1-6.5 4c.2-1-.3-2-1.5-3-2.2 1.5-3.7 1-4.5-1.5 1.5-2.8 3.7-5 6.5-6.5 1.4-1.9 2.5-3.9 3.5-6l-2-1a8.3 8.3 0 0 1-7 1.5c2.7-4.6 5.6-9.1 8.5-13.5 1-3.3 1.8-6.7 2.5-10-.3-1.2-.8-1.2-1.5 0a7.7 7.7 0 0 1-3.5 5.5c-1.5.6-2.5.1-3-1.5a40.9 40.9 0 0 0 8-21.5c-1-3.3-1-6.8 0-10.5h3a52.4 52.4 0 0 0 26 30c-2.9 2.3-5.9 2.3-9 0l-4-4-1 1c4.7 5.6 8.2 12 10.5 19 6.2 5.6 5.4 7-2.5 4.5a18 18 0 0 0 10 5c2.3 1 4 2.7 5 5 5-.6 5.4.8 1 4a11 11 0 0 1 4 5.5c3.4.7 6.7 1 10 1 1.3.7 1.3 1.3 0 2-1.8.5-3.5 1.4-5 2.5 6.6 3 13.2 4.6 20 5-4.3 3-9 4-14 3 3.6 1.1 7 2.8 10 5a5.8 5.8 0 0 1 2 5.5c3.7-.3 5.3 1.3 5 5-1.3-.2-2.5.2-3.5 1-5.1-2-10.3-3.4-15.5-4.5 3.5 3.2 7.5 6.5 12 10 1.9.4 3.7 1 5.5 1.5 5.6-3.7 11-7 16-10 3.2 3 4 2.5 2.5-1.5l2-5.5c-1.3-1-2-2.4-2-4 6.5-.6 8.6-4 6.5-10-1.4 1.7-3 3-5 4l-.5-3a245 245 0 0 0 9-19c-.6-1-1.3-.8-2 .5-2 .5-4 .7-6 .5 1.1-4 2-8 2.5-12-2 1.9-4.2 2.2-6.5 1 4.6-4.3 6-9.1 4-14.5 1.6-3.7 2.2-7.5 2-11.5 1-.2 2 0 3 .5l-1 1a56.5 56.5 0 0 0 20.5 14.5c1-1.8 2.1-3.5 3.5-5-1.5-.8-2.5-2-3-3.5.4-3 1.7-5.8 4-8.5 1-1.6 2.3-3 4-4-8.2.6-9.8-2.5-5-9.5a20.8 20.8 0 0 1 3-16.5 4.9 4.9 0 0 0-4-1 25 25 0 0 1 4-8c-1.3-1-2-2.4-2-4-1.5.3-2.8 0-4-1 1.2-1.7 2.5-3.2 4-4.5-1-.5-2-.3-3 .5l-1-1.5c2.7-4.6 5.5-9 8.5-13.5l1.5-6c-1.2-4.3-1-8.7.5-13a95.8 95.8 0 0 0 19 27c.4 2.6-.7 4-3.5 4.5l6 6-2 2c3.2 2 5.8 4.5 8 7.5l-1.5 1c-4.6-2.6-8.6-6-12-10-.3 1.4 0 2.7 1 4 3 4.2 6 8.2 9.5 12 4.1 2.6 7.8 5.8 11 9.5-.5.7-1.2 1.2-2 1.5-1.4-1.6-3-2.1-5-1.5a6 6 0 0 1 4 4 4 4 0 0 1-3 1.5 7.5 7.5 0 0 0-4-.5 278 278 0 0 1 16 12.5 10 10 0 0 0 4.5-8c-1.9 2.1-3.4 2.1-4.5 0 1.5-3.7 3.7-7 6.5-10 .5-5.7.7-11.3.5-17 1.3-.2 2.5.2 3.5 1l8.5 14.5-1 1c4 2.1 7.3 5 10 8.5-1.2.8-2.6 1.3-4 1.5 2.5 2.5 4.8 5 7 7.5l-2 1c-2-.9-4-1.4-6-1.5 3 3.5 6.3 6.7 10 9.5.5-3.5 1.5-7.1 3-11l-.5-2c-1.2 2-2.7 2.3-4.5 1a21.6 21.6 0 0 0 0-25c1.3-1 2.6-.7 4 .5 5.6 7.3 11.6 14.3 18 21l-4 1a31 31 0 0 0 6.5 7.5c3-4.4 5.2-9.2 6.5-14.5l-.5-1.5c-2 1.9-4.2 2.2-6.5 1a84.2 84.2 0 0 0 6-15.5c-2 .4-3.6 1.6-5 3.5-1-2-1-4 0-6a6.9 6.9 0 0 0-2-3c.9-1.1 1.7-1.1 2.5 0 .7-1.3.6-2.3-.5-3 5.6-4.8 6.3-10.3 2-16.5 1.3-2.7 3-3 5-1 6.1 8 13.1 15 21 21-3.4 1.9-6.6 1.4-9.5-1.5 3.8 5.6 8.3 11 13.5 16 1 1.1 1 2.1 0 3-1-.8-2-1-3-.5 4.7 4.9 10 8.7 16 11.5 1.9-1.2 3.6-.9 5 1a93 93 0 0 0 4.5-18l4-4a4 4 0 0 0 2 1 63 63 0 0 0 18-9c.4-2 1.3-3.8 2.5-5.5-2.6.2-5.3.7-8 1.5-1.5 0-2.5-.6-3-2a50.4 50.4 0 0 0 15.5-16 9.7 9.7 0 0 1-5 3 28 28 0 0 0-7.5-2 48.8 48.8 0 0 0 18-15 34 34 0 0 0-8-1.5 4.3 4.3 0 0 1-3-2.5l11-5.5c2.8-4.6 6.1-8.8 10-12.5l-.5-1c-2.5 2.4-4.8 2.4-7 0-2.9 2.8-5.4 2.5-7.5-1 .9-.8 1.7-.5 2.5 1 4.6-4 8.4-8.4 11.5-13.5-2.2-.3-4.2.2-6 1.5-1.5 0-2.5-.6-3-2 1.9-1 3.4-2.3 4.5-4l12-20a148 148 0 0 0 10.5 27c-.9 2.4-2 2.4-3.5 0l-.5 1.5a22 22 0 0 1 5.5 13.5 24 24 0 0 1-6.5-7l-1 .5c.8 2 1.3 4.2 1.5 6.5l8.5 15-.5 1a13.1 13.1 0 0 1-5-5c-.7.5-1.2 1.2-1.5 2 4 8.9 7.6 17.9 11 27-.5.7-1.2 1.2-2 1.5a8.9 8.9 0 0 1 2 7.5c3.3 2 6.8 3.3 10.5 4 2.3-3.9 3.3-7.9 3-12a18 18 0 0 0 7-14c-2.7 2.9-5.2 3-7.5.5a29.3 29.3 0 0 0 12-17.5l-1-1a18.9 18.9 0 0 1-5.5 7c-1.1-4.5-.1-8.5 3-12 1-4.5 1.8-9 2.5-13.5a33 33 0 0 1-2.5-9.5c4.7 7 9.5 13.8 14.5 20.5-2.3 1-2.4 2.6-.5 4.5 2.2 4 5 7.5 8.5 10.5a5.6 5.6 0 0 1-3 3.5 90.3 90.3 0 0 0 14.5 21c.4 1.7-.1 3.2-1.5 4.5 3.4 8 7 15.8 10.5 23.5a47 47 0 0 0 6.5 5c2-1.7 4.4-2.9 7-3.5 2.9-4.8 6.5-9.3 11-13.5.2 1.9-.5 3.4-2 4.5 4.3-1.7 8.6-3.7 13-6 2.8-.5 5.4-1.4 8-2.5.8-.5 1.1-1.1 1-2 1.5 1.2 2.8 1.2 4 0 2 .3 3.6 0 5-1 2 1 3.3 0 4-2.5l-1-1c.9-6.3 2.6-12.5 5-18.5 3.2-5.4 8.2-9.6 15-12.5 1.1-.8 1.1-1.6 0-2.5 2.2-1.2 2.5-2.9 1-5 12.6-2 25.9-4.7 40-8 12 4.2 24.3 6 37 5.5 10.2-3.1 20.5-5.4 31-7 13.6-4.5 27.3-8.6 41-12.5 3.8-7.9 7.3-15.9 10.5-24 3.5-3.7 7.5-6.7 12-9-1-6 0-11.6 3-17a370.3 370.3 0 0 0 29-24c-3-4.5-5.4-9.5-7-15a20.7 20.7 0 0 1 7.5-20.5 89 89 0 0 1 17.5-9.5c-2.8-10.8 0-20 8.5-27.5-7.5-8.3-8-17.2-1.5-26.5l9.5-9.5c3.1-1.9 6.4-3 10-3.5.6-8.8 3.6-16.6 9-23.5-4.2-10.6-4-21.1.5-31.5 6.4-8.1 14.6-11 24.5-8.5 4.3 2.7 9 4.3 14 5 4.3 5.4 8.4 11 12.5 16.5 3.9 4.2 8 8 12.5 11.5 7 2.5 14 4.8 21 7 7.6 4 15.2 7.6 23 11 7.9 6.9 15.4 14 22.5 21.5 8-1.5 16-2.5 24-3 6 2.1 12.1 3.6 18.5 4.5 9.8 5 19.5 10.4 29 16 10.9 4.3 21.6 9 32 14 5.9 2.9 10 7.4 12.5 13.5l4 16c7.9-18.4 15.2-37 22-56a161 161 0 0 1 11.5-8c1.7-3.2 1-4.4-2-3.5-1-1-1.2-2.2-.5-3.5l5.5-9-1-2a15 15 0 0 0 3.5-6c1-.8 2.2-1.2 3.5-1 1-6.3 3-12.1 6-17.5-1.4-1.6-1-2.3 1-2 1.2 2 1.2 4 0 6 .4 1 1 1.6 2 2a4 4 0 0 0-1 2c2.3 9.8 7 18.3 14 25.5.1 4-1.5 4.8-5 2l-1 1.5c2.5 2.2 4.2 5 5 8.5-2 .7-3.7 1.8-5 3.5 4.5 4 3.8 6.4-2 7a9 9 0 0 0 6 9c-1.2 1.8-.8 3.5 1 5a6.6 6.6 0 0 1-2.5 3.5 3.3 3.3 0 0 0-3.5-2c0 1.4.3 2.8 1 4 2.2 1.3 4.2 2.8 6 4.5 9.4.2 18.7.7 28 1.5 1.7-1.2 3.2-.8 4.5 1a4 4 0 0 0 2-1c4.5 1.4 9 3.1 13.5 5a5 5 0 0 0 2.5-1c6.1 5.1 12 10.6 17.5 16.5a210.9 210.9 0 0 1 30 18c2.3.2 4.4.7 6.5 1.5 8.4-1.7 16.9-3 25.5-4 9.3.6 18.7 1.1 28 1.5 3.8 2.6 7.6 5.1 11.5 7.5l6-6c.4-2.1 1-4.1 2-6l1 1 3-4c.5-1.2 0-2-1.5-2.5 4.7-1.2 8.9-3.4 12.5-6.5 2 1.5 3.5 1.2 4.5-1 4.1-1 8-2.6 11.5-5l1 1c4-1.6 6.4-4.6 7-9 3.5-3.7 5.8-8 7-13 .4.5 1 .8 1.5 1 1.6-.7 3.3-1.2 5-1.5-1.4-2.4-.9-3 1.5-1.5a70 70 0 0 1 14.5-6c1.7 1.5 2.8 1.2 3.5-1l1 1a25 25 0 0 1 7.5-2c.3-4 .7-4 1 0 15.3-1.7 30.6-1.9 46-.5 9.4 3.8 19 5.8 29 6a67.2 67.2 0 0 1 24-10c13-1.3 26-1.8 39-1.5.3-2.5 1-4.8 2.5-7 6-9.3 13.8-16.4 23.5-21.5l6-8a66 66 0 0 0 13.5-10.5c.5-1 .6-2 .5-3 1 .2 2 0 3-.5-1.1-1-1-1.8.5-2.5l1 1a7 7 0 0 1 3.5-2.5c-1.3-1.8-1.2-2.3.5-1.5a6.2 6.2 0 0 1 4.5-4c-.2-.6-.5-1-1-1.5 2.6-2.7 5-5.5 7-8.5-.4-.8-.8-1.6-1-2.5 3.2-4.3 5.5-9 7-14-.5-.4-.8-1-1-1.5.7-5.7 3.7-9.9 9-12.5a81 81 0 0 0 16-7c5.4-.2 10-2 14-5.5-3-1-5.4-2.8-7.5-5a47.1 47.1 0 0 0-6.5-12c1.2-1.2 1.2-2.4 0-3.5 2.7-1.3 2.7-2.7 0-4 1.3-1.5 1.3-3 0-4.5.5-.7 1.2-1.2 2-1.5-1.1-1.6-1.1-3.3 0-5a43.4 43.4 0 0 1-3-5.5c1.9-.7 2.2-1.7 1-3a99 99 0 0 1 19-14c1-.8 1.6-1.8 2-3a255 255 0 0 0 19-12.5c5.4-2.9 11-5 17-6.5 9.2.4 18 .4 26.5 0 4.1.7 8.3 1.2 12.5 1.5 3.2 2.1 6.4 3.6 9.5 4.5l1-1c.9 3 2.5 4 5 3 2.5.6 4.5 2 6 4 8.8 2.3 17.3 5.5 25.5 9.5 8.7.8 17 3 25 6.5a85.2 85.2 0 0 1 16-7Zm-15 178c.8 3.4 1.8 7 3 10.5a5 5 0 0 1-3 .5v-11Zm-3723 22c.7-.1 1.4 0 2 .5a77 77 0 0 1-3.5 7.5 5.5 5.5 0 0 1-1.5-4.5 5.2 5.2 0 0 0 3-3.5Zm797 92c.8.3 1.2 1 1 2a5.8 5.8 0 0 0-2 4c-1.5 1.2-2.8 1.2-4 0l5-6Zm234 7c1 .7 1.7 1.7 2 3-.9-1.1-1.7-1.1-2.5 0-.7-1.3-.6-2.3.5-3Zm96 14c1.8.8 2.3 2.2 1.5 4-.8-1.2-1.3-2.6-1.5-4Zm4 7a3 3 0 0 1 2 2c-1.3 0-2-.7-2-2Zm2 2c.8.3 1.5.8 2 1.5-1.3.5-2 0-2-1.5Zm-52 22c1.3 1 1.8 2.4 1.5 4a4.4 4.4 0 0 1-1.5-4Zm-19 11c1-1.5 2.1-2.8 3.5-4 .2 2.3-1 3.7-3.5 4Zm83 0a3 3 0 0 1 3 1c-1.6 1.3-2.6 1-3-1Zm1311 39 5 6c-1.2 1.2-2.5 1.2-4 0-.2-1.7-.8-3-2-4-.2-1 .2-1.7 1-2Zm-234 7c1 .8 1.2 1.8.5 3-.8-1.1-1.6-1.1-2.5 0 .3-1.3 1-2.3 2-3Zm-97 14c1 1.2.8 2.5-.5 4-.6-1.4-.4-2.8.5-4Zm-851 7c.3-.8.8-1.5 1.5-2 .5 1.3 0 2-1.5 2Zm848 0c0 1.3-.7 2-2 2a3 3 0 0 1 2-2Zm-2 2c0 1.5-.7 2-2 1.5.5-.7 1.2-1.2 2-1.5Zm52 22c.2 1.6-.3 3-1.5 4-.3-1.6.2-3 1.5-4Zm19 11c-2.5-.3-3.7-1.7-3.5-4 1.4 1.2 2.5 2.5 3.5 4Zm-86 0a3 3 0 0 1 3 1c-1.6 1.3-2.6 1-3-1Zm-553 18c.8.3 1.2 1 1 2a5.8 5.8 0 0 0-2 4c-1.5 1.2-2.8 1.2-4 0l5-6Zm234 7c1 .7 1.7 1.7 2 3-.9-1.1-1.7-1.1-2.5 0-.7-1.3-.6-2.3.5-3Zm96 14c1.8.8 2.3 2.2 1.5 4-.8-1.2-1.3-2.6-1.5-4Zm4 7a3 3 0 0 1 2 2c-1.3 0-2-.7-2-2Zm2 2c.8.3 1.5.8 2 1.5-1.3.5-2 0-2-1.5Zm91 19c-1.5 0-2-.7-1.5-2 .7.5 1.2 1.2 1.5 2Zm-143 3c1.3 1 1.8 2.4 1.5 4a4.4 4.4 0 0 1-1.5-4Zm-19 11c1-1.5 2.1-2.8 3.5-4 .2 2.3-1 3.7-3.5 4Zm83 0a3 3 0 0 1 3 1c-1.6 1.3-2.6 1-3-1Zm14 38c3.5 2.3 4 5.3 1.5 9a8 8 0 0 1-1.5-9Z"/><path fill="#fefffe" d="M910.5 1369.5c-.7.7-.7.7 0 0Z"/><path fill="#fefffe" d="M38.5 1385.5c1.3.7 1.3.7 0 0Z" opacity=".4"/><path fill="#fefffe" d="M812.5 1391.5c1.3.7 1.3.7 0 0ZM1376.5 1429.5c-.7.7-.7.7 0 0Z"/><path fill="#fefffe" d="M1084.5 1434.5c1.3.7 1.3.7 0 0ZM638.5 1457.5c-.7-1.3-.7-1.3 0 0Z" opacity=".1"/><path fill="#fefffe" d="M4640.5 1461.5c-.7-1.3-.7-1.3 0 0Z"/><path fill="#fefffe" d="M146.5 1478.5c-.2-2 0-4 .5-6 .3 1.6.8 3.1 1.5 4.5-.5.7-1.2 1.2-2 1.5Z" opacity=".8"/><path fill="#fefffe" d="M1194.5 1477.5c1.3.7 1.3.7 0 0Z"/><path fill="#fefffe" d="M146.5 1478.5c1.2 1.5 1.2 2.8 0 4-.9-1.5-.9-2.9 0-4ZM1192.5 1479.5c.3-.8 1-1.2 2-1-.3.8-1 1.2-2 1Z" opacity=".8"/><path fill="#fefffe" d="M146.5 1482.5c.3 2.2 0 4.2-1 6-.3-2.2 0-4.2 1-6Z" opacity=".9"/><path fill="#fefffe" d="M129.5 1484.5c1.3.7 1.3.7 0 0Z"/><path fill="#fefffe" d="M129.5 1485.5v1c-.7-.5-.7-.8 0-1Z" opacity=".2"/><path fill="#fefffe" d="M1550.5 1494.5c1.3.7 1.3.7 0 0Z" opacity=".1"/><path fill="#fefffe" d="M528.5 1500.5c-.7-1.3-.7-1.3 0 0Z"/><path fill="#fefffe" d="M528.5 1500.5c1-.2 1.7.2 2 1-1 .2-1.7-.2-2-1Z" opacity=".8"/><path fill="#fefffe" d="M2145.5 1507.5c.4-1 1-1.2 2-.5-.6.5-1.3.6-2 .5Z" opacity=".2"/><path fill="#fefffe" d="M198.5 1519.5c1.3.7 1.3.7 0 0Z"/><path fill="#fefffe" d="M2179.5 1541.5c.2-1-.2-1.7-1-2 .7-2 1.8-3.7 3.5-5-.3 2.5-1.1 4.9-2.5 7Z" opacity=".8"/><path fill="#fefffe" d="M1660.5 1537.5c1.3.7 1.3.7 0 0Z"/><path fill="#fefffe" d="M1658.5 1539.5c.3-.8 1-1.2 2-1-.3.8-1 1.2-2 1Z" opacity=".8"/><path fill="#fefffe" d="M2169.5 1542.5c1.3.7 1.3.7 0 0ZM2169.5 1543.5c-.7.7-.7.7 0 0ZM2196.5 1550.5c-1-.4-1.2-1-.5-2 .5.6.6 1.3.5 2ZM2196.5 1550.5c.7 0 1 .3 1 1l-1-1Z"/><path fill="#fefffe" d="M2516.5 1584.5c1.3.7 1.3.7 0 0Z" opacity=".1"/><path fill="#fefffe" d="M3870.5 1609.5c-.7.1-1.4 0-2-.5 1-.7 1.6-.5 2 .5Z" opacity=".2"/><path fill="#fefffe" d="M3837.5 1641.5c-.8.3-1.2 1-1 2a15.5 15.5 0 0 1-2.5-7c1.7 1.3 2.8 3 3.5 5Z" opacity=".8"/><path fill="#fefffe" d="M3846.5 1645.5c-.7-1.3-.7-1.3 0 0ZM3846.5 1645.5c.7 0 1 .3 1 1l-1-1ZM3819.5 1652.5c-.1-.7 0-1.4.5-2 .7 1 .5 1.6-.5 2ZM3819.5 1652.5c-.7.7-.7.7 0 0ZM2677.5 1664.5c1.3.7 1.3.7 0 0Z"/><path fill="#fefffe" d="M2683.5 1687.5c.8-1 1.8-1.2 3-.5a5 5 0 0 1-3 .5Z" opacity=".5"/><path fill="#fefffe" d="M3499.5 1687.5c-.7-1.3-.7-1.3 0 0Z" opacity=".1"/><path fill="#fefffe" d="M2680.5 1688.5c.7-.9 1.7-1.2 3-1-.7.9-1.7 1.2-3 1Z"/><path fill="#fefffe" d="M2900.5 1690.5c.4-1 1-1.2 2-.5-.6.5-1.3.6-2 .5Z" opacity=".2"/><path fill="#fefffe" d="M2934.5 1724.5c.2-1-.2-1.7-1-2 .7-2 1.8-3.7 3.5-5-.3 2.5-1.1 4.9-2.5 7Z" opacity=".8"/><path fill="#fefffe" d="M2924.5 1725.5c1.3.7 1.3.7 0 0ZM2924.5 1726.5c-.7.7-.7.7 0 0ZM2951.5 1733.5c-1-.4-1.2-1-.5-2 .5.6.6 1.3.5 2ZM2951.5 1733.5c.7 0 1 .3 1 1l-1-1ZM3338.5 1767.5c-.7-1.3-.7-1.3 0 0Z"/><path fill="#fefffe" d="M3271.5 1767.5c1.3.7 1.3.7 0 0Z" opacity=".1"/><path fill="#fefffe" d="M3332.5 1789.5c-1 .2-2 0-3-.5 1.3-.7 2.3-.6 3 .5Z" opacity=".5"/><path fill="#fefffe" d="M3332.5 1789.5c1.3-.2 2.3.1 3 1-1.3.2-2.3-.1-3-1Z"/></svg>