<svg xmlns="http://www.w3.org/2000/svg" width="5120" height="2880" fill-rule="evenodd" clip-rule="evenodd" image-rendering="optimizeQuality" shape-rendering="geometricPrecision" text-rendering="geometricPrecision"><path fill="#fefffe" d="M3799 1138c-2-1-3-2-3-4l5-4 1 2c-2 1-3 3-3 6ZM3822 1134l1 4c-2-2-2-3-1-4ZM3799 1138c1 0 2 0 1 2l-1-2Z" opacity=".1"/><path fill="#fefffe" d="M3796 1142c1 0 1 0 0 0ZM3796 1143v1-1Z" opacity=".2"/><path fill="#fefffe" d="M3828 1147c1 0 1 0 0 0Z" opacity=".1"/><path fill="#5d1814" d="M4284 1400c-1-1-2 0-3 1l-2 4c-1-2-1-2-2 0l-3 5h-3l1 2c-3 1-5 0-6-1l4-3-1-2a5494 5494 0 0 1 20-32l3-2 5-10c2 12 6 24 12 36l-1 1c2 2 3 5 3 8l4 10-3 3c-3-3-6-7-7-11 1 10 6 19 13 28l4 8-2 3c-1-2-2-2-3 0l-3-3 1-1-4-6c-1-2-2-3-3-2 0 4 1 7 4 11l3 1-1 2 5 10-1 1 3 2-1 8c-1-2-3-2-4-1l10 17c-2 0-3 1-4 3-1-2-3-3-4-2v7c-3 0-4 1-2 3l-2 2v8c4 15 14 25 29 32l39 39c8 3 17 3 27 1 11-4 22-6 34-6l19-5 4-5c3-11 6-22 11-32 2-3 4-5 7-5l92-12c3 2 5 2 8-1 2 1 5 0 7-1a521 521 0 0 0 45 8l2-1 13 4 12-11 4-1 11-10c1-2 3-3 6-3a1677 1677 0 0 0 4-12l23-19c0-7-4-12-10-14-2-1-2-2-2-3a1301 1301 0 0 1 9-59c21-12 43-20 67-24l70-1a13411 13411 0 0 0 18 13c7 2 12 6 17 12l3 1c-1 1 0 3 1 5l6 8 8 5-1 1 11 6c1-2 2-1 3 1 8 2 15 0 21-7l14-8c3 0 6-2 7-5l7 4 1-1 8 2 2 2 5 2c3-4 7-6 11-6 2 1 3 0 4-1h10c2-2 5-3 8-3l35-1c8-2 15-7 19-15l4-14 21-41c-3-7-3-13 0-20l-2-2 6-34c8-8 18-15 28-22v1631H0V1622c2-2 2-4 0-5v-118l9-2h5c3 2 5 2 7 0 6 1 11 2 17 1 5 1 10 4 14 8l30 10a888 888 0 0 0 23 34l13 10h4l-1-1 3-15-1-1a365 365 0 0 1 5-25v-15l2-1-1-9c2-2 2-4 1-7l2-2-1-7c2-4 2-8 0-11v-7l2-4-1-8c1-2 2-4 1-6l1-15 3 17c0-9 2-18 5-26-2-2-2-3 1-4-2-2-1-3 1-4l2 5 2-11-1-4 2-3v7l3-1a586 586 0 0 1-1 31v19c-2 2-2 5-1 8l-4 20 1 2-4 26 1 1c-2 10-3 21-3 31l1 1-2 8v23h4c1 1 2 2 3 1l4 2c4 6 9 11 15 16-1 2-1 4 1 7l13 9a835 835 0 0 1 52 14c35 5 71 6 107 1 18-10 38-18 59-23-2-1-2-1 0-2l6-3 5-1c1 1 2 0 2-2l2 1a873 873 0 0 0 23-13l2 2c1-2 3-2 4 0 14 9 26 19 37 32v-8c2-4 4-8 8-10v-4c1-5 4-9 7-13l2-7-2-2-9 15-2-2 11-29-2-4 11-22-2-1-11 12c-1-2-2-4-1-6l7-11c6-12 10-25 13-37-2 1-4 3-4 7l-3 1 2 1c-3 1-4 3-4 6l-3 4v-2l20-44c3 2 3 6 2 10l5 15 9 11-3 2-6-5-1 2 15 20-1 2-8-5-1 2c0-2-1-2-2-2 3 7 8 13 14 18l1 3h-5l2 10-5-2c0 4 3 7 7 9l-1 1 6 5 4 1-2 4c-6-2-10-5-14-8v1c4 4 8 10 11 16l-2 5c-2-1-4-1-5 1 3 5 7 9 13 12 3-4 7-7 12-9 6-1 11-4 17-6l2 1c1-2 2-3 4-3h6l6 3v2l4 3-1 1 4 3h43c13-9 28-15 44-19l31-1 21-4 11 1 3 3 42-5c8-10 18-16 31-19l5-14 9-9c7-18 18-34 32-47l22-13 6-1 13 1 7-2c6-5 13-9 21-11l10-22c1-1 2-2 4-1l4-10 10-11 1 1c4-4 8-4 13-1l2-3c5 1 10 0 15-2l2 1 6-2c0-2 1-4 3-5l16 2 3-3 3-9-1-2-3 3c-2-1-3-2-4-1l12-21-1-1-5 5c-2-1-3-2-2-4 1-5 3-9 6-13 1-10 3-19 6-27l4 7c0 9 4 17 11 23-2 2-3 4-3 7l11 6 6-14c2-5 6-8 11-9 4-5 9-9 16-11l1 1c8-7 17-11 27-12l20 1 9-2 10 4c3 3 6 5 11 5 1 2 4 3 7 2-1 2-1 3 2 4 2-2 4-2 7-1v4c1-1 2-2 3-1l7 7c2-1 2-1 1 1h5l2 2 7-3 1 1c10-8 22-12 35-14l3 1 1-2c2 3 4 3 7 1l2 1a685 685 0 0 1 61-17l4-2c7-8 15-16 24-23 7-4 15-6 23-5a462 462 0 0 1 31-5h14c9 0 18 2 27 6 2-2 5-1 9 0l-1 2c14 6 20 18 18 34l-1 13c7 4 13 11 17 19 2 7 2 15-1 23l12 13c5 2 10 5 13 10 6 7 10 16 11 26l-1 7c5 7 7 15 7 24 4 7 6 16 5 25 9 2 19 5 28 10 11-14 24-16 39-7l16 16 8 15c7 15 11 31 10 48 12 3 21 10 28 21 7-5 15-6 24-5 13 5 18 14 16 28l-6 12c2 2 5 4 9 5 17-4 28 2 32 20 10 4 18 11 24 20l24 1c2 0 3 1 5 3l1-6c3-3 7-6 12-7 1-4 3-6 7-8h27l5 5c2-1 5-2 7-5 6-3 13-4 21-3l7 9 8 1 29-4c0-3 2-5 5-6l15-1c-1-3 0-5 2-6l7-1c0-5 2-6 7-5-1-2 0-4 2-5l8-4-17-1c-2-2-3-4-2-6 2-3 5-4 8-5l3-5-10-1c-2-2-3-5-2-7l7-9c-6-1-9-4-7-9l5-5c3-8 4-15 5-22l3-2 9 21 10 8-4 2 1 1-3 6 18 11c-2 2-3 3-5 3 0 2 1 4 4 6l22 7c4 6 8 13 11 21l11 11 6-23c4-3 7-6 9-10-5 4-7 3-6-3l9-11c-2 0-4 0-5 2-1-1-2-1-2-3 6-9 10-19 12-28h4l3 19c2 3 5 6 9 8-4 3-7 3-10 0-1 3 0 6 3 10l6 5-1 4-7-1c-2 2-1 4 2 6 4 1 8 4 11 8-3 2-5 3-8 3 5 3 10 7 15 13h6c0-2 1-4 3-5-2-2-4-2-5 0l-1-2 10-10-3-3v-4l5-8 3-2 5-9h-2l-8 7-4-3c2-5 6-10 10-14l-1-1-3 3 1-9c7-12 11-25 13-37l1-1c2 4 3 8 3 13l2-1 2 11 8 12 1 3 7 1-2 4-7-1 11 13 2 5-2 3 8 6-5 3c-3-2-6-2-9-1 3 4 7 8 13 11l5-5c1-1 2 0 3 2 8-5 7-7-1-5l-2-2 14-17v-2h-3l-2-4 6-6 8-13-7 5c-2-2-3-3-3-5 7-11 13-22 18-34-5 3-9 8-13 13l-4 1 24-39c0-1 1-1 2 1-2 2-2 5 0 8 1-1 2-1 4 1-2 4-2 8 0 13l10 16h-5l-5-5c-1-2-2-2-2 0 4 9 9 17 16 25l-4 5-10-10v1c3 8 8 15 14 22l-1 1-8-4c3 7 7 13 12 18 0 2-1 4-3 4l2 2c-1 1-2 2-1 3 3 1 5 4 8 7-5 1-9 0-12-4-1 1-1 3 1 4l10 4 1 1-4 1c3 1 5 3 6 7h-3l5 6 42 20c2 2 4 5 4 8l-3 16h-5c-2 2-2 4 2 6l7-3c1 5 4 8 10 10l3 4-6 13 22 9c3 4 8 7 13 9l20 2c1-2 2-3 5-4-3-2-3-3 1-1 1-2 1-3-1-4-7 1-7 0-1-3l-1-5 2-3h3l-1-3-4 1v-3c7-5 12-10 17-16l-2-2v-2l-9 2 17-14 4-7c-4 1-6 3-8 6-1 1-2 0-2-1l15-30c-1-2-1-2-2 0l-8 9-2-2c7-8 13-16 18-25 2-2 4-1 5 2 0 11 4 21 11 30l-7-4 6 11h-2l-7-7 1 7c2-1 3 0 3 3 2 5 5 9 10 13v3c-1-2-2-2-2 0l1 1c-2 1-3 3-3 5 5 3 9 8 13 13 9 6 9 7-2 4l-1 1c2 2 4 4 8 5-2 0-3 1-4 3-1-2-2-2-3-1 3 1 5 3 6 5l-2 4 3 4h3c3 3 3 6 1 10 1 4 4 6 8 6v5l20-6 9-11 5-1 3-6-2-1c-1 1-2 2-3 1l6-7-2-1c-4 0-6 2-8 6v-2l11-14 5-11c-1-2-2-2-2 0l-10 11-2-2 11-18c-4 1-6 3-8 6-2 1-3 0-4-1l9-9 13-38c1-3 2-3 3 0-3 17 2 31 16 42-4 0-8-1-10-3 1 3 4 6 7 8-2 1-2 2 0 3h-6c3 5 8 8 15 9l-7 3-10-5c2 6 6 9 12 10 5 3 4 5-1 5l-2 5 6 6 38-9c19-1 39-2 59-1 3 7 8 13 13 20-5 8-7 18-7 28l-7 19 13 12 7 11 22 4 6 6c9 4 17 9 24 17 4-5 9-8 15-10l25-8c15-1 30 0 46 1l37-5 5-3-1-2c-5-1-10 0-15 1-5-2-10-4-14-4l9-3v-8h18c13-6 12-9-1-9l10-3-2-4c-5 2-10 2-15 2 3-4 2-5-3-1h-13l-5-4v-3l12-1 6-4c3 0 6-1 9-4l-5-1h3c0-5-1-10-4-13l14-5 5-5c-5 0-10 1-14 3l-1-1c2-4 5-6 8-8 1-2 0-4-1-4 1-2 1-3-1-3h-8l6-5 1-3h-13l2-1 2-4c2 1 4 0 7-1l15-10c2-2 2-3 0-4l-10 3-1-3 7-4c-2-2-3-3-5-3-1-1 0-2 1-3l15-3c2-1 3-2 2-4l18-9-1-1-7 2c-6 4-13 7-19 9-3-2-3-5-3-7 3 2 6 2 9-1v-2l-8 1 2-4 14-10h3c6-8 6-9-2-3l-13 5c-2-1-3-2-1-4l12-6c-4 0-7 0-10 2l-3-2 9-2c2-2 4-3 7-3l7-6 2-3-9 4c-3-3-3-5 1-7v-2l-9 4c5-6 11-11 17-15l5-8c-1-2-2-2-2-1-5 6-11 9-18 10l12-11-9 3-2-1c1-1 3-2 5-1l1-7-5 2-1-2 11-7c-3-2-5-2-7 0l-1-2 16-10c1-4 0-4-1-1l-3-2 14-13-3-1-3 3-7 4c0-3 2-5 4-6-3-2-3-3 0-5-2-2-3-2-4 1l-3-1 5-4 2-3h2c1-3 2-5 5-7l-1-2c2-1 3-2 2-4l2-1c1-2 0-3-2-4-4 3-4 3-1-2l5-7-1-1 3-9c2 0 2 0 2 2 1 2 2 2 3 0l2 4-1 2-2-2-4 7c1 2 1 2 2 0 2 0 3 0 5-2-2-1-1-2 0-2 2 2 2 5 2 8l5 5c-2 1-4 2-5 1-2 0-2 1-1 3l10 12 1 7 4 3c-3 1-5 3-6 6-1-3-2-3-3 0l3 3c-2 1-1 2 2 2v7c5 1 9 5 12 10-6 0-11-2-14-6l5-1c-1-2-2-2-3 0l-3-2v2h-4l12 10 1 5c-4 0-4 1-1 4l-1 1c-3-2-5-2-7 1-1-2-3-2-4-1 6 6 14 11 24 14l-2 2h-6l-4-2-6-2-1 4 15 12c-2 1-4 2-6 1l-11-4c-2 1-2 2-2 4l2 6c2 1 4 3 5 6 5 2 9 6 14 10l-8 2 5 5h-9c0 2 2 3 5 3l4 4c1-2 1-2 2 0 1 3 0 5-2 7 4 0 5 2 1 4l-5 1 3 3 3-2 6 4 8 2 2 2-5 4c2 1 1 3-1 4l-5 1c1 2 0 3-2 5-1 1-1 2 1 3l3-2h4l-4 6c-4 3-9 6-12 10 1 2 4 4 7 5l-1 1 9-1c-6 7-13 12-20 17 2 2 4 2 7 0 10 2 21 2 32 0l19-5v-3l-7 4-1-5 6-2c3 2 4 2 3-1l3 2v-3l12-3c2-1 3-3 1-5l-6 3c-1-1-2-3-1-4l-9 1v3l-6-4h3v-5c1-1 2-2 1-4l2-3 4-3c-3-2-4-4-3-6l4-2c13-2 26-6 38-12 0-3 2-6 4-8l-2-1c-4 1-6 3-8 6-5 1-9 3-12 6-2-3-4-4-7-3h-9l-3 2c-2-6-5-9-9-12 2 0 5 0 8 2l6-3 5 3h7l8-5h3l10-7v-2c-3 1-6 2-7 4l-7 2c-1-1-3-1-4 1l-3-2 8-6-2-1-7 3-12-2-5-6-3-3 1-1 8 3c-2 1-1 2 2 2h4c2-2 4-2 6-1l18-12-1-1c-7 4-15 7-23 8l-4-3 11-3 1-2c-5 0-10-2-14-4 2-1 4-1 6 1 3-2 7-3 11-3l3-2 1 1c3-4 7-6 11-8l3-6-3-3c-6 3-12 4-18 3l-2-2 17-7 4-6-2-1c-5 0-10 1-14 3l-4-2c1-1 1-2-1-2-4 1-7 0-9-3 2-3 5-3 8 0l8-2-3-2c-6 0-11-2-14-6l12 3c12-1 23-6 31-15-1-2-1-4 1-5l-3-3-14 6-13-2 9-2c0 1 1 2 3 1l-1-1h3v-3c-2-1-4 0-5 1l-4-1-1-3c1-1 3 0 5 1 2-2 4-2 7-1l3-3-11-2v-3l15 2 9-6c-2-2-3-1-4 1-14-4-13-5 1-5 3-2 4-5 4-9h-19l-6-2-1 1-5-3 1-1h14l-1-4c-4 0-7-1-9-3 2-1 2-2-1-1-1-2 0-3 1-4l3 3 6 2 1-2 5 1c3-3 5-4 9-5l4-6-2-1c-5 3-7 1-6-4 6-2 11-6 15-12 4 1 7 4 11 8l7 5c1 1 0 3-1 4-5 1-8 0-12-1v1l3 5v7l10 14h-5l-10-9c0 8 3 14 10 20 1-2 3-1 4 1 2-2 3-1 5 1l1-2 6 2-10 4-6-1c-1 2-1 3 3 4-4 2-7 2-10-1l-2 2v7c2 3 5 6 10 7-1 2 0 3 3 4l10-1-5 3-11 2c3 2 6 4 11 5l-5 4c-2-2-4-2-5 0 5 7 12 13 22 15v5l-22 2 10 8c4 2 8 3 13 3 1 3 0 5-3 5 1 3 1 5-2 6-3-1-5-3-6-5l-11-3v2l18 17c7 2 14 3 22 3 1 2 1 4-1 5l-16 4-14-2 2 5c9 3 20 6 30 7 1 2 0 4-2 5l-20 3c6 6 9 13 10 22 6 0 9 3 11 10l13-10c5-3 12-3 18-1l8-4v-3l2-4-8 2-5 4h-4v-6c3 0 5-1 7-3l-5-1-6-5 16 3c2-4 4-6 8-8l-8-1 7-4c-2-2-3-2-4 0l-6-3c1-2 3-3 6-1 9-1 16-6 20-14l-2-1-17 11-2-1 1-5c-4-1-7 0-9 2l-1-1 22-15v-3c-3-1-6-2-8-1v-3h-5v-5c15-7 26-19 31-36l-5 5h-3c3-5 6-10 11-14l6-14h3c0-7 1-7 3-1-2 6-1 13 2 19-1 2 0 4 2 6l-1 1c0 3 2 6 4 9l-2 2c-1-2-2-2-3 0l9 17-2 1-9-12c0 7 4 12 10 17l-1 2c5 1 7 3 7 9l-10-1-1 5 3 5-5 1c15 16 13 18-4 4l-1 1 3 6c6 2 12 6 17 11 3-5 5-10 6-16 5-5 6-10 4-15l-3-1 2-1 5-11 14-16c2-24 6-47 12-69 4-6 10-11 15-16l2-6c4-1 8-3 10-7-1-1-2-2-1-3 5 2 6 1 1-3v-4h5c-3-4-1-8 3-9a681 681 0 0 0 12-48c-2-2-4-4-4-6 2-5 4-10 8-14-4-3-7-7-9-11l5-11 73-33 18-5 14-6 14-13h1l2-1 4-7 2 5 14-9c-2-1-3-1-4 1-1-1 0-2 1-3h-2v-3l1 1 2-3 4 3h4c6-4 13-8 21-10v-3c1-1 2-2 4 0 2-1 2-3 2-4l1-2 1 1 4-4c-2-2-2-5 1-6l1 2c1-2 2-3 4-3l14-17 2-11v5c9-6 17-13 24-21l26-9c7 0 14-3 19-9-3-5-3-10 1-14l-1-1 6-13 19-4c2-4 6-8 11-10l36-11c1-1 3-3 6-3 4-7 8-13 14-18 1-1 3-1 4 1 1-4 4-7 8-9 10-5 21-9 32-12 12 1 23 2 35 5 10-7 19-5 27 5 2-2 5-2 7 1 3-2 5-2 7 1 8-2 14 0 19 7 7 1 14 4 21 9 10 8 18 18 26 29l7 3 7-1c1 0 2 1 2 3l11-4c1-3 2-3 3 0 2-2 4-3 7-3 12-3 22 0 30 9h5c1 2 2 2 3 0l2 4h5v3l5-1c4 3 7 3 12 1l2 1c4-4 8-5 14-4l12-7c3 0 6 0 10 2 1-2 2-1 3 1l19-2 2 1c8-3 15-2 22 2 7-1 14-1 21 1 13 4 27 7 41 9l4 4 1-1 8 11v4l2-1 6 15 7 15c2 3 4 7 8 10l10 31c8 13 19 25 32 34l28 11 2-1 8 5 1-1c1 2 2 3 4 2 0 2 2 3 4 2l10 5c2 0 4 2 5 4l1-1 4 4 2-2 5 3c1-2 3-2 5 0h-3c2 2 5 2 8 1l3 3c1-1 3-2 5-1l11 8 1-1 4 11c-3 2-3 4 0 7l-4 10 3 3c-2 1-2 2 0 3l-2 1c0 2 1 3 3 4v7c1 2 2 3 5 3l-1 2 17 9c-1 1 0 2 1 3l4 2 1-1 3 3 4-1 1-3h4c-1-2 0-4 2-5l-5-2-2 3-1-2 16-19 4-9h3c-1-3 0-6 3-7-2-2-1-3 1-3l4-7 1-7Zm14-20c2 1 3 2 1 4-1-2-2-3-1-4Zm448 0c1 0 2 0 1 2l-1-2Zm-462 20 1-2c1 1 0 1-1 2Zm429 5 2 1c-2 1-2 0-2-1Zm-4567 9h3v3h-3v-3Zm-4 31c2 0 2 0 0 2v-2Zm367 36c2 0 2 0 0 2v-2Zm2344 56h1v3c-1-1-2-2-1-3Zm131 4c2 0 2 0 0 2v-2Zm-4 1h3c-3 2-6 2-8 1l5-1Zm-140 23c2 0 2 0 1 2-1-1-2-1-1-2Zm-2335 2c1 1 1 2-1 4-1-2 0-3 1-4Zm1672 0-2 3c-1-2 0-3 2-3Zm791 10v-2 2Zm-5 1c1-1 3-2 5-1v3h-3c0-2-1-2-2-2Zm0 2h2l1 1c-2 1-3 0-3-1Zm-101 10-1-1v-2l3 2c1-2 2-2 3 0l-5 1Zm143 6-2-2c1-1 1 0 2 2Zm-841 15c0-2 1-3 2-3 1 1 0 2-2 3Zm667-3v2-2Zm-2350 3c3-1 3 0 1 2l-1-2Zm2344 25c0-2 0-3 2-1l-2 1Zm147 8v3c-2-1-2-2 0-3Zm-607 13c2 0 2 1 0 3-1 1-2 2-3 1l3-4Zm443 13c1 0 2 0 1 2l-1-2Zm321 6c5 3 10 6 17 7 1 4 0 7-3 10l-1-4-4 4-7-10-2-7Zm-650 7-2-2c1-1 1 0 2 2Zm341 2c0-2 1-3 3-2l-3 2Zm114-1 2 1c-3 1-3 1-2-1Zm-548 2 2 1c-2 1-2 0-2-1Zm706 11c1 0 2 0 1 2l-1-2Zm-122 12v7l-9 3-2-3 11-7Zm-488 16 4 3c-3 1-5 0-4-3Zm84 22v2-2Z"/><path fill="#fefffe" d="m3819 1191 3 1c-2 1-3 0-3-1ZM3824 1196v-2 2ZM3824 1199v4-4ZM3441 1285v-13 13Z" opacity=".1"/><path fill="#fefffe" d="M1179 1319c1 0 1 0 0 0ZM1198 1327c1 0 1 0 0 0Z"/><path fill="#fefffe" d="M3357 1356c2-1 2 0 1 2h-1v-2Z" opacity=".2"/><path fill="#fefffe" d="M152 1402c-2-1-2-2-1-2l1 2Z"/><path fill="#fefffe" d="m2851 1528-2 2c-1-2 0-2 2-2Z" opacity=".7"/><path fill="#fefffe" d="M2838 1537c-1-2-1-2 0 0Z"/><path fill="#fefffe" d="M2834 1542c1 0 1 0 0 0Z" opacity=".3"/><path fill="#fefffe" d="M2841 1543c-1-2-1-2 0 0ZM2833 1544c-1-2-1-2 0 0Z"/><path fill="#fefffe" d="M2833 1544h3-3Z" opacity=".8"/><path fill="#fefffe" d="M2858 1544c1 0 1 0 0 0Z" opacity=".7"/><path fill="#fefffe" d="M2860 1545c0-2 1-2 2-1l-2 1Z" opacity=".5"/><path fill="#fefffe" d="M2860 1547c0-2 1-2 2-1l-2 1Z" opacity=".3"/><path fill="#fefffe" d="M2829 1560c-1-2-1-2 0 0ZM2959 1566c-2-1-2-2-1-3l1 3ZM2822 1564c1 0 1 0 0 0ZM2959 1566c1 0 1 0 0 0ZM2834 1571c1 0 1 0 0 0Z"/><path fill="#fefffe" d="M2827 1575v1l-2 2c-1-2 0-3 2-3Z" opacity=".9"/><path fill="#fefffe" d="M2827 1576c1 0 1 0 0 0Z"/><path fill="#fefffe" d="M2963 1578c1 0 2 0 2 2h-2v-2Z" opacity=".9"/><path fill="#fefffe" d="M2950 1626c-1-2-1-2 0 0ZM2808 1635c-1 0-1 0 0 0ZM2807 1636c-1 0-1 0 0 0ZM2938 1645c-1 0-1 0 0 0Z"/><path fill="#fefffe" d="m3158 1650-4-1c1-1 2-1 4 1Z" opacity=".9"/><path fill="#fefffe" d="M2938 1660c1 0 1 0 0 0Z"/><path fill="#fefffe" d="m2932 1662-3 4-1-2c0-2 2-3 4-2Z" opacity=".9"/><path fill="#fefffe" d="M2949 1670c-1 0-1 0 0 0ZM3087 1670l-2 2c-1-2 0-2 2-2Z"/><path fill="#fefffe" d="M2948 1671h-2 2Z" opacity=".6"/><path fill="#fefffe" d="M2285 1695c1 0 1 0 0 0ZM2285 1696c-1 0-1 0 0 0ZM2283 1698c1 0 1 0 0 0ZM2790 1700h-2 2ZM3073 1704h-2 2ZM2890 1708c1 0 1 0 0 0ZM2890 1709c-1 0-1 0 0 0Z"/><path fill="#fefffe" d="M2776 1716c-2-1-2-2-1-2l1 2Z" opacity=".6"/><path fill="#fefffe" d="M2924 1721c-1-2-1-2 0 0Z"/><path fill="#fefffe" d="M2780 1725c-1 2-2 2-3 0h3Z" opacity=".9"/><path fill="#fefffe" d="M2789 1728c-1 0-1 0 0 0ZM2788 1729c-1 0-1 0 0 0ZM2927 1730v2-2Z"/><path fill="#fefffe" d="M2919 1732c-1-2-1-2 0 0Z" opacity=".3"/><path fill="#fefffe" d="m2919 1732 1 1-1-1Z" opacity=".7"/><path fill="#fefffe" d="m2920 1733 1 1-1-1Z"/><path fill="#fefffe" d="M2926 1735c-2-1-3-1-2-2l2 2ZM2921 1734c1 0 1 0 0 0Z" opacity=".5"/><path fill="#fefffe" d="m2926 1735 1 1-1-1Z"/><path fill="#fefffe" d="M2924 1737c-1-2-1-2 0 0Z" opacity=".5"/><path fill="#fefffe" d="M2917 1738c-1-2-1-2 0 0Z" opacity=".3"/><path fill="#fefffe" d="m2917 1738 1 1-1-1Z"/><path fill="#fefffe" d="M2762 1778h-2 2Z" opacity=".6"/><path fill="#fefffe" d="M2768 1793c-1-2-1-2 0 0Z" opacity=".7"/><path fill="#fefffe" d="m2757 1803-2-1c0-1 1-1 2 1Z" opacity=".9"/><path fill="#fefffe" d="m2757 1803 2 1-2-1Z"/></svg>