<svg xmlns="http://www.w3.org/2000/svg" width="5120" height="2880" fill-rule="evenodd" clip-rule="evenodd" image-rendering="optimizeQuality" shape-rendering="geometricPrecision" text-rendering="geometricPrecision"><path fill="#d46c1a" d="m2600 1520 1 1-1 1c6 3 11 7 16 13l12 21 2 1c5-2 9-2 14 0l5-17 9 9c1 6 5 9 12 7l8-11 1-12c5 0 8 3 8 10l5 4c1 5 4 9 10 11 5-1 7-4 7-9l6-11c1-4 3-5 7-3l3 5c0 3 2 6 4 9l7-3 21 2 2-3v-13c1-4 3-5 6-1 1 4 4 7 7 10l5-6h3c3 5 6 4 9-1 1-1 2-2 4-1v15c3 2 5 2 8-2 3-1 6-1 9 1l4-5h4c5 6 12 7 19 4 2 0 4 0 5 2l13-7 2 1v-5l3-6c1-1 3 0 5 1l4 9 4 3c5-1 10 0 16 1l5-17 9 9c1 6 5 9 12 7l8-11 1-12c5 0 8 3 8 10l5 4c1 4 3 7 7 10 7 2 10-1 10-8l6-11c1-4 3-5 7-3l3 5c0 3 2 6 4 9l7-3 21 2 2-3-2-11 4-5 13-10 2-6v-15l-3-6a525 525 0 0 0 62-23l28-19 2-4 4 2 9 2 73-3v-5h5v22c17-1 34 0 51 2 13 5 22 14 27 28l7 34c8 7 14 15 19 25l2 32 14-1c7 0 14 1 20 5v-4l5-1 1-9c1-2 2-3 4-3 2 2 3 5 4 9 6-1 13-3 19-7 2-1 4 0 6 1l6-3c2 0 4 2 5 4l11-16c1-2 1-2 2 0 1-4 2-5 6-5v-3l6-2c0-6 0-11-2-16l2-2h3l3 2 4 9 2-4c2-1 5 0 8 2l5-4c3-1 6-1 9 1l4-5h4c5 6 12 7 19 4 2 0 4 0 5 2l13-7 2 1v-5l3-6c1-1 3 0 5 1l4 9 4 3c5-1 10 0 16 1l5-17 9 9c1 6 5 9 12 7l8-11 1-12c5 0 8 3 8 10l5 4c1 4 3 7 7 10 7 2 10-1 10-8l6-11c1-4 3-5 7-3l3 5c0 3 2 6 4 9l7-3 21 2-1-2 3-1v-13c1-4 3-5 6-1l7 10 5-6c2 0 4 1 6 4l8-6 4 3 6-3c2 0 4 2 5 4l11-16c1-2 1-2 2 0 1-4 2-5 6-5v-3l6-2c0-6 0-11-2-16l2-2h3l3 2 4 9 2-4c2-1 5 0 8 2l5-4c3-1 6-1 9 1l4-5h4c5 6 12 7 19 4 2 0 4 0 5 2l13-7 2 1v-5l3-6c1-1 3 0 5 1l4 9 4 3c5-1 10 0 16 1l5-17 9 9c1 6 5 9 12 7l8-11 1-12c5 0 8 3 8 10l5 4c1 5 4 9 10 11 5-1 7-4 7-9l6-11c1-4 3-5 7-3l3 5c0 3 2 6 4 9l7-3 21 2 2-3v-13c1-4 3-5 6-1 0 4 2 5 5 2l-2-2v-5l5-1 1-9c1-2 2-3 4-3 2 2 3 5 4 9 6-1 13-3 19-7 2-1 4 0 6 1l6-3c2 0 4 2 5 4l11-16c1-2 1-2 2 0 1-4 2-5 6-5v-3l6-2c0-6 0-11-2-16l2-2h3l3 2 4 9 2-4c2-1 5 0 8 2l5-4c3-1 6-1 9 1l4-5h4c5 6 12 7 19 4 2 0 4 0 5 2l13-7 2 1v-5l3-6c1-1 3 0 5 1l4 9 4 3c5-1 10 0 16 1l5-17 9 9c1 6 5 9 12 7l8-11 1-12c5 0 8 3 8 10l5 4c1 4 3 7 7 10 7 2 10-1 10-8l6-11c1-4 3-5 7-3l3 5c0 3 2 6 4 9l7-3 21 2 2-3v-13c1-4 3-5 6-1 1 4 4 7 7 10l6-7 1-20c1-1 2 0 4 1 2 5 5 6 9 1h3l4 6 8-10c2-4 4-3 6 1v13c0 3 2 4 5 4l17-3 8 3 3-9 4-5c3-2 5-1 6 3l8 18c4 2 7 2 11 0l4-9c5-3 7-6 7-11 2-2 4-3 7-3v12l9 11c6 2 10-1 11-7l9-9 6 17c5-1 10-2 16-1 3-3 5-6 6-10 2-2 4-3 7-3l3 6c-2 2-2 3 0 5l1-1 13 7c3-3 6-3 9-1 6 1 11-1 16-5h4c0 2 1 3 4 5 2-2 5-2 9-1l4 4c3-2 6-3 9-2l2 4 4-9 2-2h3l3 2c-3 5-3 10-2 16l5 2 1 3c3 0 4 1 5 5 1-2 1-2 2 0l11 16c1-2 3-4 5-4l6 3c2-1 4-2 7-1 4 3 9 6 15 8 1-1 2-2 4-1l2-8h5l3 3v9h4c-2 1-2 3 0 5l-2 2 20-2 8 3 3-9 4-5c3-2 5-1 6 3l8 18c4 2 7 2 11 0l4-9c5-3 7-6 7-11 2-2 4-3 7-3v12l9 11c6 2 10-1 11-7l9-9 6 17c5-1 10-2 16-1 3-3 5-6 6-10 2-2 4-3 7-3l3 6c-2 2-2 3 0 5l1-1 13 7c3-3 6-3 9-1 6 1 11-1 16-5h4c0 2 1 3 4 5 2-2 5-2 9-1l4 4c3-2 6-3 9-2l2 4 4-9 2-2h3l3 2c-3 5-3 10-2 16l5 2 1 3c3 0 4 1 5 5 1-2 1-2 2 0l11 16c1-2 3-4 5-4l6 3c5-2 9-1 13 3 2 0 5 1 7 3l1-4 4 1 4-6c3 1 5 3 5 7 2-1 4 1 5 4l1-1 1 3 8-10c2-4 4-3 6 1v13l2 3 20-2 8 3 3-9 4-5c3-2 5-1 6 3l8 18c4 2 7 2 11 0l4-9c5-3 7-6 7-11 2-2 4-3 7-3v12l9 11c6 2 10-1 11-7l9-9 6 17c5-1 10-2 16-1 3-3 5-6 6-10 2-2 4-3 7-3l3 6c-2 2-2 3 0 5l1-1 13 7c3-3 6-3 9-1 6 1 11-1 16-5h4l3 4v1384H0V1400l2-2 12-24 23-23c-5-10-6-21-5-31l5-10 12-11-3-10c4-1 7 1 10 5l3-6c3-3 5-3 8 1 5 0 7-2 7-7 5-2 9-5 13-9 3 0 4 2 4 6h5c3 0 5 1 8 3l8-2c2-3 5-5 8-6 0-4 1-6 4-7l2 8c5 4 10 6 17 8 0 4 3 7 6 10 1-2 2-2 3-2h5l4 2 3-2 2 4c-2 3-3 6-2 10l5-6 9-23c4 2 8 2 12 1-1 7 2 12 10 14l4-2 6 5c3 7 8 8 15 5 3-5 6-11 11-15l9 7c5-1 11-2 18-1l8-17c2-2 3-2 4 1 0-3 1-6 3-7l3 2v15h9l4-2 6-2a308 308 0 0 1 17 4h8c1-2 3-2 5-1 8-3 16-4 24-2 4-2 7-3 11-3l12 1 23-3 8 2c0 3 2 5 5 6l-1 2 2 12-2 6c-4 2-7 5-10 9l-1 9c1 2 0 4-1 6v5c5 10 13 19 22 27l8 3c-2 6 0 12 5 16l30 23a407 407 0 0 1 70 12l21 1c4 1 9 4 13 8a578 578 0 0 0 43-32c13-8 25-16 36-27l3-13c4-7 8-13 14-18 2-2 4-3 7-3 8-14 18-27 29-39 6-4 13-7 21-10v-3c3 0 5-2 5-5l9-8c1-5 4-8 7-11l7-15c2-3 4-3 6 0a1737 1737 0 0 0 28-4l6 2c1-3 3-3 4 0h12l2-2c7 0 15 1 22 4l2-1 14 4h23l20 6 20-1 23 8 12 10c3 4 7 9 12 12 4-1 8-2 12-1l11 4 17 4 1-1 9 4h6c2 0 5 1 7 3h11l3 3c6-1 13-1 20 1l3-2 2 1 13-11c5-7 12-14 19-20l4-1h4c1 0 2 1 2 3l7-2h12l5-2c0 2 1 2 3 1 3 2 7 3 12 1 1 1 2 1 2-1l10-1 1-2h9l6 6 4-3 3 1c1-3 2-3 4 0 2-3 4-3 7-1l5-2h6c11-6 22-10 35-14 9-6 20-10 32-11 5-8 11-15 18-21 3-6 7-11 12-15 10-2 21-3 33-3 2 0 4-1 5-3l-3-2c4-5 7-11 9-17-1-2-1-3 1-4-1 6 0 13 5 19-4 3-4 7 0 11l12 5a465 465 0 0 1 41-12l51 34 31 16c6 6 11 13 14 21 7 5 13 12 19 19l23 40c7 7 15 14 24 20 6 4 14 7 22 8 8 4 15 9 23 15 32-8 55 3 70 33l10 12h37c15 0 29 5 42 13 17 0 32 7 43 21 17-13 36-17 57-11 7 3 13 7 19 13 15-2 29 2 41 12 11-12 25-19 42-19 7-9 16-18 26-25l17-7c7-9 15-17 24-25 0 2 1 3 4 2l3 3 2-1 3 2c4 0 7 1 11 4 8 1 17 4 27 7l9 15c12 5 22 13 28 26l9 6 2-6 1 1 4-5 16-15 2 2c6-4 13-5 20-5h19c9 0 17 2 25 7 2-4 4-9 4-13l1 1c5-6 5-5 3 1l2 4 2 8 2-5 2-1 11 7 4-2 3-10c1-2 3-3 5-2v13l22 2 8 4c1-2 2-1 3 1l2-1c5 1 10 2 16 5h8l2 2c16-6 32-3 47 6l14 3 2-11 5 11c4 1 8 0 12-1l20-7 13 3 7-1c2 0 3 2 2 4l15 6c3-2 6-1 9 1 4 8 10 11 19 8 11 10 23 19 37 26 17 2 33 7 49 16l13 13c3 2 6 2 9 0l10 1c-3 2-3 2 1 3Zm-1264-336c0 1 0 3-2 5 0-2 0-4 2-5Zm-933 104c1 0 2 1 1 3-1-1-2-2-1-3Zm-85 5c1 0 2 0 1 2l-1-2Zm4031 58c2 0 2 1 0 3v-3Zm-134 19c1 0 2 1 1 3-1-1-2-2-1-3Zm433 46c2 0 2 1 0 3v-3Zm-1461 22h10v14l-37-1-20-4-22 2c-5 2-7 1-6-4 0-3 0-5 2-6l19 2 54-3Zm-152 50c-2 1-3 0-4-1-3-2-5-4-6-7 23-7 45-16 68-27l14-11c1 3 1 6-1 9l-1-1-39 17-27 14-4 7Zm868-38c1 0 2 1 1 3-1-1-2-2-1-3Zm1063 31c2 0 2 1 0 3v-3Zm-1939 16c-2 0-3 1-3 3v-14l7 6-4 5Zm576 13c1 0 2 1 1 3-1-1-2-2-1-3Zm-640 21c1 0 2 1 1 3-1-1-2-2-1-3Zm-245 12c1 0 2 1 1 3-1-1-2-2-1-3Z"/><path fill="#fefffe" d="M482 1403c0-2 1-2 2-1l-2 1ZM482 1403c-1 0-1 0 0 0Z"/><path fill="#fefffe" d="M4613 1414v-3 3ZM3953 1433c-2-1-2-2-1-3l1 3ZM3641 1513c-2-1-2-2-1-3l1 3ZM2601 1521l-1-1c0-2 1-3 3-2-2 1-2 1 0 2l-2 1ZM3341 1573c-2-1-2-2-1-3l1 3Z" opacity=".7"/></svg>