<svg xmlns="http://www.w3.org/2000/svg" width="5120" height="2880" fill-rule="evenodd" clip-rule="evenodd" image-rendering="optimizeQuality" shape-rendering="geometricPrecision" text-rendering="geometricPrecision"><path fill="#97371a" d="M5120 1177v1703H0V1277l3-9 4-7 7 21 6-10 4 16c4-5 7-10 8-15 1 7 4 14 7 22l5-9h1l4 12-1 2h4c6 5 13 10 21 14 3 5 7 9 12 13 4-4 6-8 6-12-1 2-3 2-4 1l8-16 7 20c-4 0-4 1-2 5l3 4c2-4 3-7 6-10 1 5 3 10 7 15-2 1-2 1 0 2-2 0-3 1-1 2h8l15-4c0-8 2-8 5-1l3-4c1 1 2 2 1 4 0 1 1 2 3 1 0-5 2-10 5-14l3 17-1 1h4l1 5 12-1c5 3 10 6 14 11 12 8 26 14 40 18 4-5 9-7 15-6l11 7c9-1 16 3 20 11l8 6 5-8 4 17 2-5c2 1 2 2 1 3 3 3 6 6 11 8l9-14c2 0 2 2 2 4 1 7 3 15 7 22l13 2 15 9c5 7 11 13 18 19a517 517 0 0 0 46 14c9 2 18 2 28 2 4-4 7-9 7-15 2-4 4-8 8-11-2 0-3-1-3-2l5-9c7-3 12-7 17-13 3-7 7-14 12-20-2-2-2-4-1-5l4-6-4-2 11-19c2 6 5 13 9 19-1 0-2 1-2 3l12 26c2 3 5 4 9 4l4-10c2-1 2-3 2-4l7-5c4-1 7-3 9-7l-1-2 5-8-6-7v-6l13-19-7-10c1-6 4-10 8-14v-5l4-2a357 357 0 0 1 54 21c9 5 19 9 31 10l10 5c11 2 23 6 33 12l2-1 15 6 2-1c3 3 7 4 12 4 7-4 15-5 24-4 7-4 13-2 18 5 1-2 2-1 3 1 1-2 2-4 4-4 5 0 9 1 12 5-2 1-2 2 0 3 5 1 9 4 14 7 3 6 8 11 13 16 8-5 15-3 21 4 3 2 5 6 6 10l3 1 9-2 5-17c2-2 4-2 6-1l3-2c-4-7-2-9 5-5l2-2c-2-1-3-3-2-5 2 0 4 1 5 4l2-4 1-6h-4l9-13c0-2-1-3-2-1l-1-2a669 669 0 0 0 7-10c-3-4-2-8 2-10v-4l6-10c-1-2-1-4 1-6l9 16 6 8v3c-1-2-2-2-3-1l13 17h10l4 3c0 5 4 8 10 9 2-3 4-5 7-6 3 0 5 2 7 5l9-1c0-4 3-7 6-9 2 1 3 0 5-2l-3-1c0-3 2-5 4-7l-3-2c1-4 4-7 7-9l5-10 3 11 5 8-2 1c2 2 2 3 0 5a300 300 0 0 0 16 24l3 1c-1 1 0 2 1 3l5 1-7 2c8 2 15 7 20 15l11 3c12 4 23 11 34 19 10 5 22 8 34 11 12 0 25-1 38-5 6-3 11-7 16-12 3-3 7-5 12-6 3-4 8-7 13-9a1718 1718 0 0 0 34-35c1-6 3-11 6-16l16-22c1-2 0-2-1-2l-1-2 2-3 1 2 3-4c4-8 9-15 14-21l1 1 13-14c4-2 9-4 14-4 24 2 48-1 71-11l13-2 26-17 8-3c5 0 10 0 15 2l20 10 4-3-5-2 10-7c-2-2-2-4 0-5 5-4 8-9 9-15l3-1c3-3 4-6 5-9l-3 1c0-3 2-5 4-6-2-1-3 0-4 2v-1l5-6-1-1-3 3-1-5 5-4 5-15c1-1 2-2 4-1-2 5-1 10 5 13l-5-1c0 5 3 8 9 10l-5 2c1 4 0 4-3 2l-1 1 5 4-3 1c-1 2 0 4 1 6l6 5-3 2-5-3 3 9c-2 1-1 2 1 3l1 1 4 1v1l3 1c-2 0-4 1-5 3l7 5c7-3 15-4 24-4h4c2-3 5-4 9-5l19-2c8 4 14 2 18-7 4-8 3-9-2-3-1-5 1-9 5-12l7-17c2 3 1 6 0 10l8 14h-4c1 6 4 11 9 16l-2 2c-6-7-7-7-1 1l-3 3c6 12 10 25 11 40 4 5 6 5 8-1l6-3c-1-1-2-2-3-1v-3l10-8 6-3c-2-1-2-2 0-2 3 2 5 6 7 11l-3 1 1 4-5-2-1 3c3 2 4 5 5 9h-3l-2 3c1 5 4 9 8 12-2 3-4 4-6 3l-1 3c0 4 2 7 5 11-3 1-3 3-1 5l-2 4 7 9 5 1c-2-3-2-6-2-8l16-17 25-2 18 6 5 7c5-5 5-6-1-4-1-4 0-6 4-6l5-7h-3v-5c8-7 14-14 18-23 1-1 2 0 3 1-2 1-2 2 0 3-2 1-2 2-1 4l-2 1 3 4v7c0 2 1 3 3 5l-4 2c-1 1 0 3 2 4l-1 2 4 9c-1 2-2 3-4 2l-2 5 2 4-1 2 4 5c-2 1-3 3-3 5-1-2-3-2-4-2l8 8-5 2 5 5-1 2 4 2c3-2 7-2 11 0l13 7h11v3h9c6 5 11 12 13 21l4 1 7 10 4-5c3 0 3-1 1-2-1-2-2-3-1-4 4 0 5-2 5-5 0-2 1-3 3-4-2 0-3-1-3-2l8-5 3-6c1-1 2 0 4 1l-1 1c0 3 1 6 4 9l-4 5c3 2 3 6 2 10 2 3 1 6-2 9l2 3c1-2 2-2 4 0 3-3 6-5 10-6l1 1c6-3 12-4 18-2 3-6 6-6 9-1 1-2 2-2 4 0l1-3 5-1c-2-1-2-2 0-3 1-1 2-1 3 1 1-4 2-4 4-1l1-2c2-1 3 0 5 1 0-2 1-4 4-4l9 2a5490 5490 0 0 0 15-9l1 1 11-6 6-2 6-2 1 1c7-5 15-7 24-6l40 20c3 4 3 9 1 14l1 2c-2 5-5 10-10 13a204 204 0 0 1 17 3l3 5 5 13 3 3c7-4 12-10 13-18-2 2-5 3-7 1l19-20c3 2 3 5 1 8l9 15-6 2c-1 1 0 3 2 5l-1 3 9-9c3 1 4 4 4 7l2 5 20 3 1-1 9 9 1-1 7 7 1-1c2 3 5 5 9 7 1-3 4-4 7-4l8 3 15-2 1 1 8-3-3-4 9-6c-2 0-3-1-3-2 1-3 3-5 6-7l-1-1c-2 1-4 2-6 1l8-6-1-5c1-3 3-7 6-9l1-9 2 4 5-8c-1 9 2 17 8 25h-5l4 7h-3l6 9-3 1c3 2 3 3 1 6 0 5 3 9 9 11l22 5c5 6 9 13 11 22l5 7 1 5h3c-3 2-3 4 1 5l-6 11 26 2v-5l7 2-1-4c5-3 11-5 17-6l-2-1 4-2c-2-2-2-2 0-1l10-7c2 0 5 0 8-2l-3-2 9-3c-2-2-3-3-3-5l5 2 2-2h7c-1-2-2-2-2 0l-4-4 3-3c-2-1-2-2-1-3l5-5h-4c-1-2 0-4 1-5l9-8h-7l1-5 7-6c-2-1-4-1-5 2v-2l9-12c-2 0-4 0-5 2v-2l12-12c3 0 6 2 8 6l-5-2c-2 1-3 2-1 4l-1 1c0 5 3 8 7 11l-4 1c0 6 3 12 9 16-2 3-4 3-7 1l3 10c2 1 4 3 5 6l-1 9 6 5 1 3c3 0 6 0 10-2l-4-2c-2-2-2-4-1-5l11-17c12-6 25-8 38-6 4 1 9 3 13 6l6-6c-3 0-5 0-7 2l-2-2c5-4 8-9 9-15l-4 3-1-4c6-7 11-16 14-25l2 4c-2 0-2 1-2 3l-1 6c0-2 1-3 2-3l7 14-4 2 3 5-1 1c3 3 4 6 5 10l-4-2 2 4-3 2c3 4 5 8 5 13 1-1 2-2 3-1l-2 4a1824 1824 0 0 0 5 7l-5 2c3 2 5 4 6 8l13-2 17 5h17c9 3 14 9 17 18l6 1 9 9c2-4 4-7 7-9l-4-2 4-4c-1-4 0-7 3-9l-4-1 7-5c1-10 3-10 5 0l4 3-2 1 1 1-3 1 5 7c-2 3-2 5 2 7-2 1-2 3 0 4-4 1-4 3-1 5 3 1 6-1 9-3 7-6 16-9 26-10l-1-2h4c-3-1-3-1 0-2 3 3 6 3 10 0l5-4-1-1 4-2 2-2 1 1 6-2c-2-2-2-3 1-3h13c-1-4 0-6 4-5a1284 1284 0 0 1 49-28l40 10c3 1 6 3 7 7 3 9 1 17-5 25l2 4c-2 2-3 5-3 8l9 16 1 13c5 7 11 14 19 19l3 1c10-5 21-8 32-10l27 6 10 7c5 0 11 2 15 6 26-6 39 5 38 32 5 2 7 5 7 11l3-4 6-3-2-2c-2 2-5 2-7 1l10-7c-4-1-8-2-11-1-2-1-2-1 0-2l8-5-6 2-1-1c1-2 1-3-1-1l-3-2 8-5c1-1 0-2-1-2h-3l7-9-2-1 8-5h-3l-1-3 6-5c-6 0-7-2-1-5h-3l-5-1 12-7-5-4 5-2v-3l3-3-5 1 6-10h-4c4-5 7-11 8-16-2 0-3 1-4 3l-1-2 5-4-3-2 10-15 4-3c2 3 4 7 4 12l7 10c-3-1-6-2-7-5 0 4 2 9 6 12-4 0-6-1-7-4v1c1 6 4 11 8 17l-1 1-5-3 5 6c1 1 0 3-1 4l3 3h-5l2 3-1 3c2-1 3 0 5 2-1 1-2 2-3 1l-3 29-7 7 2 11 12 6 6-4 19-1a474 474 0 0 1 42 3c7-2 10-6 10-13l1 1c1-6 3-11 7-15-3-1-6-2-8-1-1-2 0-3 1-3l9-7-1-1-3 3-1-2 7-11c-1-1-2-1-3 1v-4l6-8 3 13 8 8c3-3 5-6 5-10l3-3-7 3c0-4 2-7 4-10l-1-1 4-5-2-2 2-7-4 2 14-26c0 6 1 11 3 17l6 4-3 2 8 5-7 4 11 8 1 1-4 2c-2-1-3-2-4-1 3 3 7 4 12 5l-3 5c4 4 7 3 9-3v-18l-4-1c1-1 2-2 1-3-4 3-8 3-11 0l1-1c2 1 5 1 8-1-5-2-5-3 0-4 4-4 6-9 4-14-2 3-5 5-9 5 5-4 8-10 9-16-1 3-3 4-6 4 5-4 7-8 6-14l2-4 2 1 2 13 8 6 1 3c-4 0-4 0 0 2l-3 2-7-5v8l4 1c-1 5 1 7 7 8v5l-3 1-6-2c2 1 3 3 3 6-2-1-3 0-3 1 1 3 4 4 8 5 2 4 2 5-2 5l-4 3 2 2 6-3 12-24c5-5 8-11 7-18l8-12 2-14-10-11v-26l4-15c-4-1-4-1 1-1 0-6 2-10 6-14-5-13-3-23 6-32-1-10 0-20 1-29l-3-22c2-2 2-3 0-4l2-4 2 3 30-19a460 460 0 0 0 85-91l-2-3 3-3-3-1c3-2 7-3 11-2-3 2-3 5-3 8 16 16 35 25 58 27 7 1 15 2 23 1 2-3 4-5 8-6 1-4 2-8 5-11-5-17 1-31 17-39h10l8-2 1 2c9-2 17-2 26 0 6-6 14-7 22-3 3-2 7-1 11 2 6-5 13-5 20-2 5-2 10 0 14 4 6 0 12 2 17 8 4-1 9 1 13 4l20 2c6-6 14-7 22-3 3-2 7-1 11 2 6-5 13-5 20-2 5-2 10 0 14 4 6 0 12 2 17 8h4c9 3 15 9 17 18 7 1 14 1 21-3 5-2 10-2 15 1 3-2 7-1 11 2 6-5 13-5 20-2 5-2 10 0 14 4 6 0 12 2 17 8 7 0 12 2 17 9l20 2c6-6 14-7 22-3 3-2 7-1 11 2 6-5 13-5 20-2 5-2 10 0 14 4 5-1 9 1 13 5l8-2 1 2c9-2 17-2 26 0 4-3 9-5 14-5l15 2 10-6h10l8-2 1 2c9-2 17-2 26 0 6-6 14-7 22-3 3-2 7-1 11 2 6-5 13-5 20-2l4-1c3 1 7 2 10 5l3-1a15299 15299 0 0 0 86 5l15 8 40 18 50 12 17 10 2 3c4 15 6 31 5 48 0 8 2 16 6 24l19 10c16 5 32 9 48 11l25 8 1-2c3 1 7 3 10 7l2-3c-2-1-2-2-1-3 2-1 4-2 6-1v6l5-5 7 4 3 5c4-4 7-9 9-13 0 6 3 13 7 19l3 2c1-2 3-3 5-2-1-3 0-6 2-7l-1 8c1 1 2 1 2 3 1 6 4 13 7 19l1-6 4-1 10 7 3 7c-1 3 0 6 4 9l6-12c4 4 7 9 8 15l8 13c-1-3 0-5 2-6h6v-4c3-1 4 1 4 5 4 1 7 4 10 8l9-11 11-6-5-2 8-8 7-16c2 4 5 6 11 6l5 5 3-2 4-8c4 0 8-2 10-6 3-1 5-3 6-7h3v4h5c2 1 3 3 2 6 5-7 9-14 11-21l5-7 7 12c3-3 5-7 4-11l2-5c3-1 3-3 2-5l4-10 3 7 6 2v6c3-6 6-13 7-19l3-3-2-8c2 1 3 4 3 7 1-1 3 0 4 2 5-4 8-8 9-13l1-8c2 4 5 9 9 13l4-5 6-4 5 5 2-20-2-2c0-3 1-5 3-6l5 3 8-2a234 234 0 0 0 60-36l30-27h3c1 1 2 2 3 1 2 0 4 2 5 4l2-1c7 5 14 6 22 4 7 1 14 0 21-4l1 3 6-9-2-1 3-2-5-4 7-4 29-2c6-2 11-6 15-11l18-3c13-11 28-12 44-5l11 9c6-4 12-5 20-5 10-5 22-10 34-13 12-7 25-12 39-15l30-30 30-21Zm-3538 35c-1 1-1 2-2 1l2-1Zm1695 15c22 21 49 31 80 30l-5 18 3 4h-23l-22 9c-7-2-12-1-17 2-6 0-11 1-16 3v-66Zm-3 4a1791 1791 0 0 1-2 64c-5 1-10 3-14 6-14-4-23 1-29 14 0 6-2 12-5 18-9 2-15 7-19 14-4 2-7 2-10 0l-2 1c-12-3-23-6-33-11 25-16 49-35 70-57l3-1 41-48Zm-1797 2c2 0 2 1 0 3v-3Zm16 10v-1c1-1 2 0 3 2l-3-1Zm-2 9c-1 2-1 2-2 0h2Zm3293 37 1 1-3 43c-2 4-5 4-9 2l-5 10-4 1c-1 4-4 6-7 6l-2 3-5-3 1-1-6-2-8 6-2-1-3-12c-3 3-6 3-9 1l-11 17-1-2-4 6-17-10c7-2 14-4 21-8l41-27 32-30Zm5 2c2 0 4 2 6 5l16 6 32-5c-3 1-4 2-2 4-2 0-3 1-2 3 2 3 2 4-1 3 1 1 0 2-1 3v5l-3 7-2 4v3l-3 5c-3-1-5 0-7 1-1 7-2 7-4-1l1-1c-5-5-7-11-7-17l-3-4c-2 3-3 6-3 10-2-1-3 0-4 1l-8 12h-2c-2-4-2-7 0-11l-2-8 1-12-2-13Zm-3076 20-2 2 2-2Zm1443 29 1-1c14 5 29 10 45 12-17 3-26 13-26 31l-3 3c-5 0-9 1-13 4-3-16-3-31-3-46 2-2 1-3-1-3Zm1530 18 15 9h-3c-2 2-5 4-6 7h-3l-3 3-2-3c-1-3 0-5 2-8v-8Zm-4120 12c0-3 0-3 2-1l-2 1Zm1888 96c-2-1-3-2-2-3 1 0 2 1 2 3Zm2 28c-2 1-4 0-5-1l2-1 3 2Zm0 0c0-3 0-3 2-1l-2 1Zm156 27c3 0 3 1-1 3l1-3Zm-61 6c0-2 1-3 3-2l-3 2Zm11 2 3 2c-2 1-3 0-3-2Zm367 34 1-3 1-1c2 3 2 5-2 4Zm136 9c-3 4-6 7-11 10l-3-6 3 2 11-6Zm-142 2c2 0 1 1-1 3l1-3Zm140 7v2c-4 1-4 2-1 5l-3 3-2-6 6-4Zm0 25c1-2 2-2 3 0h-3Zm-157 19c4 0 4 1 1 3-3-1-3-2-1-3Z"/><path fill="#fefffe" d="M1469 1220c-1 0-1 0 0 0ZM1488 1240l1-1 6 1c2 1 2 2 1 4-1-2-2-3-3-2-2-1-3-2-4-1l-1-1ZM1251 1320c-1-2-1-2 0 0ZM1246 1327c-1 0-1 0 0 0ZM161 1337c1 0 1 0 0 0Z"/><path fill="#fefffe" d="M4283 1385c0-2 1-2 2-1l-2 1Z" opacity=".9"/><path fill="#fefffe" d="M2346 1426c-1-2-1-2 0 0ZM2346 1426c1 0 1 0 0 0Z" opacity=".2"/><path fill="#fefffe" d="M2447 1433h2-2Z" opacity=".5"/><path fill="#fefffe" d="M2347 1436c2-1 3-1 5 2-3 1-5 0-5-2Z" opacity=".8"/><path fill="#fefffe" d="M3134 1439c1-2 2-2 4-1l-4 1Z" opacity=".4"/><path fill="#fefffe" d="M2312 1491c-1-2-1-2 0 0ZM2319 1491c-1-2-1-2 0 0Z" opacity=".3"/><path fill="#fefffe" d="M2249 1503c1 0 1 0 0 0ZM2249 1504c-1 0-1 0 0 0Z"/><path fill="#fefffe" d="m2248 1505-1 2c-1-1 0-2 1-2Z" opacity=".9"/><path fill="#fefffe" d="M2247 1507c-1 0-1 0 0 0ZM2246 1508c-1 0-1 0 0 0ZM2624 1511c-1-2-1-2 0 0ZM2620 1513c-1-2-1-2 0 0Z"/><path fill="#fefffe" d="M2246 1513c1 0 1 0 0 0Z" opacity=".9"/><path fill="#fefffe" d="M2619 1513c-1 0-1 0 0 0Z" opacity=".7"/><path fill="#fefffe" d="M3074 1514c1 0 1 0 0 0Z" opacity=".8"/><path fill="#fefffe" d="m2616 1518-2-1c0-1 1-1 2 1Z" opacity=".3"/><path fill="#fefffe" d="M2266 1522c-1-2-1-2 0 0Z" opacity=".2"/><path fill="#fefffe" d="M2982 1523c1 0 1 0 0 0ZM2982 1524c-1 0-1 0 0 0Z" opacity=".1"/><path fill="#fefffe" d="M3045 1553c-1-2-1-2 0 0Z" opacity=".2"/><path fill="#fefffe" d="M2951 1553c1 0 1 0 0 0Z" opacity=".1"/><path fill="#fefffe" d="M2913 1567c-1 0-1 0 0 0Z" opacity=".4"/><path fill="#fefffe" d="m2912 1580-2 2c-1-2 0-2 2-2Z" opacity=".8"/></svg>