<svg xmlns="http://www.w3.org/2000/svg" width="5120" height="2880" fill-rule="evenodd" clip-rule="evenodd" image-rendering="optimizeQuality" shape-rendering="geometricPrecision" text-rendering="geometricPrecision"><path fill="#210002" d="M5120 1706v1174H0v-933h5c3-2 5-3 8-3l1 2c1-2 2-3 4-3h4l1-2c6 1 12 0 18-4l2 2 5-2c2 2 5 2 8 0 2 2 4 2 6 0l2 1c1-2 2-3 4-2h9l1-2 4 2 10-1 4 2c1-2 3-2 4 0 2-3 4-3 6 0v-3c5 0 9 1 14 4l6-2a803 803 0 0 1 29 4l2-2 13 1 4-2 2 2h8l15 6c6-1 10 1 14 6 1-2 2-1 3 1 10 4 18 11 25 21l1-1 12 15-1 1c6 5 10 12 12 21 2 0 2 2 2 3l4 5-1 1 4 7c0 5 2 10 6 14l12 4 8-2c1 2 2 2 4 0l8-1h3c1 2 2 2 3 0l14 5 7-1c1 1 2 2 5 1l10 2c1-3 3-3 5 0l12-8 1 1a510 510 0 0 1 52-45l25-22c1-2 3-2 4 0 7-8 13-16 17-24 9-20 22-37 37-52 8-4 17-9 24-15l2 1c14-9 28-20 40-32l7-5c6-3 12-3 18 0l1-1 2 2a288 288 0 0 1 61-7c8-5 16-11 23-18 1-1 2-2 4-1v-3l8-6h11c3-4 7-7 11-9l1-3 8-5 13-14 2 1 3-5c1 1 3 0 5-1l18 4c7-2 14-2 21 0 4 0 7 1 11 4 3-2 6-2 10 0l11 4h13c3 2 6 2 10 1l3 2 4-1 12 3 12-1 2 2c1-2 2-2 3 0 2-3 3-3 4 0l9-1c4 2 8 2 12 0l3 2c6-2 12-2 19 0l3-2 12 1c8 9 15 19 21 30l17 24 9 8a287 287 0 0 1 41 29l1-1 1 3c8 5 17 10 27 14 2 3 6 5 10 7l8 10 7 28 1-1c0 3 1 5 4 7l-2 2 2 2 4 6c-1 2 0 4 2 6l-1 1 5 13h3c1 4 3 7 8 9a1100 1100 0 0 1 24 8c1-4 4-6 8-6l10 9 1-1 9 7h4l1-2h8c4 1 8 2 11 1l3 2c2-2 4-1 6 2l1-1c1 2 2 3 4 2l4 3c1-2 3-2 5-1l6 6h2l4 5 3-1c2 7 7 12 14 17-2 2-2 2 0 2l8 8 3 1c-1 1 0 2 1 3l9 5-1 3h2l1 3h4c-1 1-2 2-1 3l12 9c1-2 2-3 4-3l-1-2c2-5 3-9 3-14 2-2 2-3 0-5l2-9-3-2c2-2 2-4 0-6v-1h3c-5-3-6-6-2-9l-5-4 1-8-2-1 2-2c-2-1-2-2 0-3l-2-1c0-2 1-3 3-4-3-4-3-8-1-12l-3-4c0-1 1-2 3-2-4-2-4-4 0-5l-4-4c1-3 0-4-2-5 3 0 3-1 1-2 2-2 2-3-1-3 1-1 0-2-1-3l5-4c-5-2-6-5-3-8-3-5-3-9 1-13-4-3-4-7-1-10l-3-1 4-2-3-6c2-3 1-6-2-8 2-1 2-3 1-5 0-2 0-3 2-4-3-1-3-2-1-3l-2-2c-1-5 0-9 1-12l-3-4c1-1 2-3 1-4 3-2 3-3 0-2 0-2 1-3 3-4-3-1-3-3-2-5-4-1-4-1 0-2l-2-5 2-2c-3-2-3-4 0-5-3-2-3-4-1-6l-2-3v-3c2-2 2-3 0-4v-5l2-3-3-3c2-2 2-4 0-5l3-1-3-2 2-2-4-2 4-4-4-3v-8l3-3c-4-3-4-6 0-9-4-1-5-3-2-5-1-3-2-5-4-6l3-3c-2-2-2-4 0-5l-4-6c0-2 1-2 2 0 0-2 0-4-2-4 3-1 3-3 0-3 1-3 1-6-1-8 4-2 3-5-1-7l4-3c-3-1-4-2-1-3-2-1-2-2-1-3-3-1-3-2 0-3-3-1-3-2 0-3l-2-2v-9l-3-5 4-6c0-2-1-3-2-3 2-2 1-3-1-4 1-2 0-3-1-4 3-1 3-2 0-3l1-6-2-2v-5l2-1-3-5 2-1-3-3c2-3 2-6 0-9 1-2 1-3-1-4l3-3c-4-1-5-2-2-4l-2-4 3-3c-2-2-4-4-4-6l3-3c-2-1-3-3-2-5l-3-1 3-4c-3-2-4-4-2-7-3-2-3-3 0-4l-2-3v-4c-3-3-3-5 0-8l-3-4c3-2 3-5 1-7 1-2 0-3-1-3l2-2c-1-2-2-4-1-5-2 4-4 9-4 14l1 2-4 8c1 2 1 4-1 5v9l-3 4 1 1-3 3-2 10 2 5c-1 2-2 4-1 6l7 12c-1 2-1 5 2 7-1 2-1 5 1 7l-1 5 1 12 10 27-2 4-1-1c-1 1-3 2-4 1l-4-7 1-1c-3-3-4-7-5-10l-6 13 2 22 5 5v12l10 17-1 1c2 1 2 2 2 4l2 6c1 4-1 6-5 5a472 472 0 0 1-3-7c-2-2-4-5-4-8l-7-10-4-15 1-2c-1-3-3-5-5-6l-5 8-1 12-2 13 3 25 5 11-1 2 2 8-3 3c-4-2-6-5-4-9l-3-4a635 635 0 0 0-8-41l4-13c-3-8-1-14 6-20v-7c0-4 1-7 3-10l-2-1 2-3-6-9c-1-1-2-2-3-1l-3-11 2-2-1-7 1-2 1 1c0-2 1-4 3-5l-1-2c4-3 5-6 4-10h3c-1-4 0-7 2-10-1-2-2-3-3-1 0-3-2-5-3-6 2-2 2-3 0-4l-4-7 1-1-2-2c0-2 0-2 1 0v-4l4-6v-8c1-1 2-2 1-3 2-3 2-6 1-9l3-5c-2-3-1-5 2-5v-3l4-7c-2-1-1-2 1-3-3-3-3-6 1-8-3-2-3-3 0-4l-1-1c2-2 2-3 0-4 0-1 1-2 3-2-3-1-3-2 0-3-2-4-2-7 0-10l-2-5 3-3v-7l-2-3c1 0 2-1 1-2l4-8-2-3 2-2c-2-2-2-4 1-5-2-2-2-4 0-6-3-1-3-1 0-2l-2-2 3-4-1-8c2-4 2-8-1-10l2-2c-2-2-2-4 0-5l-2-4c1-1 0-2-1-2 2-1 2-2 0-3l1-2c-2-1-2-2-2-3v-23c-3-2-3-3 0-4l-2-8 1-15c-3-1-3-3-1-5l-3-17 1-2c-3-7-4-15-4-22-1-3 0-5 2-7-2-2-3-4-1-6l-2-7a795 795 0 0 1 0-35c-3-3-2-4 0-5l-3-5 2-1v-4l-2-4 1-7c2-2 3-2 5 0l3 9-1 3c0 3 1 6 3 8-2 5-1 11 1 16v18h3v-8c2-3 2-6-1-8l2-2a309 309 0 0 0 0-12l-1-1c1-2 2-2 3 1 1-3 3-3 5-1v16l1 9 2 1-1 9c2 4 2 8 1 12l2 3-1 15 2 5-2 1 3 6 1-2c-2-13-2-27-2-40 4-3 7-1 9 5-2 4-2 8 1 13a2591 2591 0 0 0 0 33c1-2 1-2 2 0v6l-1 11h2c0-6 2-11 6-15l-1-2 3-2 1 32-3 13 1 6-2 2 2 7v8l-2 3v18l2 2-2 8 2 4c-2 6-2 13 0 19 0 5 2 11 4 16v13l2 4v22c0 2 1 5 3 7-2 1-2 2-2 4v5c0 1 1 2 3 2-3 1-3 2 0 4-2 2-2 5 1 7l-2 3c2 3 3 6 1 10l3 4h-3c2 2 3 4 2 7l3 8c-2 2-2 5 1 9l-2 1 3 9v8l4 2c-1 4-1 8 2 12h2l2 3-1 1 4 1c-1 1-2 2-1 3 3 1 5 3 6 6l5 1v3c2 1 4 4 5 7 3 0 6 2 7 6l1-3c1 3 3 6 7 8-2 1-1 2 1 3l1-1 2 6c2 4 5 7 9 10l-1 5 6 9-1 2a859 859 0 0 1 12 26l-3 8c-8 9-13 19-15 31-3 0-5-1-5-4l-1 5 2 1c-2 1-2 3-1 5l2-4 2 1v15c7 7 11 15 10 26 1 1 1 2 3 2a731 731 0 0 1-3 20c-2 1-3 2-4 1-2-2-3-5-3-7l1-8c-2-8-5-16-9-23l1-1-6-7v-9c-2-2-3-5-3-8v-8c1-2 2-4 1-7l2-2-1-6 2-3a1513 1513 0 0 0 1-29c3-7 4-14 1-21h-3c-1-2-1-3 1-4l-6-2 1-2-8-6v-4l-6-2-2 1c0-2-1-2-2-3v-2l-6-2-5-6-1 2-3-4-2 3c1 3 2 6 5 9l-2 3c0 3 1 7 4 11-2 2-1 4 1 7v13l3 5c-2 3-2 6 0 10l-2 4 2 1v11c2 1 2 3 1 5 0 1 0 3 2 4l-2 2 3 9c-3 2-3 3 0 5-1 4-2 8-1 12l2 4v16l2 1v11c2 1 2 1 0 2l2 3v7l2 2c-2 2-2 5 1 7l-2 2v3c2 2 3 4 1 7v2c1-2 2-2 3 0-3 3-2 7 1 10-2 3-1 6 2 9l-1 7 2 2c-2 3-2 6 1 9-2 3-2 7 0 11 2 3 3 6 2 10 1 3 2 6 1 10l3 9v13l3 6v18c2 4 2 9 2 14 2 1 2 3 1 5l3 11c-1 2-1 4 1 7-1 8 0 16 4 24-2 3-1 6 3 9 1 4 3 8 7 12l2-2c3 4 7 7 13 8l-1 1c3 0 6 2 8 5 1-2 3-2 5-1 1-2 2-3 4-3l-3-2-1 1-3-2v-6l20-17 1-4 13-10 4-7 3-1 12-12-20 10c-3-3-4-6-3-9 9-4 18-10 26-18-3 0-5 0-7 2l-3-3c4-7 8-14 14-20l1 1c1-5 4-9 9-11l-2-2-5 3c0 2 0 2-2 1-1 3-3 4-5 3-5 3-8 2-9-3l12-12 1 1 11-12h3v-3l21-22v-3l10-9-2-1c4-1 5-3 4-6l-19 14c-3-2-5-4-5-8l-4-3c-2 2-5 2-7 2l-4 4-5-1-4 2-7-1c-1-2-2-4-1-6 4-1 8-3 10-7 3-4 7-6 12-8v-3l11-11 7-11c-2-2-1-3 2-2l-1-3-7 5c-1 2-2 3-4 3l-13 8-3-4 2-6 13-15h-3l-4 4c-2-3-4-3-5 0-1-2-3-3-4-2v-5l26-27c-3-1-6-1-8 2-3-2-4-4-3-7 4-7 9-14 15-19l11-9-1-2 11-10c2-9 7-16 15-21l-1-1c5-7 9-15 11-23 2-6 6-11 10-16l-1-2c5-4 5-4-1-1l-9 15c-2-4-4-4-7-1l-4 6c-2-1-3-2-1-3l-2-1c-2 1-3 0-4-2 3-1 3-2 1-4l5-3c-6-1-6-2 0-3-3-2-2-3 1-4v-6l4-3c-1-2 0-3 2-4l-1-1 6-7-1-1c1-5 4-9 8-12v-3c0-1 1-2 3-2l-1-1c2-2 2-3 2-5l-9 9c-7 0-8-3-5-8 2-2 3-3 2-5l5-7h3l2-7c9-12 17-25 25-39l-1-1 7-15-1-2 6-8c-3-4-5-4-7 0l1 2-20 14-4-5c5-8 11-15 18-21l16-22c-1-2-2-2-3-1l-5 3c-2 1-2 1 0 2-3 1-5 1-6 3-2-2-4-2-5-2-1-2 0-3 1-4a191 191 0 0 0 22-29l-4-5 7-13 2-7c-2-1-3-3-2-5 0-5 1-9 4-13l-1-3 4-7v-5c2 0 3-1 4-3l-1-1 8-21c-2-1-1-2 1-3l-1-6 5-14c-4-2-6-1-6 4l-1-1c-5 4-11 8-17 10l-2-2c3-7 8-13 14-17l9-15a425 425 0 0 0 9-36l8-13c1-2 2-2 3-2 4 2 5 5 5 10a738 738 0 0 0 10 45l-1 1 15 26-2 4-6-3-5-8h-2l-6-12-1 7 2 1c-1 1-2 2-1 3 1-2 1-2 2 0-3 2-3 4 0 6-2 2-1 4 2 5v8l2 6c-2 1-2 3 0 4-2 3-2 7 0 11-1 5-1 10 2 15l-1 2c1 4 3 9 6 13l-1 2c5 11 11 22 18 32l3 2v2c2 1 4 3 5 6l1-1 2 5 1-1c0 3 1 4 4 3l3 6-1 5-5-1c-11-6-19-15-26-24l-1 2c0 4 2 7 5 9l-1 1 4 4c-2 1-2 3 0 5 5 8 12 16 19 24l3 8-4 7c-2-3-4-4-6-5l-1 1c-3-3-7-6-9-10-2-1-3-1-3 1 0 4 1 7 5 10l-2 3 3 1-1 5 3 6c-2 1-2 3 1 4 0 5 2 10 6 14l-1 2c3 1 3 2 0 3l4 2-2 3h4c-2 1-1 2 1 3-2 1-2 2-1 4l6 11 5 3-2 1c4 2 6 5 7 10 2 0 3 2 2 4 1 3 4 4 8 4-3 3-2 6 3 8l4 8-4 1v3l-3 1c-1 2 0 4 2 6-4 0-8 0-11 2l-11-5c-3 1-4 0-2-2-3-1-4-3-5-5l-1 1v5c4 3 7 8 9 13l-2 2a548 548 0 0 0-13-3l8 8 9 9c9 6 18 13 26 22l-4 5-7-5h-5a832 832 0 0 1-27-17 487 487 0 0 0 43 48c-1 3 0 4 3 3l18 17c-2 1-3 2-5 1l-20-8c6 10 15 18 26 25l10 12c1 3 0 5-2 7l-9-3 10 10v6c-7 1-13-1-18-4l-2 1-6-4-3 1c2 1 2 2 0 3l-3 1v4l17 22-5 4-15-9-1 1c1 3 1 6-1 9l9 13v3c0 1 1 2 3 2l-1 2 3 5c-1 6-4 8-9 5 2-1 2-1 0-2-3 1-3 0-1-2-4-2-7-5-8-8l-2 2c1 5 3 11 6 16 2 2 3 4 6 5l-1 1 5 7 4 1c0 3 1 5 4 7l20 13-2 4h-5l-2 2 10 4 9 8c1 3 0 5-4 5l-9-4-1 1-9-3 4 7h3l6 7c4 0 7 2 11 5l10 2c2 1 3 4 2 7-5 2-11 3-16 1-10-4-18-10-25-17-1-1-2-1-2 1l2 4c4 0 4 1 1 3l3 3c2-1 2-1 1 2 2 5 4 10 8 15l-1 2 6 9-1 1 2 4c2-1 2-1 1 1l3 1-1 1 4 7 8 6c-2 1-2 2 0 3a188 188 0 0 0 33-11l2 1v-2l3 1 2-2 7 4c2-1 3 0 5 3l3 1-2 5c1 3 4 5 7 6h3v-4l2 1 1-4 6-3c0-3 2-5 4-7l8-3h12c1-3 3-3 5-1a268 268 0 0 1 16-3c3 1 6 2 9 1 1 2 3 3 6 2l10 13 6 5 5 9h3c-1 1 0 3 2 4l-1 1c1 3 3 4 6 3 2 6 4 6 7 1l1 1c1-3 3-5 6-6l2 2 3-2 16 7 7 1 3 3c2-2 3-1 4 1 6 2 12 4 16 9l2 5 11 9c-3 3-3 5 2 6-3 1-3 2 1 2v4l5-13c5-5 8-11 11-16 2-3 5-4 9-3-9 9-14 20-17 33 2-4 4-8 8-10 1-1 3 0 4 2l-10 20c3-1 7-3 10-6 2-1 5-2 8-1v5c-7 2-7 5-2 8 4-3 7-3 10 1l9-1c4 0 8 2 12 5 1-2 3-1 4 1l3-3-5-19 2-2-1-19c0-2 0-2 2-3-2-5 0-10 4-14l2 2-1 22 2 16a5257 5257 0 0 0 8-29c5-16 14-29 26-39 0-2 1-2 3-1-11 14-19 30-24 48v6c1-4 4-7 7-8l2 2-7 21 1 2 6-9 4 4 2-4 1 2 18-18c0-5 1-5 2-1 1-5 3-8 7-10l-1-2 4-4c2 1 3 0 3-2l3-1v-5l9-7c-2-3-1-4 2-4-2-2-2-2 0-1l5-7c0-1 1-2 3-1v-4l1 1 4-4c2 0 4-1 5-3 1 2 2 2 4 0l6-2c2-3 4-4 8-3l3-3 1 3c2-2 4-3 7-3-1-4 0-4 1-1l7-6h4c7-7 15-12 24-17l2 1 8-3 6 3 1-2 2 2h6l2-2h9c1-2 3-3 5-1 1-2 2-3 4-3h17c10 0 19 2 29 5l2-2 1 3 6-2 9 5 3-3c1 2 3 2 5 0 2 0 4 0 6 2l2-1 6 3 5-2 9 2 4-2c2 2 4 3 7 3l3 4 1-2 14 19c2-1 2-1 1 1 4 2 6 5 7 9l3 4 2-1 4 7h8l11 4 1-2c2 2 4 2 7 1l3 2h14a3756 3756 0 0 1 32 10l1-1 20 10c18 4 37 6 56 7 10 2 20 5 30 10l4-3 9-16c4-1 8-4 12-7 11-4 23-6 36-5l35 12 2-2-18-10c-6-5-9-10-10-17a1434 1434 0 0 1 5-43l-2-7c10-7 20-12 31-17l32-5a33004 33004 0 0 0 70 1c5 0 10 2 15 5l1-1 15 10 5 13c-3 2-3 4 0 6l-2 2v9c2 2 2 4 0 6v5l2 4-2 3v4l2 1-3 11 2 1-9 6-1-1-5 4-1-1-7 4 2 3c3 0 6 1 8 4 2-3 3-2 5 1h4l7 9 1-1c5 2 10 5 14 9l1-1c2 2 4 4 8 5-2 1-2 1 0 2l2-2 6 4c1-3 2-3 4 0l1-2 5 2c1 2 2 2 4 1l3 2 15-8 2-6 46-20v-5l12-3-2-8h4l8 9 1-1-7-17c2 0 5 1 7 4l7 15 1-3v-54l2-3v-23l1-21 2-8a1912 1912 0 0 0 1-78 5852 5852 0 0 0 2-60l1-13 2-2c-3-2-3-5 0-7a407 407 0 0 1 2-61v-32l2-6a446 446 0 0 1 1-22v-21c-2-3-4-5-4-8-5 0-10-1-14-3 1-2 2-3 5-1l7-2-3-7h-7l2-12c1-2 2-2 4-1l4 6c2 1 5 1 8-1v-4l2-2c1 2 3 2 4-1l1 4 3-6 2 1v10h11c-2-3-1-4 2-5 4 2 4 5 2 10l-6 4a1863 1863 0 0 0 17 8l1-1 23 7 2-1 15 5a1769 1769 0 0 1 74 16l2-1 22 4 2-1 10 2 16 3 4-1c1 1 2 2 4 1l6 2a939 939 0 0 0 39 1l5 2c3-1 5-2 8-1l10 2a1273 1273 0 0 0 62-1l31 1 12-2h33l3-7c-2-1-2-2 0-3l-2-2c2-5 2-11 0-16v-4l2-2c-2-1-3-3-2-5l2-9-1-23 2-9c-3-2-3-4 1-5-2 0-3-1-3-2 0-3 1-6 3-8-3-4-3-8-1-12l-2-3v-4c2-3 2-5 0-8 0-1 0-2 2-3l-1-17 2-5-2-1v-34l2-15a1417 1417 0 0 1 0-88l2 20c2-3 2-6 1-9l2-3c-2-2-2-4 0-6l-2-4 3-7-3-3a613 613 0 0 0 3-18l-2-4c2-1 2-2 0-3l2-9 1-1 3 3a18667 18667 0 0 0 7-66l2-8c-2-2-2-3 0-3l2 3c-1 5-2 11-1 17l1 3 4-30-5 79v6l7-27-6 54c0 5 0 6 1 1l1 10a379 379 0 0 0-3 93c-2 7-2 15-2 22l2 4-2 4 1 41-2 10 2 8c-2 3-3 7-1 11l-2 14v11l2 4-2 7 2 2c-2 19-2 39 0 58l17-2 1 1 9-2 11-1 5 1c60-6 120-14 182-23 0-4-1-7-3-9l1-8c-2 2-2 2-2 0l5-7 8-7 20-28c7-7 14-12 22-17l38-17c4-1 9 0 14 2l11-3 13 2 13-1c2-1 4 0 5 2l6-1 4 2c11-2 21-1 32 3l4 4 2-2c2 0 4 2 6 4l1-2 6 8c2-3 4-2 5 2l2-1 9 6c4-2 6-1 6 4l1-1 4 8-1 2 7 15c-1 3 0 5 3 6l-1 1 1 4c3-2 3-1 1 1l2 5v10c2 1 2 2 1 4l2 1c-3 2-3 4 0 6-2 2-3 4-1 7l-4 4c3 3 6 6 8 11l6 2 3-1-1 2c1 1 3 0 5-1 2 1 4 0 7-1 3-3 6-4 10-1l-1-3c4 1 8 0 13-2 4-4 9-9 15-12l1 6 34-14 29-8h11l10 5 2-1a319 319 0 0 1 45 11c0 2 1 3 3 5l1-1 6 5c10 5 21 9 33 11l6 3 7 15-1 1c4 5 9 8 15 12h22c10 0 20 2 30 4 7 5 14 9 22 12l8 3a1277 1277 0 0 1 18-4l7 1c7 6 15 11 25 15l6 5 1-1c8 12 19 22 32 30 3-4 6-7 11-10 4-1 8 0 12 3 4-2 9-3 14-3 1-4 4-7 8-9l15-8c0-4-1-7-3-10l-12-14v-28l2-11c-1-8-2-15-1-22l1-4 2-14 3-7c-1-4 1-7 4-9 2 0 3-1 5-3l13-4 1 1c2-3 4-4 7-3 2-3 5-5 9-4l-1-1c1-2 2-2 4 0l5-3 1 1c2-3 5-4 9-4l2-3 2 2c2-3 5-4 9-3l2-2 2 2c0-2 2-3 3-4l2 2c2-3 4-3 7-2l3-3 2 1 10-4 1 1 2-2 8 1 23-5 12 1c2-2 4-3 7-2 1 2 2 2 4 0l3 2c1-2 3-2 6-1 5 2 9 5 13 10l2-1c4 1 8 2 13 5l10 8 6 12c-2 2-1 3 2 3l1 18c-2 3-3 6-3 10l-2 1c2 4 2 7 0 11v21c2 2 2 3 0 4 2 4 3 7 1 11l1 18-4 11-9 7 1 5c1-2 1-2 2 0 1 3 3 6 6 8 7 3 13 8 20 13l3 5c7 3 13 6 19 11l8 11 1-1 13 11c5 1 9 4 13 8l1-1c1 1 1 2 3 2 4 0 8 2 13 5l8 2 2-1c7 5 15 8 24 9 2 5 3 11 2 17l1 6 10 7 1-1 5 5 14 25c3 1 5 3 7 6l1-1 3 4a3717 3717 0 0 0 12 5c5-3 11-6 17-7l2-2h7c8-4 17-6 25-8h6c1 2 3 2 4 0h10l5-2h17l6 2c3-2 6-2 9-2l11 2c2-2 2-3 0-4 1-1 3-2 6-1l-3-11c0-3 0-6 2-8 2 7 5 13 9 20l3-1-3-11v-13c2-2 2-4 0-5 0-3 2-3 4-2-1 4-2 8-1 12l1 8 4-4 24-9c4 2 7 5 10 9 5-10 11-19 18-27 12-14 24-27 37-39 5-12 13-21 24-27l1-3 3-2 2 1c2-3 5-5 9-6l10-6 1 1 9-7c5-1 10-4 14-6l1 1 7-6 2 2 9-6 14-2Zm-3872-330h2v16l-3-1c-1-5 0-10 1-15Zm0 19c1 0 2 0 1 2l-1-2Zm2170 2c1-2 2-1 3 1l-2 5-1-6Zm-2158 7c1 0 2 0 1 2l-1-2Zm310 96c0-2 0-3 2-2l-2 2Zm60 22 3 3c-2 0-3-1-3-3Zm2962 72c1 0 2 1 1 3-1-1-2-2-1-3Zm-1596 7c1 0 2 0 1 2l-1-2Zm9 15 8 3c-2 2-3 2-5 1l-3-4Zm409 117v6l-7-9c-1-1-2-1-2 1l8 13-10-4c-3 1-3 3-1 6l1-2 7 6-7-2-4 1c-1 2 0 4 3 5l-7 2-14-1-13 5-4-1-14 3c-4 11-10 22-18 32l-21 15-2 14-122 20-5-2-24 3-28 8c-7-6-12-13-17-20l-6-8a705 705 0 0 1-101-193l2-4h13v-4l35 12a814 814 0 0 1 63 13c9 3 18 4 27 5l2 2h13l30 6 4-1c4 0 9 1 13 3l7-1 2 2 10-1 5 2h27l7 2 2-1 13 2a477 477 0 0 0 48-1l3 2h27l52-3 3 7c-2 2-2 5 0 8l-2 5c2 1 2 2 1 4 0 1 0 2 2 3l-3 1 2 3-2 7 2 3-1 19v2c1-1 2-2 3-1l-2 6Zm-1787-95c2 0 2 1 2 4-2-1-3-3-2-4Zm1984 120c-2-2-4-3-5-1l3 6-18 3-4-3c0-3-1-6-3-7l-13-8-6-7-11 7h-8c0 2-1 2-3 1l-5 2-30-1-2 1-9-2-4 1-1-2-7 1-23-5-9 1-1-5c-2 0-3 1-4 3-2-1-2-2-1-2l8-10v-4c-4 2-8 5-11 9 1-6 4-11 8-15-3 1-6 3-8 6l-9 13-1-3 2-1c-2-3-3-6-2-8l2-4c-3-2-3-3 0-4l-2-11c0-2 0-3 2-4-3-1-3-3 0-4-3-3-3-7 0-10l-2-2 2-3-2-4v-11c0-3 1-5 3-6h20c2-2 4-2 7-1l9-2c4-1 8 0 12 1l13-3a1268 1268 0 0 0 27-1l19-3h11l27-5 5 1c6-2 11-4 17-4l4 1c1-3 3-3 5-1 1-2 2-3 4-1l15-3 1 1c1-2 2-3 4-1l22-4 2 3-1 9 2 23v6l27 21c3 4 3 9-2 13l-2 9 1 1-19-4a2506 2506 0 0 0-45 17c-3 4-6 9-7 15-3-5-7-9-11-11l7 16Zm-1977-107c-1 1 0 2 2 3l-3 1-5-11v-1l4 2-1 1 3 5Zm1371-4 3 4a455 455 0 0 0 20 54 725 725 0 0 0 92 147l-39 11-5 11c-3 1-6 3-8 6-1 4 0 8 1 13l-2 2-2 14 4 6 3-1 12 4-1 4-5 6 1 1c-3 2-4 5-5 9 2 4 4 8 8 12-7 14-12 28-15 44l-17 5-2 3-1-1-7 3-10 5-6 10 1 3h-3c-1 4-3 7-6 9 0 2-1 4-3 5l1 4-3 1-10 11c-1-3-3-3-4-1l-1-2c2-5 5-9 9-13l-2-1-8 3 2-2-2-5c0-3 0-6 2-9v-10a1096 1096 0 0 0 0-58l2-3c-2-1-2-3 0-4a2138 2138 0 0 1 2-185c0-2 1-2 2-3v-13c-3-2-3-5 0-7a463 463 0 0 1 0-52l2-2-2-11 2-4c-2-4-2-8 0-11l-2-3 3-4-1-5Zm-1778 13a504 504 0 0 0 2 18l-4 15 1 1c-2 1-3 3-3 5l-8-11c3-10 7-19 12-28Zm413 2 2 3c-2-1-3-2-2-3Zm12 38c-2 0-3-1-3-2 1-1 2 0 3 2Zm-1 21-3-1v-6l4 5-1 2Zm1977 23c1 2 0 2-2 2l2-2Zm-2287 2c3 3 6 7 8 12l-1 3c-4 4-8 10-11 16 0-11 2-21 4-31Zm2221 2c-2-1-3-1-1-2l1 2Zm-47 12c1 0 2 0 3 2 2-2 4-2 7-1-5 3-10 4-15 5v-3l5-3Zm-1832 19c2 1 3 2 3 5-2-2-3-3-3-5Zm7 6c-2-1-3-2-2-3 1 0 2 1 2 3Zm-14 33c-2-1-3-2-2-3 1 0 2 1 2 3Zm3030 0c0-2 1-2 3 0l2 3c-3 0-4-1-5-3Zm-3029 2c4 5 3 6-1 1l1-1Zm38 6-8-5c0-2 1-2 3-1l5 6Zm-32 5c1 0 2 1 2 3-2-1-3-2-2-3Zm3247 15c2 0 2 0 0 2v-2Zm15 10c1 1 0 2-1 3h-4l5-3Zm-3266 29h2c0 3-1 3-2 0Zm3 6c-3-1-3-1-1-2l1 2Zm-199 9c2 0 1 1-1 3l1-3Zm230 58-2-2c1-1 1 0 2 2Zm-46 56 1-1v3l-1-2Zm3 6h2l-1 4c-1-2-2-3-1-4Zm4 8c3 1 4 4 5 8 1-2 2-1 3 0l-2 2 8 9h-7c-2-7-4-14-7-19Zm-266 39c0-3 1-4 4-4l-2 2c1 2 0 3-2 2Zm-1 1c2 1 2 2-1 3h-5c-1 2-2 2-4 0-1 0-2 1-2 3l-5-1-3 2-2-1-4 4-1-2c0-2 1-3 3-4l6-3 2 1c2-3 4-4 7-3l2-2c1 2 4 3 7 3Zm-61 20-3 1c-2-3-1-5 3-4v3Zm615 12c1 0 2 0 1 2l-1-2Zm3 4c1 0 2 1 1 3-1-1-2-2-1-3Z"/></svg>