<svg xmlns="http://www.w3.org/2000/svg" width="5120" height="2880" fill-rule="evenodd" clip-rule="evenodd" image-rendering="optimizeQuality" shape-rendering="geometricPrecision" text-rendering="geometricPrecision"><path fill="#f99f1a" d="M2709 1160h5l-1 3c-7 3-12 7-14 14l-6 3-24-11c-3-2-3-4 0-5 9 1 17 5 24 11 4-7 9-12 16-15Z"/><path fill="#ffe373" d="M2668 1391a552 552 0 0 0-40 26c-37 17-76 21-115 10a151 151 0 0 1-99-111c2-66 33-112 93-139l27-9c7-2 15-3 24-3l37 1 26 10 8 7c15 8 28 18 40 31l17 23c8 13 14 27 18 42l3 37-4 20a855 855 0 0 1-14 37c-6 8-13 14-21 18Z"/><path fill="#f99f1a" d="m2577 1187 11 11c2-3 5-6 9-8h13l-1 3c-5 2-9 5-12 9l-7 3-13-13v-5ZM2712 1211c4 0 8 2 12 5 5-2 11-3 17-2l1 4c-6-1-11 1-14 5l-3 1-18-9c-1-1-2-2-1-3l6-1ZM2639 1222h7c0 6 4 10 11 12v4l-8-1-9-7c-5 3-9 7-11 12l-3 1c-1-2 0-4 1-5l12-16Z"/><path fill="#fec91a" d="M2422 1252c0-2 1-2 2-1l-2 1Z" opacity=".9"/><path fill="#fec91a" d="M2421 1255c1 0 1 0 0 0Z" opacity=".8"/><path fill="#f99f1a" d="M2520 1260h6l1 2-14 19c-6-1-11-3-14-7-2-2-4-2-6-2-1-3 0-5 3-4l12 7 12-15Z"/><path fill="#fec91a" d="M2421 1262c1 0 1 0 0 0Z" opacity=".9"/><path fill="#ffca29" d="m2668 1391-3 2c0-2 1-3 3-2Z" opacity=".9"/></svg>